<ttFont>
          <CharString index="0">
            1.52587890625e-05 -85 30.5 -41.5 98 0 rrcurveto
            101 hlineto
            101.000015259 29.5 41.5 85 hvcurveto
            130 vlineto
            1.52587890625e-05 85 -30.5 41.5 -98 0 rrcurveto
            -101 hlineto
            -100.999984741 -29.5 -41.5 -85 hvcurveto
            return
          </CharString>
          <CharString index="1">
            121 vlineto
            1.52587890625e-05 43.3500061035 7.64999389648 13.6499938965 52.6000061035 0 rrcurveto
            93.5 hlineto
            43.700012207 14.5500030518 -10.3999938965 -46.6000061035 hvcurveto
            -121 vlineto
            1.52587890625e-05 -41.5500030518 -5.85000610352 -15.4499969482 -54.3999938965 0 rrcurveto
            -93.5 hlineto
            -44.8999938965 -13.3499908447 12.0500030518 44.9499969482 hvcurveto
            return
          </CharString>
          <CharString index="2">
            80 0 439.350006104 732 -78.9499969482 0 rlineto
            return
          </CharString>
          <CharString index="3">
            1.52587890625e-05 -85 30.3499908447 -41.5 98 0 rrcurveto
            101.149993896 hlineto
            101.000015259 29.5 41.5 85 hvcurveto
            130 vlineto
            return
          </CharString>
          <CharString index="4">
            1.52587890625e-05 85 -30.5 41.5 -98 0 rrcurveto
            -101.149993896 hlineto
            -101 -29.3499908447 -41.5 -85 hvcurveto
            return
          </CharString>
          <CharString index="5">
            121 vlineto
            1.52587890625e-05 43.3500061035 7.64999389648 13.6499938965 52.6000061035 0 rrcurveto
            93.3500061035 hlineto
            43.700012207 14.6999969482 -10.3999938965 -46.6000061035 hvcurveto
            -121 vlineto
            1.52587890625e-05 -41.549987793 -6 -15.450012207 -54.4000091553 0 rrcurveto
            -93.3500061035 hlineto
            -44.8999938965 -13.3499908447 12.0500030518 44.9499969482 hvcurveto
            return
          </CharString>
          <CharString index="6">
            1.52587890625e-05 -328.149993896 163.5 -207.850006104 0 0 rrcurveto
            94.5 hlineto
            1.52587890625e-05 -166 233.600006104 302.399993896 274.699996948 166 259.300003052 0 hvcurveto
            -94.5 hlineto
            1.52587890625e-05 -163.5 -246.199996948 -287.800003052 hvcurveto
            return
          </CharString>
          <CharString index="7">
            94.5 hlineto
            0 163.5 207.850006104 328.149993896 287.800003052 -163.5 246.199996948 0 hvcurveto
            -94.5 hlineto
            0 166 -259.300003052 -274.699996948 -302.399993896 -166 -233.600006104 0 hvcurveto
            return
          </CharString>
          <CharString index="8">
            164 -165 86 165 166 86 -166 165 -86 -165 -164 hlineto
            return
          </CharString>
          <CharString index="9">
            314 86 -314 hlineto
            return
          </CharString>
          <CharString index="10">
            -1.52587890625e-05 -14 10 -9 14 0 rrcurveto
            62 hlineto
            13.9999847412 11 5 18 hvcurveto
            66 vlineto
            -1.52587890625e-05 16 -7 9 -18 0 rrcurveto
            -62 hlineto
            -16.0000152588 -8 -10 -15 hvcurveto
            return
          </CharString>
          <CharString index="11">
            -120 78.299987793 -46.5 96.8500061035 vhcurveto
            164 hlineto
            102.149993896 67.700012207 47.5 119 hvcurveto
            399 vlineto
            88.6999969482 -44.25 77.8000030518 -125.450012207 vhcurveto
            -164 hlineto
            -99.5 -75.799987793 -56.6999969482 -111.300003052 hvcurveto
            return
          </CharString>
          <CharString index="12">
            -115.949996948 0 -89.0500030518 -7.75 -99 -13.75 rrcurveto
            return
          </CharString>
          <CharString index="13">
            -117 2 -114.5 1 -88 -31 rrcurveto
            return
          </CharString>
          <CharString index="14">
            34 -44.5 359 0 0 -177.5 92 0 0 177.5 rlineto
            return
          </CharString>
          <CharString index="15">
            85.5 20.5 0 72.5 -85.5 0 0 271.5 -56.5 0 -35.5 -75.4499969482 rlineto
            return
          </CharString>
          <CharString index="16">
            -196.050003052 -255.949996948 vlineto
            273.449996948 459.5 -106 0 rlineto
            return
          </CharString>
          <CharString index="17">
            134.000015259 -23 47.5 -1 124 0 rrcurveto
            67.3999938965 102.449996948 36 137 hvcurveto
            111 vlineto
            0 98.3500061035 -46.8999938965 70.6499938965 -117.699996948 1.5 -28.3000030518 0.149993896484 -60.8000030518 6.10000610352 -49.8000030518 -6.25 -29.1499938965 -3.55000305176 -27.6999969482 -8.09999084473 -15.8000030518 -16.8500061035 rrcurveto
            10.8000030518 221 342 0 0 89 -428.149993896 0 rlineto
            return
          </CharString>
          <CharString index="18">
            -22 -439.5 84 0 rlineto
            50.5500030518 38.3500061035 19.9499969482 37.9499969482 vhcurveto
            137.5 hlineto
            81.3499908447 2.34999084473 -54.8500061035 -33 hvcurveto
            -98.1499938965 vlineto
            -40.3999938965 -17.3999938965 -46.6000061035 -67.9499969482 vhcurveto
            return
          </CharString>
          <CharString index="19">
            1.52587890625e-05 -315 78.6999969482 -69.1499938965 110.949996948 -0.850006103516 rrcurveto
            147.350006104 hlineto
            97.3000183105 68.1999969482 38.8000030518 114.699996948 hvcurveto
            125 vlineto
            1.52587890625e-05 82.6499938965 -26.5 72.3500061035 -137.5 0 rrcurveto
            return
          </CharString>
          <CharString index="20">
            -75.5 0 -93.1999969482 -9.64999389648 -77.8000030518 -11.3500061035 1.69999694824 82.3500061035 15.3000030518 155.149993896 91 0 rrcurveto
            return
          </CharString>
          <CharString index="21">
            278.5 68.9499969482 hlineto
            return
          </CharString>
          <CharString index="22">
            -94.6999816895 14.049987793 -110.950012207 7.64999389648 -100.849990845 -2.39999389648 rrcurveto
            -83.9000091553 -2.10000610352 -88.0999908447 -86.1499938965 0 -265 rrcurveto
            return
          </CharString>
          <CharString index="23">
            238.850006104 hlineto
            44.6500091553 35.8499908447 -13.6999969482 -58.3000030518 hvcurveto
            -109.25 vlineto
            -65.8999938965 -32.9499969482 -9.85000610352 -48.3000030518 vhcurveto
            -129.199996948 hlineto
            -103.250015259 -5.64999389648 161.199996948 95.8000030518 hvcurveto
            return
          </CharString>
          <CharString index="24">
            376 0 -249 -643 105.699996948 0 259.600006104 679.5 -30 52.5 -462.300003052 0 rlineto
            return
          </CharString>
          <CharString index="25">
            1.52587890625e-05 -44.4499969482 4.30000305176 -113.300003052 174.699996948 0 rrcurveto
            146.5 hlineto
            68.950012207 97.0500030518 23.6999969482 134.949996948 hvcurveto
            94.6999969482 vlineto
            0.850006103516 43 -19.5999908447 79.1999969482 -56.25 10.4499969482 70.9499969482 14.1000061035 4.89999389648 79.1499938965 -0.849990844727 22.75 rrcurveto
            61.8500061035 vlineto
            1.52587890625e-05 123.75 -56.3500061035 49.3999938965 -108.649993896 0 rrcurveto
            -147.5 hlineto
            -102.999984741 -76 -38.1000061035 -134.899993896 hvcurveto
            -65 vlineto
            1.52587890625e-05 -54.1999969482 17.8499908447 -63.0500030518 65.5 -24.25 -42.3999938965 -12.3999938965 -40.9499969482 -25.700012207 0 -70.3999938965 rrcurveto
            return
          </CharString>
          <CharString index="26">
            95.25 vlineto
            1.52587890625e-05 56.75 39 19.1499938965 45.3999938965 0 rrcurveto
            143.25 hlineto
            43.2499847412 36.6000061035 -23.5500030518 -52.3499908447 hvcurveto
            -95.25 vlineto
            1.52587890625e-05 -49.25 -39.5500030518 -23.1000061035 -43.1499938965 0 rrcurveto
            -131.050003052 hlineto
            -67.299987793 -26.4499969482 25.4499969482 46.9000091553 hvcurveto
            return
          </CharString>
          <CharString index="27">
            62.3000030518 vlineto
            1.52587890625e-05 83.4000091553 34.8499908447 9.80000305176 58.9000091553 0 rrcurveto
            131.899993896 hlineto
            53.7499847412 28.1000061035 -23.1000061035 -70.0999908447 hvcurveto
            -62.3000030518 vlineto
            1.52587890625e-05 -35.1000061035 -11.5 -42.8999938965 -68.6500091553 0 rrcurveto
            -142.949996948 hlineto
            -34.0000152588 -50.3999938965 15.1999969482 62.8000030518 hvcurveto
            return
          </CharString>
          <CharString index="28">
            -82.6499938965 26.5 -72.3500061035 137.5 vhcurveto
            return
          </CharString>
          <CharString index="29">
            -278.5 -68.9499969482 hlineto
            return
          </CharString>
          <CharString index="30">
            109.25 vlineto
            65.8999938965 32.9499969482 9.85000610352 48.3000030518 vhcurveto
            129.199996948 hlineto
            return
          </CharString>
          <CharString index="31">
            103.249984741 5.65000915527 -161.199996948 -95.8000030518 hvcurveto
            return
          </CharString>
          <CharString index="32">
            -14.0000152588 10 -9 14 vhcurveto
            62 hlineto
            14 -1.52587890625e-05 11 5 0 18 rrcurveto
            66 vlineto
            15.9999847412 -7 9 -18 vhcurveto
            -62 hlineto
            -16 -1.52587890625e-05 -8 -10 0 -15 rrcurveto
            return
          </CharString>
          <CharString index="33">
            15.5 -62.5 65.3000030518 0 rlineto
            return
          </CharString>
          <CharString index="34">
            112 319.25 108.25 -319.25 rlineto
            return
          </CharString>
          <CharString index="35">
            319.149993896 9.85000610352 0 74.3000030518 rlineto
            return
          </CharString>
          <CharString index="36">
            -319.149993896 10.1499938965 0 176.600006104 rlineto
            27 0 29 52 vhcurveto
            return
          </CharString>
          <CharString index="37">
            308.649993896 73.75 hlineto
            return
          </CharString>
          <CharString index="38">
            92 309.5 323 -309.5 92 732 -92 -333.5 -323 333.5 -92 hlineto
            return
          </CharString>
          <CharString index="39">
            92 732 -92 hlineto
            return
          </CharString>
          <CharString index="40">
            -113 70.75 -17.5 69.75 vhcurveto
            304.5 89 -291 hlineto
            -29 -33 -1 53 hvcurveto
            591 -92 vlineto
            return
          </CharString>
          <CharString index="41">
            209.5 -643 92 643 215.5 89 -517 hlineto
            return
          </CharString>
          <CharString index="42">
            496 89 -375 hlineto
            375 554 0 89 -496 0 0 -89 379.5 0 -379.5 -554 rlineto
            return
          </CharString>
          <CharString index="43">
            130 -134.5 75 0 -102.5 134.5 rlineto
            return
          </CharString>
          <CharString index="44">
            144.100006104 25.3999938965 126 64.5 hvcurveto
            0 70.4499969482 -17.4499969482 20.25 -10.5500030518 21.3000030518 rrcurveto
            75 18 0 63.5 rlineto
            return
          </CharString>
          <CharString index="45">
            92 531 -92 hlineto
            return
          </CharString>
          <CharString index="46">
            -23.5 60.5 -68.5 0 rlineto
            return
          </CharString>
          <CharString index="47">
            95.3999938965 -259 hlineto
            1.52587890625e-05 -141 54.0999908447 -48.3000030518 77.450012207 0 rrcurveto
            97.3000030518 62 hlineto
            -7 -1.52587890625e-05 -76 21 0 0 -32.1999969482 8.60000610352 -21.6499938965 19.0999908447 0 84.6000061035 rrcurveto
            return
          </CharString>
          <CharString index="48">
            -145.100006104 148 -72.5 hlineto
            return
          </CharString>
          <CharString index="49">
            -19.5 -148 rlineto
            return
          </CharString>
          <CharString index="50">
            -95.3999938965 -21 rlineto
            return
          </CharString>
          <CharString index="51">
            23.5 -60.5 68.5 0 0 531 -92 0 0 -401.5 rlineto
            return
          </CharString>
          <CharString index="52">
            -1.52587890625e-05 -29.1999969482 24.0500030518 -24.0500030518 29.1999969482 0 rrcurveto
            29.1999969482 23.0500030518 24.0500030518 29.1999969482 29.1999969482 -23.0500030518 23.0500030518 -29.1999969482 -29.1999969482 -24.0500030518 -23.0500030518 -29.1999969482 hvcurveto
            return
          </CharString>
          <CharString index="53">
            -147.050003052 49.1500091553 -220.949996948 185.349990845 vhcurveto
            259.5 hlineto
            151 60.5 165.100006104 202.899993896 137.649993896 -14.4499969482 226.350006104 -197.050003052 hvcurveto
            -259.5 hlineto
            -197.549987793 -36.950012207 -196.199996948 -167.800003052 hvcurveto
            return
          </CharString>
          <CharString index="54">
            237.949996948 74 56.0500030518 89 vhcurveto
            259.5 hlineto
            131 9 -174 -120 hvcurveto
            0 -204 -61.6999969482 -93.1499938965 -79.8000030518 -0.850006103516 rrcurveto
            -258 hlineto
            -114 0.850006103516 -49 151.75 0 145.399993896 rrcurveto
            return
          </CharString>
          <CharString index="55">
            211 -208 58.1499938965 58.8999938965 -152.649993896 149.100006104 148.25 144.550003052 -58.75 58.4499969482 rlineto
            return
          </CharString>
          <CharString index="56">
            292 67.5 -292 hlineto
            return
          </CharString>
          <CharString index="57">
            -1.52587890625e-05 -57 46 -45 56 0 rrcurveto
            56 45 45 57 57 -45 46 -56 -56 -46 -46 -57 hvcurveto
            return
          </CharString>
          <CharString index="58">
            75 0 130 134.5 -102.5 0 rlineto
            return
          </CharString>
          <CharString index="59">
            120.649993896 31.6999969482 0 -400.699996948 74.6000061035 0 0 477.649993896 -74.3000030518 0 -120.949996948 -55 rlineto
            return
          </CharString>
          <CharString index="60">
            311.199996948 61 -311.199996948 hlineto
            return
          </CharString>
          <CharString index="61">
            58.1499938965 -58.8999938965 211 208 -206 203 -58.75 -58.4499969482 148.25 -144.550003052 rlineto
            return
          </CharString>
          <CharString index="62">
            74.8999938965 0 365.699996948 737.699996948 -74.8999938965 0 rlineto
            return
          </CharString>
          <CharString index="63">
            22.1499938965 -30.3000030518 239.850006104 0 0 -113.699996948 74.6000061035 0 0 113.699996948 rlineto
            return
          </CharString>
          <CharString index="64">
            56.1499938965 14.3500061035 0 61 -56.1499938965 0 0 164.350006104 -47.6499938965 0 -26.9499969482 -48.4499969482 rlineto
            return
          </CharString>
          <CharString index="65">
            181.800003052 hlineto
            43.6499938965 1.52587890625e-05 24.75 -15.3000030518 0 -39.3000030518 rrcurveto
            -19.4499969482 vlineto
            0 -37.3000030518 -22.9499969482 -18.6999969482 -45.4499969482 -1.85000610352 rrcurveto
            return
          </CharString>
          <CharString index="66">
            -137.5 -7.14999389648 0 -57.6499938965 rlineto
            return
          </CharString>
          <CharString index="67">
            137.5 -5 rlineto
            36.3499908447 -1 30.9000091553 -14.75 0 -46.5 rrcurveto
            -20.1499938965 vlineto
            -40.700012207 -17.4000091553 -14.4499969482 -53.8499908447 vhcurveto
            0 -145.600006104 -0.850006103516 -27.1999969482 vhcurveto
            -1 -53.0500030518 rlineto
            57.9000091553 -20.4499969482 58.75 2 75.0500030518 0 rrcurveto
            97.1999969482 30.75 47.5500030518 72.3500061035 hvcurveto
            26.6499938965 vlineto
            -1.52587890625e-05 49.3000030518 -21.0999908447 29.6499938965 -30 16.4000091553 29 10.75 22.0999908447 31.299987793 0 47.3000030518 rrcurveto
            33.6499938965 vlineto
            -1.52587890625e-05 62.8499908447 -37.3000030518 55.0500030518 -85.6499938965 0.149993896484 rrcurveto
            return
          </CharString>
          <CharString index="68">
            -77.0500030518 0.300003051758 -65.8999938965 1.69999694824 -57.75 -20.4499969482 rrcurveto
            return
          </CharString>
          <CharString index="69">
            107.200195312 0 62.3994140625 192.599609375 277.75 0 60 -192.599609375 104.650390625 0 -251.75 732 -97.25 0 rlineto
            return
          </CharString>
          <CharString index="70">
            78 0 73.7998046875 68 67.7001953125 -68 77 0 -102.049804688 131.5 -80 0 rlineto
            return
          </CharString>
          <CharString index="71">
            21.900390625 -44.900390625 rlineto
            36.099609375 15.5 15.349609375 18.650390625 43.25 0.849609375 rrcurveto
            return
          </CharString>
          <CharString index="72">
            36.4501953125 0.849609375 17.8505859375 -32.44921875 54.0498046875 -2.55078125 43.349609375 -1.69921875 39.8505859375 39.849609375 31.349609375 26.2001953125 rrcurveto
            -22.599609375 46.7998046875 rlineto
            -30.5 -17.900390625 -34.400390625 -19.849609375 -26.400390625 1.150390625 rrcurveto
            return
          </CharString>
          <CharString index="73">
            -29.7998046875 0.849609375 -27.9501953125 31.599609375 -49.099609375 2.55078125 rrcurveto
            -43.25 0 -37.75 -32.05078125 -37.75 -33.44921875 rrcurveto
            return
          </CharString>
          <CharString index="74">
            -29.2001953125 24.0498046875 -24.0498046875 29.2001953125 29.2001953125 23.0498046875 24.0498046875 29.2001953125 29.2001953125 -23.0498046875 23.0498046875 -29.2001953125 -29.2001953125 -24.0498046875 -23.0498046875 -29.2001953125 vhcurveto
            return
          </CharString>
          <CharString index="75">
            -57 46 -45 56 56 45 45 57 57 -45 46 -56 -56 -46 -46 -57 vhcurveto
            return
          </CharString>
          <CharString index="76">
            28.349609375 23.5 23.5 28.349609375 28.349609375 22.5 -23.5 -28.349609375 -28.349609375 -22.5 -22.5 -28.349609375 -28.349609375 -23.5 22.5 28.349609375 vhcurveto
            return
          </CharString>
          <CharString index="77">
            -43.30078125 52.5 vlineto
            81.7998046875 22.2001953125 35.5 102 hvcurveto
            -74.5 hlineto
            0 -38 -3.400390625 -29.19921875 -28 -12 rrcurveto
            return
          </CharString>
          <CharString index="78">
            0 -219.650390625 60.349609375 -153.899414062 185 -0.4501953125 66.400390625 -0.4501953125 111.799804688 9 68.7998046875 14.9501953125 rrcurveto
            72.7998046875 vlineto
            0 -132.849609375 -7.2998046875 -105 -128.200195312 -34.2998046875 119 164 237.150390625 43.5 47.849609375 118.849609375 vhcurveto
            93.650390625 0 143.349609375 -11.0498046875 1 0 rrcurveto
            72.7998046875 vlineto
            -72.400390625 15.849609375 -108.799804688 11.400390625 -65.7998046875 0 -199 0 -46.349609375 -138 0 -234 rrcurveto
            return
          </CharString>
          <CharString index="79">
            0 -119 79.1953125 -16.400390625 65.8046875 3.7001953125 0 0 292.200195312 14.900390625 15.4501953125 2.099609375 rrcurveto
            72.75 -298.650390625 vlineto
            -29 0 -32.150390625 -1 -0.849609375 53 rrcurveto
            0 176.599609375 rlineto
            return
          </CharString>
          <CharString index="80">
            319.150390625 9.8505859375 0 74.2998046875 rlineto
            return
          </CharString>
          <CharString index="81">
            -319.150390625 10.150390625 0 176.599609375 rlineto
            27 0 29 52 vhcurveto
            return
          </CharString>
          <CharString index="82">
            308.650390625 73.75 hlineto
            return
          </CharString>
          <CharString index="83">
            -17.55078125 2.400390625 -300.099609375 13.599609375 0 0 -67.5546875 2.5498046875 -67.4453125 -32.6337890625 0 -105.916015625 rrcurveto
            return
          </CharString>
          <CharString index="84">
            21.900390625 -44.900390625 rlineto
            36.099609375 15.5 15.3505859375 18.650390625 43.25 0.849609375 rrcurveto
            return
          </CharString>
          <CharString index="85">
            93 559.5 hlineto
            363.849609375 -559.5 92 0 0 732 -92 0 0 -561 -362.849609375 561 -94 0 rlineto
            return
          </CharString>
          <CharString index="86">
            -333 106.850585938 -32 180 180 105.149414062 42 323 343 -112.149414062 33 -173 -168 -118.850585938 -33 -343 vhcurveto
            return
          </CharString>
          <CharString index="87">
            281 68.6005859375 6 126.25 129.25 63.8994140625 -7.349609375 -279.650390625 -234.900390625 -47.6494140625 -41.099609375 -145.5 -149 -45.8505859375 34.599609375 241.400390625 vhcurveto
            return
          </CharString>
          <CharString index="88">
            78 0 73.7998046875 68 67.7001953125 -68 77 0 -102.05078125 131.5 -80 0 rlineto
            return
          </CharString>
          <CharString index="89">
            21.8994140625 -44.900390625 rlineto
            36.1005859375 15.5 15.349609375 18.650390625 43.25 0.849609375 rrcurveto
            return
          </CharString>
          <CharString index="90">
            36.4501953125 0.849609375 17.849609375 -32.44921875 54.0498046875 -2.55078125 43.3505859375 -1.69921875 39.849609375 39.849609375 31.3505859375 26.2001953125 rrcurveto
            -22.6005859375 46.7998046875 rlineto
            -30.5 -17.900390625 -34.3994140625 -19.849609375 -26.400390625 1.150390625 rrcurveto
            return
          </CharString>
          <CharString index="91">
            -29.2001953125 24.0498046875 -24.0498046875 29.2001953125 29.19921875 23.05078125 24.0498046875 29.2001953125 29.2001953125 -23.05078125 23.0498046875 -29.19921875 -29.2001953125 -24.0498046875 -23.0498046875 -29.2001953125 vhcurveto
            return
          </CharString>
          <CharString index="92">
            -333 138 8 136 121 148 2 323 vhcurveto
            412 -93 -412 vlineto
            -225.150390625 -78.5 -10.849609375 -97.5 -113.700195312 -68.2998046875 3.4501953125 232.549804688 vhcurveto
            412 -92 vlineto
            return
          </CharString>
          <CharString index="93">
            230.299804688 -481 0 -251 92 0 0 251 249.700195312 481 -100.5 0 -194.599609375 -375 -176.400390625 375 rlineto
            return
          </CharString>
          <CharString index="94">
            0 -80.6494140625 56.7001953125 -53.150390625 80.9501953125 -0.75 88.2998046875 -0.4501953125 114.150390625 65.7998046875 3.0498046875 3.150390625 rrcurveto
            21.849609375 -62.5 70.150390625 0 0 382.5 rlineto
            0 115.849609375 -72.1005859375 43.5 -91.5498046875 -0.849609375 -99 -0.849609375 -84.6494140625 -8.7001953125 -70.7001953125 -21.9501953125 rrcurveto
            -62.849609375 vlineto
            82.4501953125 5.94921875 99.599609375 5.900390625 64.9501953125 0 48.5 0 30.5 -17.7001953125 0 -59.7998046875 1 -1 -1 -57 0 0 rrcurveto
            -1 -204 1 0 -91.400390625 -47.75 -57.2001953125 -79.25 vhcurveto
            return
          </CharString>
          <CharString index="95">
            43.400390625 vlineto
            0 29.599609375 13.2998046875 28.55078125 41.3505859375 3.849609375 rrcurveto
            196.5 14.349609375 0 -130.549804688 rlineto
            0 -120.549804688 -48.2998046875 -74.150390625 -31.75 -24.7001953125 12.150390625 46.94921875 vhcurveto
            return
          </CharString>
          <CharString index="96">
            -204.400390625 40 -68.599609375 135 vhcurveto
            83 0 93.6494140625 3.650390625 79.3505859375 24.349609375 rrcurveto
            66.5 vlineto
            -75 -11 -71 0.849609375 -89 0 rrcurveto
            -77.400390625 -26.599609375 24.1005859375 117.049804688 hvcurveto
            209 hlineto
            96 44 43.2001953125 81.7998046875 176 -76.2001953125 13.5 -132.799804688 -165.200195312 -66.7998046875 -32.400390625 -234.599609375 hvcurveto
            return
          </CharString>
          <CharString index="97">
            -0.2998046875 149.099609375 40.8994140625 1.900390625 102.350585938 0 rrcurveto
            96.8994140625 17.150390625 -9.900390625 -94.6494140625 -30.900390625 -17.9501953125 -15.5498046875 -39.9501953125 hvcurveto
            return
          </CharString>
          <CharString index="98">
            -29.2001953125 24.05078125 -24.0498046875 29.19921875 29.2001953125 23.0498046875 24.0498046875 29.2001953125 29.2001953125 -23.0498046875 23.0498046875 -29.2001953125 -29.19921875 -24.05078125 -23.0498046875 -29.2001953125 vhcurveto
            return
          </CharString>
          <CharString index="99">
            78 0 73.80078125 68 67.69921875 -68 77 0 -102.049804688 131.5 -80 0 rlineto
            return
          </CharString>
          <CharString index="100">
            36.4501953125 0.849609375 17.849609375 -32.44921875 54.0498046875 -2.55078125 43.3505859375 -1.69921875 39.849609375 39.849609375 31.349609375 26.2001953125 rrcurveto
            -22.599609375 46.7998046875 rlineto
            -30.5 -17.900390625 -34.400390625 -19.849609375 -26.3994140625 1.150390625 rrcurveto
            return
          </CharString>
          <CharString index="101">
            -29.7998046875 0.849609375 -27.9501953125 31.599609375 -49.1005859375 2.55078125 rrcurveto
            -43.25 0 -37.75 -32.05078125 -37.75 -33.44921875 rrcurveto
            return
          </CharString>
          <CharString index="102">
            92 401.5 hlineto
            67.25 35.5 36.75 18.5 73.55078125 0 rrcurveto
            46.6494140625 34.7998046875 -27 -62.400390625 hvcurveto
            -366.099609375 92 365.5 vlineto
            91.599609375 -51.69921875 82.900390625 -110.80078125 vhcurveto
            -81 0 -50.69921875 -35.099609375 -56.80078125 -34.400390625 rrcurveto
            return
          </CharString>
          <CharString index="103">
            -190 56.0498046875 -73 180.200195312 180.799804688 55.4501953125 66 197 211 -56.2001953125 67 -180.049804688 -175.5 -60.75 -61 -217 vhcurveto
            return
          </CharString>
          <CharString index="104">
            179.450195312 40.2001953125 14.0498046875 104.049804688 107.849609375 36.400390625 -14.75 -178.75 -165.400390625 -44.2001953125 -13.099609375 -100.049804688 -95.2001953125 -49.0498046875 12.2998046875 166.200195312 vhcurveto
            return
          </CharString>
          <CharString index="105">
            -91.599609375 51.7001953125 -82.900390625 110.799804688 vhcurveto
            81 0 48.75 35.400390625 58.75 34.099609375 rrcurveto
            return
          </CharString>
          <CharString index="106">
            -67.25 -35.5 -36.75 -18.5 -73.5498046875 0 rrcurveto
            -46.650390625 -34.7998046875 27 62.400390625 hvcurveto
            366.099609375 -92 vlineto
            return
          </CharString>
          <CharString index="107">
            122.94921875 -414.099609375 rlineto
            31.05078125 -105.30078125 63.8994140625 -11.599609375 35.400390625 0 rrcurveto
            -88.75 -270 60.7001953125 0 74.3994140625 102 220.350585938 699 -100.100585938 0 -139.549804688 -442.150390625 rlineto
            -1.5498046875 0.150390625 -44.7998046875 -14.25 -16.2001953125 53.099609375 rrcurveto
            -118.799804688 403.150390625 rlineto
            return
          </CharString>
          <CharString index="108">
            -1.52587890625e-05 -18.700012207 11.8500061035 -8.85000610352 14.8499908447 0 rrcurveto
            return
          </CharString>
          <CharString index="109">
            108.149993896 vlineto
            -1.52587890625e-05 15.8499908447 -6.84999084473 13.6999969482 -19.700012207 0 rrcurveto
            -64.25 hlineto
            -17.6999969482 -9 -9.85000610352 -19.6999969482 hvcurveto
            return
          </CharString>
          <CharString index="110">
            1.52587890625e-05 -18.700012207 12.6999969482 -8.85000610352 14.8500061035 0 rrcurveto
            return
          </CharString>
          <CharString index="111">
            108.149993896 vlineto
            1.52587890625e-05 15.8499908447 -6 13.6999969482 -19.6999969482 0 rrcurveto
            -64.25 hlineto
            -17.700012207 -9.84999084473 -9.85000610352 -19.6999969482 hvcurveto
            return
          </CharString>
          <CharString index="112">
            -97.0000152588 56.049987793 -15.6999969482 64.4000091553 vhcurveto
            117.449996948 hlineto
            67.4499969482 48.8500061035 19.25 93.4499969482 hvcurveto
            251.399993896 vlineto
            1.52587890625e-05 67.299987793 -30 45.4000091553 -86.3000030518 0 rrcurveto
            -117.300003052 hlineto
            -74.0000152588 1.52587890625e-05 -46.5999908447 -29.3000030518 0 -84.3000030518 rrcurveto
            return
          </CharString>
          <CharString index="113">
            233.350006104 vlineto
            1.52587890625e-05 27.5500030518 5.05000305176 21.75 49.1999969482 0 rrcurveto
            98.3500061035 hlineto
            43.5 -1.52587890625e-05 8.90000915527 -15.5 0 -33.8000030518 rrcurveto
            -233.5 vlineto
            1.52587890625e-05 -34.549987793 -6.5 -14.75 -46.6500091553 0 rrcurveto
            -96.8500061035 hlineto
            -43.7499847412 -11.25 10.5 38.9499969482 hvcurveto
            return
          </CharString>
          <CharString index="114">
            -1.69999694824 -212.550003052 61.0999908447 -38.3499908447 74.5500030518 0 rrcurveto
            106.100006104 hlineto
            64.6000061035 45.5 33 74.549987793 hvcurveto
            71.3500061035 vlineto
            54.4499969482 -18.3499908447 50.75 -91.3000030518 vhcurveto
            return
          </CharString>
          <CharString index="115">
            195.100006104 59.1499938965 hlineto
            return
          </CharString>
          <CharString index="116">
            157.25 hlineto
            29.25 1.52587890625e-05 14.4499969482 -6.85000610352 0 -33.75 rrcurveto
            -53.3500061035 vlineto
            1.52587890625e-05 -33.3000030518 -12.9499969482 -13.3500061035 -31.3500061035 0 rrcurveto
            -91.75 hlineto
            -61.6999969482 -1.52587890625e-05 -3.19999694824 104.75 0 35.8500061035 rrcurveto
            return
          </CharString>
          <CharString index="117">
            249.300003052 0 -168.300003052 -405.300003052 83.1999969482 0 182.300003052 442.449996948 -19.8500061035 35.1999969482 -326.649993896 0 rlineto
            return
          </CharString>
          <CharString index="118">
            45.6499938965 vlineto
            36.1000061035 16.6000061035 11.6999969482 29.6999969482 vhcurveto
            103.149993896 hlineto
            28.549987793 -1.52587890625e-05 15.0500030518 -14.25 0 -33.5500030518 rrcurveto
            -45.6499938965 vlineto
            1.52587890625e-05 -31 -16.4499969482 -10.8500061035 -28.1500091553 0 rrcurveto
            -100.449996948 hlineto
            -38.3000030518 -9.69999694824 11.950012207 29.8999938965 hvcurveto
            return
          </CharString>
          <CharString index="119">
            29.4499969482 vlineto
            42.5500030518 12.6999969482 11.1999969482 41.25 vhcurveto
            87.6999969482 hlineto
            34.700012207 16.6999969482 -9.35000610352 -44.3999938965 hvcurveto
            -29.4499969482 vlineto
            1.52587890625e-05 -21.799987793 -2.85000610352 -28.25 -44.3000030518 0 rrcurveto
            -99.6000061035 hlineto
            -22.1499938965 -24.1499938965 9.80000305176 40.25 hvcurveto
            return
          </CharString>
          <CharString index="120">
            -54.75 18.5 -50.9000091553 91.3000030518 vhcurveto
            return
          </CharString>
          <CharString index="121">
            49.1999969482 0 66.0500030518 7.10000610352 50.5 7.19999694824 -0.850006103516 -53.0500030518 -4.25 -87.9499969482 -59.8999938965 0 rrcurveto
            return
          </CharString>
          <CharString index="122">
            -194.25 -59.3000030518 hlineto
            return
          </CharString>
          <CharString index="123">
            53.3500061035 vlineto
            33.6000061035 12.9499969482 13.5 31.3499908447 vhcurveto
            94.3000030518 hlineto
            return
          </CharString>
          <CharString index="124">
            61.6999816895 0.650009155273 -104.899993896 -36.6000061035 hvcurveto
            return
          </CharString>
          <CharString index="125">
            -157.100006104 hlineto
            -29.2500152588 -14.5999908447 7 34.0500030518 hvcurveto
            return
          </CharString>
          <CharString index="126">
            -76.5 0 -46.5 -7.29998779297 -64.8000030518 -8.75 rrcurveto
            -0.850006103516 0.849990844727 -0.849990844727 -57.1499938965 1.69999694824 0 rrcurveto
            return
          </CharString>
          <CharString index="127">
            181.800003052 hlineto
            43.6499938965 24.75 -15.299987793 -39.3000030518 hvcurveto
            -19.3000030518 vlineto
            0 -37.3000030518 -22.9499969482 -18.6999969482 -45.4499969482 -1.85000610352 rrcurveto
            return
          </CharString>
          <CharString index="128">
            137.5 -5 rlineto
            36.3499908447 -1 30.9000091553 -14.75 0 -46.5 rrcurveto
            -20.1499938965 vlineto
            -40.700012207 -17.4000091553 -14.4499969482 -53.8499908447 vhcurveto
            0 -145.600006104 -0.850006103516 -27.1999969482 vhcurveto
            -1 -53.0500030518 rlineto
            57.9000091553 -20.4499969482 58.75 2 75.0500030518 0 rrcurveto
            97.1999969482 30.75 47.5500030518 72.3500061035 hvcurveto
            26.6499938965 vlineto
            -1.52587890625e-05 49.3000030518 -21.0999908447 29.6499938965 -30 16.4000091553 29 10.75 22.0999908447 31.299987793 0 47.3000030518 rrcurveto
            33.6499938965 vlineto
            -1.52587890625e-05 63 -37.3000030518 54.8999938965 -85.6499938965 0.149993896484 rrcurveto
            return
          </CharString>
          <CharString index="129">
            -77.0500030518 0.300003051758 -65.8999938965 1.55000305176 -57.75 -20.4499969482 rrcurveto
            return
          </CharString>
          <CharString index="130">
            22.1499938965 -30.1499938965 239.850006104 0 0 -113.699996948 74.6000061035 0 0 116.399993896 rlineto
            return
          </CharString>
          <CharString index="131">
            -49.3500061035 0 -66.049987793 -7.09999084473 -50.5 -7.20001220703 0.849990844727 52.450012207 3.40000915527 87.6499938965 59.8999938965 0 rrcurveto
            return
          </CharString>
          <CharString index="132">
            109.25 vlineto
            65.9000091553 32.9499969482 9.84999084473 48.3000030518 vhcurveto
            129.199996948 hlineto
            return
          </CharString>
          <CharString index="133">
            11 -134 59 0 10 134 0 67 -80 0 rlineto
            return
          </CharString>
          <CharString index="134">
            -78.4501953125 16.5 -99.5498046875 164.5 vhcurveto
            132.5 hlineto
            61.8505859375 15.7998046875 -37.099609375 -52.80078125 hvcurveto
            -60.19921875 vlineto
            -79.30078125 -76.3505859375 -3.349609375 -41.2998046875 vhcurveto
            -93 0 -118.349609375 7 -40 4 rrcurveto
            -73.650390625 vlineto
            54.099609375 -11.8994140625 135.049804688 -14.4501953125 69.7001953125 0 rrcurveto
            99 103.150390625 24.400390625 148.599609375 hvcurveto
            62.75 vlineto
            81.7001953125 -24.7998046875 96.2998046875 -135.850585938 vhcurveto
            -134.799804688 hlineto
            -59.099609375 -36.6005859375 8.5 82 hvcurveto
            57.75 vlineto
            0 91.2998046875 48.900390625 6.25 67.599609375 -2.5498046875 9.900390625 0 174.599609375 -5.5498046875 64 -4.4501953125 rrcurveto
            73.650390625 vlineto
            -43.3994140625 8.2998046875 -148.350585938 17.6494140625 -67.25 -0.599609375 -112 -0.4501953125 -86 -35.5498046875 0 -145 rrcurveto
            return
          </CharString>
          <CharString index="135">
            113.099609375 -131.5 80 0 103.400390625 131.5 -77.150390625 0 -66.150390625 -68 -75.349609375 68 rlineto
            return
          </CharString>
          <CharString index="136">
            -43.2998046875 52.5 vlineto
            81.7998046875 22.2001953125 35.5 102 hvcurveto
            -74.5 hlineto
            0 -38 -3.400390625 -29.2001953125 -28 -12 rrcurveto
            return
          </CharString>
          <CharString index="137">
            113.099609375 -131.5 80 0 103.400390625 131.5 -77.150390625 0 -66.1494140625 -68 -75.3505859375 68 rlineto
            return
          </CharString>
          <CharString index="138">
            -14 10 -9 14 vhcurveto
            56 hlineto
            14 9 8 15 hvcurveto
            60 vlineto
            14 -8 11 -15 vhcurveto
            -56 hlineto
            -16 -8 -10 -15 hvcurveto
            return
          </CharString>
          <CharString index="139">
            -147.900390625 -66.1005859375 83.2998046875 -135.099609375 112.600585938 18.7001953125 rrcurveto
            64.5 vlineto
            -72.55078125 0.7998046875 -14.0498046875 51.4501953125 82.1005859375 65.75 rrcurveto
            return
          </CharString>
          <CharString index="140">
            -103 47 -31.150390625 94 vhcurveto
            148.700195312 hlineto
            39.7998046875 10.5 -17.8994140625 -31.5498046875 hvcurveto
            -42.400390625 vlineto
            -52.5 -47.75 4.0498046875 -2.5498046875 vhcurveto
            return
          </CharString>
          <CharString index="141">
            -267.700195312 -63.849609375 hlineto
            return
          </CharString>
          <CharString index="142">
            37.7001953125 -9.5498046875 179.200195312 -12.150390625 63.099609375 0 rrcurveto
            64 66 22 109 hvcurveto
            50.5 vlineto
            75.599609375 -42.099609375 55.650390625 -90.900390625 vhcurveto
            -149.299804688 hlineto
            -33.25 -24.4501953125 1.7001953125 49.1494140625 hvcurveto
            40 vlineto
            31.6005859375 1.3505859375 21.25 56.349609375 vhcurveto
            return
          </CharString>
          <CharString index="143">
            255.450195312 65.5498046875 hlineto
            return
          </CharString>
          <CharString index="144">
            -49 10.099609375 -152.5 8.900390625 -65.650390625 0 rrcurveto
            -103 -35 -53 -82 hvcurveto
            return
          </CharString>
          <CharString index="145">
            113.100585938 -131.5 80 0 103.399414062 131.5 -77.1494140625 0 -66.150390625 -68 -75.349609375 68 rlineto
            return
          </CharString>
          <CharString index="146">
            -43.2998046875 52.5 vlineto
            81.80078125 22.19921875 35.5 102 hvcurveto
            -74.5 hlineto
            0 -38 -3.3994140625 -29.2001953125 -28 -12 rrcurveto
            return
          </CharString>
          <CharString index="147">
            290.200195312 0 -275.200195312 -358.299804688 0 -85.7001953125 390 0 rlineto
            0 0 1 85 -1 1 rrcurveto
            -268.549804688 0 268.549804688 358 0 86 -405 0 rlineto
            return
          </CharString>
          <CharString index="148">
            92 307 hlineto
            179 -14 145 -293 101.150390625 0 -149.799804688 298.25 rlineto
            31.4501953125 6.400390625 92.69921875 17.5 0 187.599609375 rrcurveto
            168.400390625 -77 53.849609375 -100.25 vhcurveto
            -314.25 hlineto
            return
          </CharString>
          <CharString index="149">
            258.5 218.349609375 vlineto
            44 44 -15.7998046875 -117.950195312 -120.849609375 -41.25 -3.900390625 -46.75 hvcurveto
            return
          </CharString>
          <CharString index="150">
            -71.400390625 56.900390625 -42.599609375 57.099609375 57.400390625 58.599609375 39.2001953125 74.7998046875 vhcurveto
            -50 hlineto
            -39.900390625 -28 -24.099609375 -38 -32.849609375 -31.150390625 26.349609375 37.650390625 vhcurveto
            return
          </CharString>
          <CharString index="151">
            -147.899414062 -66.099609375 83.2998046875 -135.100585938 112.599609375 18.7001953125 rrcurveto
            64.5 vlineto
            -72.5498046875 0.7998046875 -14.0498046875 51.4501953125 82.099609375 65.75 rrcurveto
            return
          </CharString>
          <CharString index="152">
            282.650390625 hlineto
            189.099609375 69.25 183.5 179.5 158.549804688 -37.25 210.450195312 -221.099609375 hvcurveto
            -282.650390625 hlineto
            return
          </CharString>
          <CharString index="153">
            554.450195312 187.650390625 vlineto
            105.649414062 63.7001953125 -71.4501953125 -209.049804688 -152.049804688 -48.599609375 -121.900390625 -120.75 hvcurveto
            return
          </CharString>
          <CharString index="154">
            92 386.150390625 hlineto
            65.4501953125 40.44921875 41.2998046875 17.8505859375 74 0 29.30078125 0 32.849609375 -2.5498046875 12.599609375 -2.55078125 rrcurveto
            89.9501953125 vlineto
            -12.599609375 5.8505859375 -30 1.69921875 -27.349609375 0 -77.650390625 0 -53.5 -37.69921875 -54.400390625 -35.150390625 rrcurveto
            return
          </CharString>
          <CharString index="155">
            -141 53.80078125 -48 79.69921875 vhcurveto
            95.5 62 hlineto
            -7 -76 21 0 hvcurveto
            -32.19921875 8.599609375 -21.80078125 19.1005859375 0 84.2998046875 rrcurveto
            588 -92 vlineto
            return
          </CharString>
          <CharString index="156">
            -229.25 76 -41.75 99 vhcurveto
            83 1 76.3994140625 1.849609375 80.1005859375 27.5 rrcurveto
            64.7001953125 vlineto
            0 -131.150390625 -10.5498046875 -92 -72 -27.349609375 34.4501953125 148.349609375 180.150390625 38.1494140625 9.0498046875 61.2001953125 89 127.150390625 -6 0 vhcurveto
            63 vlineto
            -74.7998046875 17.2001953125 -105.700195312 10.2998046875 -52 0 rrcurveto
            -102 -73 -41.599609375 -228.400390625 hvcurveto
            return
          </CharString>
          <CharString index="157">
            28.349609375 23.5 23.5 28.3505859375 28.349609375 22.5 -23.5 -28.349609375 -28.349609375 -22.5 -22.5 -28.349609375 -28.3505859375 -23.5 22.5 28.349609375 vhcurveto
            return
          </CharString>
          <CharString index="158">
            95.3994140625 -259 hlineto
            -141 54.1005859375 -48.2998046875 77.44921875 vhcurveto
            97.30078125 62 hlineto
            -7 -76 21 0 hvcurveto
            -32.2001953125 8.599609375 -21.650390625 19.1005859375 0 84.599609375 rrcurveto
            return
          </CharString>
          <CharString index="159">
            -145.100585938 148 -72.5 hlineto
            return
          </CharString>
          <CharString index="160">
            -1.52587890625e-05 -163.099990845 33.8500061035 -114.900009155 153 0 45 0 70.8000030518 12.5500030518 57.6999969482 26.3000030518 rrcurveto
            -123.25 vlineto
            1.52587890625e-05 -64 -32 -31 -53 0 rrcurveto
            -249 -61 hlineto
            253.5 -24 rlineto
            85.450012207 -8.64999389648 87.0500030518 61.3499908447 0 127.300003052 rrcurveto
            604.949996948 vlineto
            -48.049987793 6.69998168945 -111.449996948 18.25 -106 0 rrcurveto
            -125 -61.8500061035 -96.3499908447 -171.150009155 hvcurveto
            return
          </CharString>
          <CharString index="161">
            -1.52587890625e-05 62.549987793 2.69999694824 120.899993896 99.6500091553 0 rrcurveto
            166 -354.5 hlineto
            -72.3499908447 -20.0999908447 -28.0500030518 -4 -65.8999938965 0 rrcurveto
            -104.699996948 2.64999389648 104.399993896 90.75 hvcurveto
            return
          </CharString>
          <CharString index="162">
            78 0 73.8000030518 68 67.6999969482 -68 77 0 -102.050003052 131.5 -80 0 rlineto
            return
          </CharString>
          <CharString index="163">
            21.8999938965 -44.8999938965 rlineto
            36.0999908447 15.5 15.3500061035 18.6499938965 43.25 0.850006103516 rrcurveto
            return
          </CharString>
          <CharString index="164">
            36.4499969482 0.850006103516 17.8500061035 -32.450012207 54.049987793 -2.54998779297 43.3500061035 -1.70001220703 39.8500061035 39.8500061035 31.3499908447 26.1999969482 rrcurveto
            -22.6000061035 46.8000030518 rlineto
            -30.5 -17.8999938965 -34.4000091553 -19.8500061035 -26.3999938965 1.14999389648 rrcurveto
            return
          </CharString>
          <CharString index="165">
            -29.8000030518 0.850006103516 -27.9499969482 31.6000061035 -49.1000061035 2.54998779297 rrcurveto
            -43.25 0 -37.75 -32.049987793 -37.75 -33.450012207 rrcurveto
            return
          </CharString>
          <CharString index="166">
            -14 10 -9 14 vhcurveto
            62 hlineto
            14 11 5 18 hvcurveto
            66 vlineto
            16 -7 9 -18 vhcurveto
            -62 hlineto
            -16 -8 -10 -15 hvcurveto
            return
          </CharString>
          <CharString index="167">
            264.399993896 -448 92.8500061035 521 hlineto
            return
          </CharString>
          <CharString index="168">
            93.25 -448 92 hlineto
            return
          </CharString>
          <CharString index="169">
            -94.9499969482 -17 rlineto
            return
          </CharString>
          <CharString index="170">
            34 -44.5 359.850006104 0 0 -177.5 92 0 0 177.5 rlineto
            return
          </CharString>
          <CharString index="171">
            85.5 20.5 0 72.5 -85.5 0 0 271.5 -57.3500061035 0 -34.6499938965 -75.4499969482 rlineto
            return
          </CharString>
          <CharString index="172">
            -1.52587890625e-05 -315 78.6999969482 -69.1499938965 110.950012207 -0.850006103516 rrcurveto
            147.350006104 hlineto
            97.299987793 68.1999969482 38.8000030518 114.699996948 hvcurveto
            125 vlineto
            -1.52587890625e-05 82.6499938965 -26.5 72.3500061035 -137.5 0 rrcurveto
            return
          </CharString>
          <CharString index="173">
            -98.1000061035 14.049987793 -107.550003052 7.64999389648 -100.850006104 -2.39999389648 rrcurveto
            -83.8999938965 -2.10000610352 -88.1000061035 -86.1499938965 0 -265 rrcurveto
            return
          </CharString>
          <CharString index="174">
            238.850006104 hlineto
            44.6500091553 35.8500061035 -13.6999969482 -58.3000030518 hvcurveto
            -109.25 vlineto
            1.52587890625e-05 -65.8999938965 -32.9499969482 -9.85000610352 -48.3000030518 0 rrcurveto
            -129.199996948 hlineto
            -103.25 -5.65000915527 161.199996948 95.8000030518 hvcurveto
            return
          </CharString>
          <CharString index="175">
            -44.4499969482 4.30000305176 -113.300003052 174.699996948 vhcurveto
            146.5 hlineto
            68.9499969482 97.0500030518 23.6999969482 134.949996948 hvcurveto
            94.6999969482 vlineto
            0.850006103516 43 -19.6000061035 79.1999969482 -56.25 10.4499969482 70.9499969482 14.1000061035 4.90000915527 79.1499938965 -0.850006103516 22.75 rrcurveto
            61.8500061035 vlineto
            123.75 -56.3500061035 49.3999938965 -108.649993896 vhcurveto
            -147.5 hlineto
            -103 -76 -38.1000061035 -134.899993896 hvcurveto
            -65 vlineto
            0 -54.1999969482 17.8500061035 -63.0500030518 65.5 -24.25 -42.4000091553 -12.3999938965 -40.9499969482 -25.700012207 0 -70.3999938965 rrcurveto
            return
          </CharString>
          <CharString index="176">
            95.25 vlineto
            56.75 39 19.1499938965 45.3999938965 vhcurveto
            143.25 hlineto
            43.25 36.6000061035 -23.5500030518 -52.3499908447 hvcurveto
            -95.25 vlineto
            -49.25 -39.5500030518 -23.1000061035 -43.1499938965 vhcurveto
            -131.050003052 hlineto
            -67.3000030518 -26.4499969482 25.4499969482 46.9000091553 hvcurveto
            return
          </CharString>
          <CharString index="177">
            62.3000030518 vlineto
            83.4000091553 34.8500061035 9.80000305176 58.8999938965 vhcurveto
            131.899993896 hlineto
            53.75 28.1000061035 -23.1000061035 -70.0999908447 hvcurveto
            -62.3000030518 vlineto
            -35.1000061035 -11.5 -42.8999938965 -68.6499938965 vhcurveto
            -142.949996948 hlineto
            -34 -50.3999938965 15.1999969482 62.8000030518 hvcurveto
            return
          </CharString>
          <CharString index="178">
            -1.52587890625e-05 -82.6499938965 26.5 -72.3500061035 137.5 0 rrcurveto
            return
          </CharString>
          <CharString index="179">
            103.250015259 5.64999389648 -161.199996948 -95.8000030518 hvcurveto
            return
          </CharString>
          <CharString index="180">
            -71.400390625 56.8994140625 -42.599609375 57.1005859375 57.3994140625 58.6005859375 39.2001953125 74.7998046875 vhcurveto
            -50 hlineto
            -39.900390625 -28 -24.099609375 -38 -32.8505859375 -31.1494140625 26.349609375 37.650390625 vhcurveto
            return
          </CharString>
          <CharString index="181">
            0 -211.099609375 31 -167.55078125 207 3.650390625 88.5 0.75 58.5 29.849609375 36.5 23.400390625 rrcurveto
            21.849609375 -49 68.150390625 0 0 393.5 rlineto
            -24 2 -23 1 -21 0 rrcurveto
            return
          </CharString>
          <CharString index="182">
            -78.75 0 -54.650390625 -12.0498046875 -40.75 -12.9501953125 rrcurveto
            -60.5 vlineto
            return
          </CharString>
          <CharString index="183">
            150.150390625 -181.25 hlineto
            0 0 -100.100585938 -46.849609375 -73.8994140625 0.849609375 -117.75 1.7001953125 -35.75 69.25 0 213.299804688 0 196.150390625 26.19921875 88.349609375 126.150390625 0 103.200195312 0 143.299804688 -13.5 6 0 rrcurveto
            72.5 vlineto
            -79.75 16.599609375 -113.700195312 11.900390625 -68.0498046875 0 rrcurveto
            -199 -36.349609375 -166.549804688 -203.450195312 hvcurveto
            return
          </CharString>
          <CharString index="184">
            0 -33.4501953125 12.900390625 -34.599609375 28 -18.7998046875 rrcurveto
            -41.7998046875 -60.5 0 -80.2001953125 rlineto
            -104.299804688 67.5 -49.7001953125 94 vhcurveto
            150 hlineto
            131 23.5 89.5 64.5 hvcurveto
            61.5 vlineto
            89.599609375 -50.390625 53.650390625 -86.259765625 vhcurveto
            -199.349609375 hlineto
            -22.1875 -18.6630859375 6.7998046875 25.25 25.25 24.8505859375 2.9501953125 16 hvcurveto
            147 hlineto
            return
          </CharString>
          <CharString index="185">
            144.099609375 25.400390625 126 64.5 hvcurveto
            0 70.4501953125 -17.4501953125 20.25 -10.5498046875 21.2998046875 rrcurveto
            75 18 0 63.5 rlineto
            return
          </CharString>
          <CharString index="186">
            -315 hlineto
            -110.450195312 -65.5498046875 -62 -127 hvcurveto
            0 -53 14.1494140625 -65.2998046875 44 -28 rrcurveto
            -41.599609375 -9.5 -18.150390625 -41.25 0 -35.400390625 rrcurveto
            return
          </CharString>
          <CharString index="187">
            122.25 vlineto
            0 16.3935546875 -6.80078125 27.8564453125 vhcurveto
            174.100585938 hlineto
            52.7197265625 -0.11328125 10.9296875 -20.986328125 0 -42.349609375 rrcurveto
            -52.75 vlineto
            -42.650390625 -14 -30.75 -56.599609375 vhcurveto
            -131.700195312 hlineto
            -35 -44.7001953125 6.7001953125 67.4501953125 hvcurveto
            return
          </CharString>
          <CharString index="188">
            50.7998046875 14.8994140625 53.7001953125 75.1005859375 vhcurveto
            80.099609375 hlineto
            return
          </CharString>
          <CharString index="189">
            70.900390625 0 16.44921875 -38.54296875 2.55078125 -65.95703125 1.69921875 -47.2998046875 -17.94921875 -63.2001953125 -72.650390625 0 rrcurveto
            -86.599609375 hlineto
            -69.5 -15 61.5 49 hvcurveto
            return
          </CharString>
          <CharString index="190">
            -163.100585938 33.849609375 -114.899414062 153 vhcurveto
            45 0 70.7998046875 12.5498046875 57.7001953125 26.2998046875 rrcurveto
            -123.25 vlineto
            -64 -32 -31 -53 vhcurveto
            -249 -61 hlineto
            253.5 -24 rlineto
            85.4501953125 -8.650390625 87.0498046875 61.3505859375 0 127.299804688 rrcurveto
            604.950195312 vlineto
            -48.0498046875 6.7001953125 -111.450195312 18.25 -106 0 rrcurveto
            -125 -61.849609375 -96.3505859375 -171.149414062 hvcurveto
            return
          </CharString>
          <CharString index="191">
            62.5498046875 2.7001953125 120.900390625 99.6494140625 vhcurveto
            166 -354.5 hlineto
            -72.349609375 -20.1005859375 -28.0498046875 -4 -65.900390625 0 rrcurveto
            -104.700195312 2.650390625 104.400390625 90.75 hvcurveto
            return
          </CharString>
          <CharString index="192">
            148 -72.5 vlineto
            return
          </CharString>
          <CharString index="193">
            -15.2998046875 9.900390625 -7.2001953125 12.599609375 vhcurveto
            return
          </CharString>
          <CharString index="194">
            89.099609375 vlineto
            13.5 -5.400390625 10.7998046875 -16.2001953125 vhcurveto
            -54 hlineto
            -14.3994140625 -8.1005859375 -8.099609375 -16.2001953125 hvcurveto
            return
          </CharString>
          <CharString index="195">
            9.900390625 -19.7998046875 hlineto
            0 -9.7646484375 -0.900390625 -17.685546875 -27 0.900390625 rrcurveto
            -32.8505859375 vlineto
            0 93.599609375 -20.1142578125 89.4150390625 hvcurveto
            return
          </CharString>
          <CharString index="196">
            89.099609375 vlineto
            13.5 -5.3994140625 10.7998046875 -16.2001953125 vhcurveto
            -54 hlineto
            -14.400390625 -8.099609375 -8.099609375 -16.2001953125 hvcurveto
            return
          </CharString>
          <CharString index="197">
            -15.2998046875 9.8994140625 -7.2001953125 12.6005859375 vhcurveto
            return
          </CharString>
          <CharString index="198">
            9.8994140625 -19.7998046875 hlineto
            0 -9.7646484375 -0.8994140625 -17.685546875 -27 0.900390625 rrcurveto
            -32.8505859375 vlineto
            0 93.599609375 -20.1142578125 89.4150390625 hvcurveto
            return
          </CharString>
          <CharString index="199">
            9.900390625 -19.7998046875 hlineto
            0 -9.7646484375 -0.900390625 -17.685546875 -27 0.900390625 rrcurveto
            -32.8505859375 vlineto
            0 93.6005859375 -20.1142578125 89.4150390625 hvcurveto
            return
          </CharString>
          <CharString index="200">
            -147.900390625 -66.099609375 83.30078125 -135.100585938 112.599609375 18.7001953125 rrcurveto
            64.5 vlineto
            -72.5498046875 0.7998046875 -14.0498046875 51.4501953125 82.099609375 65.75 rrcurveto
            return
          </CharString>
          <CharString index="201">
            36.4501953125 0.849609375 17.849609375 -32.44921875 54.05078125 -2.55078125 43.349609375 -1.69921875 39.849609375 39.849609375 31.3505859375 26.2001953125 rrcurveto
            -22.6005859375 46.7998046875 rlineto
            -30.5 -17.900390625 -34.3994140625 -19.849609375 -26.400390625 1.150390625 rrcurveto
            return
          </CharString>
          <CharString index="202">
            1.52587890625e-05 -85 30.5 -41.5 98 0 rrcurveto
            53.3999938965 hlineto
            100.999984741 29.5 41.5 85 hvcurveto
            69.6499938965 vlineto
            -1.52587890625e-05 85 -30.5 41.5 -98 0 rrcurveto
            -53.3999938965 hlineto
            -100.999984741 -29.5 -41.5 -85 hvcurveto
            return
          </CharString>
          <CharString index="203">
            60.6499938965 vlineto
            1.52587890625e-05 43.3500061035 7.64999389648 13.6499938965 52.6000061035 0 rrcurveto
            45.8999938965 hlineto
            43.6999816895 14.5500030518 -10.3999938965 -46.6000061035 hvcurveto
            -60.6499938965 vlineto
            -1.52587890625e-05 -41.5500030518 -5.84999084473 -15.4499969482 -54.4000091553 0 rrcurveto
            -45.8999938965 hlineto
            -44.8999938965 -13.3499908447 12.049987793 44.950012207 hvcurveto
            return
          </CharString>
          <CharString index="204">
            80 0 331.899993896 570 -79.1000061035 0 rlineto
            return
          </CharString>
          <CharString index="205">
            274 7 0 73 rlineto
            return
          </CharString>
          <CharString index="206">
            274.5 73.75 hlineto
            return
          </CharString>
          <CharString index="207">
            19.5 -44 69.5 0 0 313.25 rlineto
            -24 2 -22 1 -21 0 rrcurveto
            return
          </CharString>
          <CharString index="208">
            -81 0 -61 -12.5 -40 -11 rrcurveto
            -56.5 vlineto
            return
          </CharString>
          <CharString index="209">
            92 231.5 281 -231.5 92 571 -92 -250.5 -281 250.5 -92 hlineto
            return
          </CharString>
          <CharString index="210">
            92 570 -92 hlineto
            return
          </CharString>
          <CharString index="211">
            90.5 237 66.5 hlineto
            188.5 -237 111 0 -216.75 281 216.75 290 -111 0 -186.5 -248 -68.5 0 0 248 -90.5 0 rlineto
            return
          </CharString>
          <CharString index="212">
            -249 90.25 -36 161 168 84.25 47 245 256 -89.25 32 -163 -166 -85.25 -51 -244 vhcurveto
            return
          </CharString>
          <CharString index="213">
            203 69.950012207 -2 89.299987793 104.950012207 55.299987793 -1.39999389648 -197.600006104 -198.550003052 -70.8999938965 -4.44999694824 -89.3500061035 -111.199996948 -48.0500030518 18.8999938965 182.100006104 vhcurveto
            return
          </CharString>
          <CharString index="214">
            180 -481 92 481 180 89 -452 hlineto
            return
          </CharString>
          <CharString index="215">
            209 -378.5 0 -192.5 92 0 0 192.5 207 378.5 -100.5 0 -151.5 -281 -155.5 281 rlineto
            return
          </CharString>
          <CharString index="216">
            432 89 -306 hlineto
            306 392 0 89 -432 0 0 -89 311.5 0 -311.5 -392 rlineto
            return
          </CharString>
          <CharString index="217">
            99 0 58 142.25 219.700195312 0 54.2998046875 -142.25 99 0 -206.5 570 -99.5 0 rlineto
            return
          </CharString>
          <CharString index="218">
            84.5498046875 219.25 77.2998046875 -219.25 rlineto
            return
          </CharString>
          <CharString index="219">
            92 231.900390625 hlineto
            0.8505859375 -1.7001953125 117.899414062 -10.7998046875 25.5 -1.7001953125 rrcurveto
            118.55078125 -217.700195312 102 0 -129.400390625 227.599609375 rlineto
            75.9501953125 9.25 27.1494140625 76.8505859375 0 91.349609375 rrcurveto
            137 -91.7998046875 28.650390625 -68.5498046875 vhcurveto
            -270.150390625 hlineto
            return
          </CharString>
          <CharString index="220">
            185.350585938 174.55078125 vlineto
            10.599609375 61.349609375 0.099609375 -83.2998046875 -89 -38.75 -13.150390625 -33.19921875 hvcurveto
            return
          </CharString>
          <CharString index="221">
            89.099609375 vlineto
            13.5 -5.400390625 10.7998046875 -16.19921875 vhcurveto
            -54 hlineto
            -14.400390625 -8.099609375 -8.099609375 -16.2001953125 hvcurveto
            return
          </CharString>
          <CharString index="222">
            -62.349609375 38.099609375 -32.650390625 56.900390625 vhcurveto
            296 89 -255 hlineto
            -27.4501953125 0 -17.3994140625 0.7001953125 0.849609375 32.2998046875 rrcurveto
            448 -92 vlineto
            return
          </CharString>
          <CharString index="223">
            -1.52587890625e-05 -29.1999969482 24.0500030518 -24.0500030518 29.1999969482 0 rrcurveto
            29.1999969482 23.0500030518 24.0500030518 29.1999969482 29.200012207 -23.0500030518 23.8999938965 -29.1999969482 -29.1999969482 -24.0500030518 -23.8999938965 -29.200012207 hvcurveto
            return
          </CharString>
          <CharString index="224">
            -96 42.349609375 -40.25 98.650390625 vhcurveto
            159.5 hlineto
            39.7998046875 11.7001953125 -17.4501953125 -32.2998046875 hvcurveto
            -61.599609375 vlineto
            0 -12.900390625 -48.900390625 -38.599609375 -97.2001953125 -181.299804688 3.599609375 0 vhcurveto
            -67 vlineto
            37.75 -14.3994140625 202.849609375 -8.2001953125 48.400390625 0 rrcurveto
            60.5498046875 72.4501953125 22.2998046875 111.700195312 hvcurveto
            64 vlineto
            77.25 -39.8505859375 58.5 -93.1494140625 vhcurveto
            -161 hlineto
            -34.30078125 -23.69921875 -1.349609375 53.099609375 hvcurveto
            51.9501953125 vlineto
            31 11.3994140625 29.5498046875 46.6005859375 100.399414062 166.600585938 -4.75 0 vhcurveto
            69 vlineto
            -70.30078125 10.9501953125 -152.19921875 9.7998046875 -52 0 rrcurveto
            -107.950195312 -34.5498046875 -61.75 -83.0498046875 hvcurveto
            return
          </CharString>
          <CharString index="225">
            0 -57.25 36.25 -33.4501953125 53.75 -0.2998046875 rrcurveto
            return
          </CharString>
          <CharString index="226">
            0 0 291.400390625 10.7001953125 17.099609375 3.8994140625 rrcurveto
            72.900390625 vlineto
            return
          </CharString>
          <CharString index="227">
            -270.5 hlineto
            -21 -15 3 29 hvcurveto
            0 123.349609375 rlineto
            return
          </CharString>
          <CharString index="228">
            -274 8 0 122.650390625 rlineto
            24 2 9 30 vhcurveto
            return
          </CharString>
          <CharString index="229">
            -13.9501953125 2.5498046875 -274.549804688 10.2001953125 0 0 -66.25 -0.2998046875 -43.75 -31.8505859375 0 -63.849609375 rrcurveto
            return
          </CharString>
          <CharString index="230">
            -1.52587890625e-05 -57 45.1500091553 -45.8500061035 56 0 rrcurveto
            56 45 45.8500061035 57 57 -45 46 -56 -56 -45.1500091553 -46 -57 hvcurveto
            return
          </CharString>
          <CharString index="231">
            28.3500061035 22.6499938965 22.6499938965 28.3500061035 28.3499908447 22.5 -22.6499938965 -28.3500061035 -28.3500061035 -22.5 -22.5 -28.3499908447 -28.3500061035 -22.6499938965 22.5 28.3500061035 vhcurveto
            return
          </CharString>
          <CharString index="232">
            -143.700195312 23.44921875 -155.299804688 185.05078125 vhcurveto
            82.849609375 0 83.0498046875 13.4501953125 60.1005859375 14.8994140625 rrcurveto
            67.5 vlineto
            0 0 -142.350585938 -9.6494140625 -74.6494140625 -1.7001953125 -115 2 -10.5 104.150390625 0 108.349609375 0 123.5 23.5 75 102 0 65 0 137 -8.5 15 -3 rrcurveto
            69.5 vlineto
            -54.4501953125 15 -119.700195312 11.5 -51.849609375 0 rrcurveto
            -172.100585938 -36.3994140625 -132.150390625 -150.849609375 hvcurveto
            return
          </CharString>
          <CharString index="233">
            -29.19921875 24.0498046875 -24.05078125 29.2001953125 29.19921875 23.05078125 24.05078125 29.19921875 29.2001953125 -23.05078125 23.0498046875 -29.19921875 -29.2001953125 -24.0498046875 -23.0498046875 -29.2001953125 vhcurveto
            return
          </CharString>
          <CharString index="234">
            65.1999969482 -261.5 241.100006104 hlineto
            52.3499908447 161.550003052 -1.5 284.5 hvcurveto
            0 127.949996948 -40.1000061035 159.900009155 -169.550003052 0.299987792969 -21.25 0 -213.899993896 1.70001220703 -10.1999969482 -0.850006103516 rrcurveto
            -253.5 -65.1999969482 vlineto
            return
          </CharString>
          <CharString index="235">
            173.149993896 93.8999938965 57 -93.8999938965 162.600006104 133.850006104 vlineto
            76.799987793 51 -53.1000061035 -145 -107.050003052 -25.9499969482 -87.5999908447 -106.949996948 hvcurveto
            return
          </CharString>
          <CharString index="236">
            92 406.049804688 hlineto
            292 -406.049804688 88 0 0 571 -91 0 0 -401.900390625 -292 401.900390625 -89 0 rlineto
            return
          </CharString>
          <CharString index="237">
            203 69.94921875 -2 89.30078125 104.94921875 55.30078125 -1.400390625 -197.599609375 -198.549804688 -70.900390625 -4.4501953125 -89.349609375 -111.200195312 -48.0498046875 18.900390625 182.099609375 vhcurveto
            return
          </CharString>
          <CharString index="238">
            -1 -239 107 -26 136 0 rrcurveto
            121 116 32 233 hvcurveto
            310 -93 -310 vlineto
            -149.099609375 -53.849609375 -26.900390625 -90.150390625 vhcurveto
            -104.849609375 0 -45 26.2998046875 0.849609375 149.700195312 rrcurveto
            310 -93 vlineto
            return
          </CharString>
          <CharString index="239">
            -20.3999938965 13.5500030518 -8.84999084473 15.6999969482 vhcurveto
            return
          </CharString>
          <CharString index="240">
            116.649993896 vlineto
            -1.52587890625e-05 18.3999938965 -6.84999084473 13.700012207 -21.4000091553 0 rrcurveto
            -70.1999969482 hlineto
            -19.3999938965 -9.85000610352 -10.700012207 -21.3999938965 hvcurveto
            return
          </CharString>
          <CharString index="241">
            -1.52587890625e-05 -20.3999938965 12.8500061035 -8.84999084473 15.6999969482 0 rrcurveto
            return
          </CharString>
          <CharString index="242">
            116.649993896 vlineto
            18.3999938965 -7.69999694824 13.700012207 -21.3999938965 vhcurveto
            -70.0500030518 hlineto
            -19.3999938965 -9.15000915527 -10.700012207 -21.3999938965 hvcurveto
            return
          </CharString>
          <CharString index="243">
            -20.3999938965 14.25 -8.84999084473 15.6999969482 vhcurveto
            return
          </CharString>
          <CharString index="244">
            116.649993896 vlineto
            -1.52587890625e-05 18.3999938965 -6.84999084473 13.700012207 -21.4000091553 0 rrcurveto
            -69.5 hlineto
            -19.4000091553 -10.5500030518 -10.700012207 -21.3999938965 hvcurveto
            return
          </CharString>
          <CharString index="245">
            -71.3994140625 56.900390625 -42.6005859375 57.099609375 57.400390625 58.599609375 39.2001953125 74.7998046875 vhcurveto
            -50 hlineto
            -39.8994140625 -28 -24.1005859375 -38 -32.849609375 -31.150390625 26.3505859375 37.6494140625 vhcurveto
            return
          </CharString>
          <CharString index="246">
            0 -50 3 -243.849609375 205.5 0.849609375 62.849609375 0 63.9501953125 16.7001953125 48.2001953125 34.2998046875 rrcurveto
            return
          </CharString>
          <CharString index="247">
            157 -104.75 hlineto
            -18.7001953125 -18.650390625 -69.2998046875 -31.849609375 -73.5 0 -110.25 0.150390625 -16.75 133.299804688 0 73.5498046875 0 171.5 35.44921875 35 97.55078125 0 88.2998046875 0 78.849609375 -6.099609375 66.3505859375 -6.900390625 rrcurveto
            72.5 vlineto
            -59.3505859375 13.25 -137.75 12.650390625 -51.3994140625 -0.900390625 rrcurveto
            -168.700195312 -1.349609375 -41.2998046875 -107.650390625 0 -184 rrcurveto
            return
          </CharString>
          <CharString index="248">
            249.5 -732 98 0 111.700195312 353.75 126.5 -353.75 98 0 221.5 732 -99.4501953125 0 -172.599609375 -591.75 -128.350585938 370.049804688 63.3505859375 221.700195312 -102 0 -167.5 -586.650390625 -199.200195312 586.650390625 rlineto
            return
          </CharString>
          <CharString index="249">
            191.049804688 -531 101.599609375 0 79.650390625 241.549804688 107.5 -241.549804688 96.5 0 194.450195312 531 -99.900390625 0 -146.400390625 -407 -108.349609375 244.349609375 49.349609375 162.650390625 -96.19921875 0 -126.30078125 -407 -143.19921875 407 rlineto
            return
          </CharString>
          <CharString index="250">
            205.049804688 -570 102.900390625 0 85.8994140625 249.450195312 96.9501953125 -249.450195312 99.5 0 195.200195312 570 -93.900390625 0 -150.349609375 -443.450195312 -103.099609375 258.75 61.599609375 184.700195312 -98.150390625 0 -146.94921875 -443.450195312 -155.650390625 443.450195312 rlineto
            return
          </CharString>
          <CharString index="251">
            -29.19921875 24.05078125 -24.05078125 29.19921875 29.2001953125 23.0498046875 24.05078125 29.19921875 29.2001953125 -23.0498046875 23.0498046875 -29.2001953125 -29.19921875 -24.05078125 -23.0498046875 -29.2001953125 vhcurveto
            return
          </CharString>
          <CharString index="252">
            -29.7998046875 0.849609375 -27.9501953125 31.6005859375 -49.099609375 2.5498046875 rrcurveto
            -43.25 0 -37.75 -32.0498046875 -37.75 -33.4501953125 rrcurveto
            return
          </CharString>
          <CharString index="253">
            93 632.549804688 hlineto
            0 17 18.75 5.150390625 6.25 -15.150390625 rrcurveto
            241.049804688 -574.950195312 rlineto
            37.4501953125 -113.799804688 162.25 34.5 0 106.600585938 rrcurveto
            640.099609375 -92 -631.150390625 vlineto
            0 -15 -16.900390625 -6.2998046875 -7.099609375 18.2998046875 rrcurveto
            -238.5 569.100585938 rlineto
            -36.2998046875 103.25 -167.950195312 -9.900390625 0 -120.75 rrcurveto
            return
          </CharString>
          <CharString index="254">
            92 418.5 hlineto
            78.05078125 31.7998046875 35.25 3.7001953125 63.94921875 0 rrcurveto
            48.30078125 33.44921875 -27.900390625 -62.099609375 hvcurveto
            -364 92 370 vlineto
            89.2001953125 -59.5 80.7998046875 -106 vhcurveto
            -116.69921875 0 -52.9501953125 -12.400390625 -107.850585938 -47.599609375 rrcurveto
            return
          </CharString>
          <CharString index="255">
            92 420 hlineto
            89.400390625 34 73.849609375 5.099609375 94.400390625 -9.599609375 rrcurveto
            88.5 vlineto
            -163 14 -75.4501953125 -19.349609375 -111.200195312 -51.150390625 rrcurveto
            return
          </CharString>
          <CharString index="256">
            -113 75.099609375 -21 67.900390625 vhcurveto
            144 hlineto
            106 49 51.849609375 107.150390625 hvcurveto
            103 vlineto
            0 200.799804688 -34.0498046875 73.3505859375 -144.950195312 0.849609375 -102.450195312 0.849609375 -70 -16.3994140625 -79.5498046875 -15.7998046875 rrcurveto
            -64.25 vlineto
            95.0498046875 5.8994140625 71.2998046875 6.1005859375 67.650390625 0 78.7998046875 0.849609375 26.2001953125 -19 0 -116.75 rrcurveto
            -207 hlineto
            -107.100585938 -35.8994140625 -49.5 -77 hvcurveto
            return
          </CharString>
          <CharString index="257">
            55 vlineto
            0 31.7998046875 16.599609375 12.8505859375 41.900390625 2.849609375 rrcurveto
            199.5 14.2001953125 0 -95.900390625 rlineto
            -43.8994140625 -6.3505859375 -30.900390625 -67.44921875 vhcurveto
            -125.55078125 hlineto
            -52.6494140625 -6 23 31 hvcurveto
            return
          </CharString>
          <CharString index="258">
            -89.2001953125 57.099609375 -80.7998046875 111.400390625 vhcurveto
            116.700195312 0 71.69921875 3.25 86.1005859375 31.25 rrcurveto
            505.5 -92 -439.75 vlineto
            -42.3505859375 -9.7001953125 -70.94921875 -4.5498046875 -63.9501953125 0 rrcurveto
            -48.2998046875 -33.4501953125 27.8994140625 62.1005859375 hvcurveto
            364 -92 vlineto
            return
          </CharString>
          <CharString index="259">
            -1.52587890625e-05 -172.800003052 61.8500061035 -96.1999969482 125 0 104.050003052 0 113.099990845 15.5500030518 48.3500061035 9.39999389648 rrcurveto
            771 -92 -287.949996948 vlineto
            -57.6999816895 26.4499969482 -70.8000030518 12.5500030518 -45 0 rrcurveto
            -153 -33.8500061035 -114.899993896 -163.100006104 hvcurveto
            return
          </CharString>
          <CharString index="260">
            -1.52587890625e-05 90.7499847412 -2.64999389648 104.400009155 104.699996948 0 65.8999938965 0 28.0500030518 -4 72.3500061035 -20.1000061035 rrcurveto
            -356 -166 vlineto
            -99.6499938965 -2.69999694824 122.399993896 62.5500030518 hvcurveto
            return
          </CharString>
          <CharString index="261">
            -142.5 55 -46.8000030518 76.549987793 vhcurveto
            97.3000030518 62 hlineto
            -7.00001525879 -1.52587890625e-05 -76 21 0 0 -32.1999969482 8.60000610352 -21.6499938965 19.0999908447 0 84.6000061035 rrcurveto
            253 144.5 83 -144.5 148 -92 vlineto
            return
          </CharString>
        <CharString name=".notdef">
          172 0 13 505 13 hstem
          93.3999938965 14 530 14 vstem
          637.399993896 506 rmoveto
          0 -481 -252 241 rlineto
          -265 -253 rmoveto
          254 243 253 -243 rlineto
          -520 9 rmoveto
          0 485 256 -241 rlineto
          265 252 rmoveto
          -254 -242 -257 242 rlineto
          -24 -518 rmoveto
          558 531 -558 hlineto
          endchar
        </CharString>
        <CharString name="A">
          104 21 -21 21 -21 192.600006104 87.6499938965 451.75 -20 hstemhm
          hintmask 10110000
          42 hmoveto
          107.199996948 0 62.3999938965 192.600006104 277.75 0 60 -192.600006104 104.649993896 0 -251.75 732 -97.25 0 rlineto
          -63.8500061035 -451.75 rmoveto
          -73 callsubr
          endchar
        </CharString>
        <CharString name="AE">
          358 21 -21 21 -21 12.3000030518 76.1499938965 129.550003052 87.5 5.60000610352 94.3000030518 -84.450012207 74.3000030518 246.149993896 90.6000061035 -90.6000061035 74.6000061035 hstemhm
          436.649993896 92 hintmask 1001000010000000
          28.0500030518 hmoveto
          101.100006104 0 106.949996948 218 200.550003052 0 0 -97 rlineto
          0 -113 78.4000091553 -16.6999969482 66.5999908447 4 rrcurveto
          hintmask 0011100010000000
          0 0 290.050003052 14.8999938965 15.4499969482 2.10000610352 rrcurveto
          0 76.1499938965 -296.5 0.850006103516 rlineto
          -29 1.52587890625e-05 -33 -5.25 0 53 rrcurveto
          0 174.050003052 rlineto
          hintmask 0001010010000000
          317.850006104 9.85000610352 0 74.3000030518 rlineto
          hintmask 0001101010000000
          -317.850006104 10.1499938965 0 182.550003052 rlineto
          1.70001220703 26.9999847412 0 26.4499969482 48.5999908447 0 rrcurveto
          hintmask 0001000110000000
          309.050003052 74.6000061035 hlineto
          hintmask 1001001010000000
          -17.5500030518 2.39999389648 -300.5 13.6000061035 0 0 -91.3999938965 1.05000305176 -83.1999969482 10.3000030518 -73.3500061035 -147.150009155 rrcurveto
          -42.75 -290.699996948 rmoveto
          157.399993896 321 0 -321 rlineto
          endchar
        </CharString>
        <CharString name="Aacute">
          104 0 21 171.600006104 87.6499938965 431.75 20 65 134.5 hstem
          316.125 205 vstem
          316.125 797 rmoveto
          -49 callsubr
          -376.625 -931.5 rmoveto
          -38 callsubr
          -63.849609375 -451.75 rmoveto
          -73 callsubr
          endchar
        </CharString>
        <CharString name="Abreve">
          104 0 21 171.600006104 87.6499938965 431.75 20 65 50 hstem
          238.625 50 130 50 vstem
          238.625 911 rmoveto
          43 callsubr
          -246.625 -911 rmoveto
          -38 callsubr
          -63.849609375 -451.75 rmoveto
          -73 callsubr
          endchar
        </CharString>
        <CharString name="Acircumflex">
          104 0 21 171.600006104 87.6499938965 431.75 20 65 131.5 hstem
          205.375 296.5 vstem
          205.375 797 rmoveto
          -37 callsubr
          0 vmoveto
          80 hmoveto
          -357.825195312 -928.5 rmoveto
          -38 callsubr
          -63.849609375 -451.75 rmoveto
          -73 callsubr
          endchar
        </CharString>
        <CharString name="Adieresis">
          104 0 21 171.600006104 87.6499938965 431.75 20 65 105.5 hstem
          173.375 105.5 149.5 105.5 vstem
          173.375 850.25 rmoveto
          -33 callsubr
          255 hmoveto
          -33 callsubr
          -386.375 -850.25 rmoveto
          -38 callsubr
          -63.849609375 -451.75 rmoveto
          -73 callsubr
          endchar
        </CharString>
        <CharString name="Agrave">
          104 0 21 171.600006104 87.6499938965 431.75 20 65 134.5 hstem
          186.125 205 vstem
          186.125 931.5 rmoveto
          -64 callsubr
          -246.625 -931.5 rmoveto
          -38 callsubr
          -63.849609375 -451.75 rmoveto
          -73 callsubr
          endchar
        </CharString>
        <CharString name="Amacron">
          104 0 21 171.600006104 87.6499938965 431.75 20 65 67.5 hstem
          207.625 292 vstem
          207.625 797 rmoveto
          -51 callsubr
          -165.625 -864.5 rmoveto
          -38 callsubr
          -63.849609375 -451.75 rmoveto
          -73 callsubr
          endchar
        </CharString>
        <CharString name="Aogonek">
          104 -182.269897461 64.5 98 20 -0.230102539062 21 171.600006104 87.6499938965 431.75 20 hstemhm
          hintmask 11000000
          582.932617188 0.23046875 rmoveto
          -147.899414062 -66.1005859375 83.2998046875 -135.099609375 112.599609375 18.7001953125 rrcurveto
          64.5 vlineto
          -72.5498046875 0.7998046875 -14.0498046875 51.4501953125 82.099609375 65.75 rrcurveto
          hintmask 00111000
          -584.432617188 -0.23046875 rmoveto
          -38 callsubr
          -63.849609375 -451.75 rmoveto
          -73 callsubr
          endchar
        </CharString>
        <CharString name="Aring">
          104 0 21 171.600006104 87.6499938965 431.75 20 -1.83299255371 51.1499938965 102.699996948 51.1499938965 hstemhm
          252.125 50.1499938965 102.700012207 50.1499938965 hintmask 00011110
          252.125 832.166992188 rmoveto
          -32 callsubr
          50.150390625 hmoveto
          -31 callsubr
          hintmask 11100000
          -260.275390625 -832.166992188 rmoveto
          -38 callsubr
          -63.849609375 -451.75 rmoveto
          -73 callsubr
          endchar
        </CharString>
        <CharString name="Atilde">
          104 0 21 171.600006104 87.6499938965 431.75 20 65.8500061035 74.5500030518 -40.4000091553 75.3999938965 hstemhm
          hintmask 00001000
          183.875 841.900390625 rmoveto
          -36 callsubr
          hintmask 00010000
          -35 callsubr
          hintmask 00001000
          -34 callsubr
          hintmask 11100000
          -141.875 -841.900390625 rmoveto
          -38 callsubr
          -63.849609375 -451.75 rmoveto
          -73 callsubr
          endchar
        </CharString>
        <CharString name="B">
          26 0 87.5 252.5 86 218.5 87.5 hstem
          74.75 92.8500061035 303.149993896 92 vstem
          74.75 hmoveto
          288.149993896 hlineto
          154 45.8500061035 95.6999969482 111.300003052 hvcurveto
          0 108.300003052 -51.6999969482 54.3999938965 -48.6500091553 10.3000030518 71.1500091553 19.6000061035 23.0999908447 68.6999969482 0 72.1999969482 rrcurveto
          88.3000030518 -47 103.199996948 -147.5 vhcurveto
          -287.399993896 hlineto
          92.8500061035 -644.5 rmoveto
          252.5 193.800003052 vlineto
          77.25 32.1000061035 -61.3500061035 -68.4499969482 -107.75 -62.8500061035 -14.9499969482 -46.5 hvcurveto
          -193.799987793 338.5 rmoveto
          218.5 192.300003052 vlineto
          47.5 57.8500061035 -18.1000061035 -89.049987793 -73.9000091553 -37.1000061035 -37.4499969482 -68.25 hvcurveto
          endchar
        </CharString>
        <CharString name="C">
          4 -6 89 568 89 hstem
          51.3999938965 92 vstem
          51.3999938965 368 rmoveto
          0 -219.649993896 60.3500061035 -153.900009155 185 -0.449996948242 66.3999938965 -0.449996948242 111.800003052 9 68.8000030518 14.9499969482 rrcurveto
          72.8000030518 vlineto
          1.52587890625e-05 -132.850006104 -7.30000305176 -105 -128.199996948 -34.3000030518 119 164 237.149993896 43.5 47.8500061035 118.850006104 vhcurveto
          93.6499938965 0 143.350006104 -11.0500030518 1 0 rrcurveto
          72.8000030518 vlineto
          -72.3999938965 15.8500061035 -108.800003052 11.3999938965 -65.8000030518 0 -199 0 -46.3500061035 -138 0 -234 rrcurveto
          endchar
        </CharString>
        <CharString name="Cacute">
          4 -6 89 568 89 60 134.5 hstem
          51.3999938965 92 148.850006104 205 vstem
          292.25 800 rmoveto
          -49 callsubr
          -343.349609375 -566.5 rmoveto
          -29 callsubr
          endchar
        </CharString>
        <CharString name="Ccaron">
          4 -6 89 568 89 60 131.5 hstem
          51.3999938965 92 43.5500030518 296.5 vstem
          186.950195312 931.5 rmoveto
          30 callsubr
          35.25 -131.5 rmoveto
          80 hmoveto
          -328.649414062 -432 rmoveto
          -29 callsubr
          endchar
        </CharString>
        <CharString name="Ccedilla">
          4 -173.649993896 43.3000030518 124.349990845 89 568 89 hstem
          51.3999938965 92 128.100006104 74.5 vstem
          189.5 -130.349609375 rmoveto
          -30 callsubr
          -188.69921875 483.349609375 rmoveto
          -29 callsubr
          endchar
        </CharString>
        <CharString name="Ccircumflex">
          4 -6 89 568 89 60 131.5 hstem
          51.3999938965 92 37.8000030518 296.5 vstem
          181.200195312 800 rmoveto
          -37 callsubr
          0 vmoveto
          80 hmoveto
          -324.25 -563.5 rmoveto
          -29 callsubr
          endchar
        </CharString>
        <CharString name="Cdotaccent">
          4 -6 89 568 89 61.6999969482 108 hstem
          51.3999938965 92 141.5 103 vstem
          284.900390625 824.700195312 rmoveto
          31 callsubr
          -233.5 -516.700195312 rmoveto
          -29 callsubr
          endchar
        </CharString>
        <CharString name="D">
          86 0 90.0500030518 554.449996948 87.5 hstem
          74.75 92 357 92 vstem
          74.75 hmoveto
          282.649993896 hlineto
          189.100006104 69.25 183.5 179.5 158.550003052 -37.25 210.449996948 -221.100006104 hvcurveto
          -282.649993896 hlineto
          92 -641.949996948 rmoveto
          554.449996948 187.649993896 vlineto
          105.650009155 63.6999969482 -71.4499969482 -209.050003052 -152.050003052 -48.6000061035 -121.899993896 -120.75 hvcurveto
          endchar
        </CharString>
        <CharString name="Dcaron">
          86 0 90.0500030518 554.449996948 87.5 60.75 131.5 hstem
          74.75 92 3 296.5 57.5 92 vstem
          169.75 924.25 rmoveto
          30 callsubr
          35.25 -131.5 rmoveto
          80 hmoveto
          -288.099609375 -792.75 rmoveto
          45 callsubr
          92 -641.950195312 rmoveto
          46 callsubr
          endchar
        </CharString>
        <CharString name="Dcroat">
          86 0 90.0500030518 254.449996948 57 237.899993896 92.6000061035 hstem
          74.75 92 354.449996948 94.5500030518 vstem
          9.75 344.5 rmoveto
          65 -344.5 283.5 hlineto
          189.099609375 68.400390625 183.5 179.5 158.549804688 -36.400390625 210.450195312 -221.099609375 -51 -232.5 0 -0.849609375 hvcurveto
          -329.650390625 -65 vlineto
          157 -311.450195312 rmoveto
          254.450195312 131.5 57 -131.5 237.900390625 vlineto
          188.5 0.849609375 rlineto
          98.849609375 67.1005859375 -70.599609375 -205.650390625 -152.049804688 -45.2001953125 -121.900390625 -120.75 hvcurveto
          endchar
        </CharString>
        <CharString name="E">
          -5 14 72.75 228.600006104 94.3000030518 -84.450012207 74.3000030518 242.75 89.75 -89.75 73.75 hstemhm
          74 92 hintmask 11000100
          74 128.699996948 rmoveto
          0 -119.000015259 79.1950073242 -16.3999938965 65.8049926758 3.69999694824 0 0 292.199996948 14.8999938965 15.4499969482 2.10000610352 rrcurveto
          72.75 -298.649993896 vlineto
          -29 0 -32.1499938965 -1 -0.850006103516 53 rrcurveto
          0 176.600006104 rlineto
          hintmask 10100100
          -72 callsubr
          hintmask 11010100
          -71 callsubr
          hintmask 10001100
          -70 callsubr
          hintmask 11010100
          -17.549987793 2.39999389648 -300.100006104 13.6000061035 0 0 -67.5549926758 2.55000305176 -67.4450073242 -32.6340026855 0 -105.916000366 rrcurveto
          endchar
        </CharString>
        <CharString name="Eacute">
          -5 14 72.75 228.600006104 94.3000030518 -84.450012207 74.3000030518 242.75 73.75 -73.75 89.75 60.75 134.5 hstemhm
          74 92 117.850006104 205 hintmask 00000101
          283.849609375 792.75 rmoveto
          -49 callsubr
          hintmask 11000010
          -312.349609375 -798.549804688 rmoveto
          -28 callsubr
          hintmask 10100010
          -27 callsubr
          hintmask 11001010
          -26 callsubr
          hintmask 10010010
          -25 callsubr
          hintmask 11001010
          -24 callsubr
          endchar
        </CharString>
        <CharString name="Ecaron">
          -5 14 72.75 228.600006104 94.3000030518 -84.450012207 74.3000030518 242.75 73.75 -73.75 89.75 60.75 131.5 hstemhm
          74 92 1.94999694824 296.5 hintmask 00000101
          167.950195312 924.25 rmoveto
          30 callsubr
          35.25 -131.5 rmoveto
          80 hmoveto
          hintmask 11000010
          -287.049804688 -664.049804688 rmoveto
          -28 callsubr
          hintmask 10100010
          -27 callsubr
          hintmask 11001010
          -26 callsubr
          hintmask 10010010
          -25 callsubr
          hintmask 11001010
          -24 callsubr
          endchar
        </CharString>
        <CharString name="Ecircumflex">
          -5 14 72.75 228.600006104 94.3000030518 -84.450012207 74.3000030518 242.75 73.75 -73.75 89.75 65 131.5 hstemhm
          74 92 2.19999694824 296.5 hintmask 00000101
          168.200195312 797 rmoveto
          -37 callsubr
          0 vmoveto
          80 hmoveto
          hintmask 11000010
          -288.650390625 -799.799804688 rmoveto
          -28 callsubr
          hintmask 10100010
          -27 callsubr
          hintmask 11001010
          -26 callsubr
          hintmask 10010010
          -25 callsubr
          hintmask 11001010
          -24 callsubr
          endchar
        </CharString>
        <CharString name="Edieresis">
          -5 14 72.75 228.600006104 94.3000030518 -84.450012207 74.3000030518 242.75 73.75 -73.75 89.75 60.75 105.5 hstemhm
          74 92 -30.4499969482 105.5 149.5 105.5 hintmask 0000010110000000
          135.549804688 846 rmoveto
          -33 callsubr
          255 hmoveto
          -33 callsubr
          hintmask 1100001000000000
          -316.549804688 -717.299804688 rmoveto
          -28 callsubr
          hintmask 1010001000000000
          -27 callsubr
          hintmask 1100101000000000
          -26 callsubr
          hintmask 1001001000000000
          -25 callsubr
          hintmask 1100101000000000
          -24 callsubr
          endchar
        </CharString>
        <CharString name="Edotaccent">
          -5 14 72.75 228.600006104 94.3000030518 -84.450012207 74.3000030518 242.75 73.75 -73.75 89.75 62.4499969482 108 hstemhm
          74 92 104.199996948 103 hintmask 00000101
          270.200195312 817.450195312 rmoveto
          31 callsubr
          hintmask 11000010
          -196.200195312 -748.75 rmoveto
          -28 callsubr
          hintmask 10100010
          -27 callsubr
          hintmask 11001010
          -26 callsubr
          hintmask 10010010
          -25 callsubr
          hintmask 11001010
          -24 callsubr
          endchar
        </CharString>
        <CharString name="Egrave">
          -5 14 72.75 228.600006104 94.3000030518 -84.450012207 74.3000030518 242.75 73.75 -73.75 89.75 60.8999938965 134.5 hstemhm
          74 92 6.85000610352 205 hintmask 00000101
          172.849609375 927.400390625 rmoveto
          -64 callsubr
          hintmask 11000010
          -201.349609375 -798.700195312 rmoveto
          -28 callsubr
          hintmask 10100010
          -27 callsubr
          hintmask 11001010
          -26 callsubr
          hintmask 10010010
          -25 callsubr
          hintmask 11001010
          -24 callsubr
          endchar
        </CharString>
        <CharString name="Emacron">
          -5 14 72.75 228.600006104 94.3000030518 -84.450012207 74.3000030518 242.75 73.75 -73.75 89.75 63.3000030518 67.5 hstemhm
          74 92 5.05000305176 292 hintmask 00000101
          171.049804688 795.299804688 rmoveto
          -51 callsubr
          hintmask 11000010
          -97.0498046875 -734.099609375 rmoveto
          -28 callsubr
          hintmask 10100010
          -27 callsubr
          hintmask 11001010
          -26 callsubr
          hintmask 10010010
          -25 callsubr
          hintmask 11001010
          -24 callsubr
          endchar
        </CharString>
        <CharString name="Eng">
          105 -257 69 209 -21 21 -21 732 -20 hstemhm
          74.75 92.1499938965 363 92 hintmask 11011100
          74.75 hmoveto
          92.1499938965 0 1.69999694824 559.5 rlineto
          hintmask 10111100
          361.300003052 -559.5 0 -68.5 rlineto
          0 -110.699996948 -75.549987793 4.94999694824 -56.950012207 -13.75 rrcurveto
          -69 vlineto
          118.300003052 -1.94999694824 106.199996948 19.8000030518 0 158.149993896 rrcurveto
          0 81 0 732 -92 0 0 -552.5 -361.149993896 552.5 -94 0 rlineto
          endchar
        </CharString>
        <CharString name="Eogonek">
          -5 -168.593597412 64.5 98 20 0.0935974121094 72.75 228.600006104 94.3000030518 -84.450012207 74.3000030518 242.75 73.75 -73.75 89.75 hstemhm
          74 92 hintmask 11000000
          483.0078125 13.90625 rmoveto
          44 callsubr
          hintmask 00110001
          -452.5078125 114.793945312 rmoveto
          -28 callsubr
          hintmask 00101001
          -27 callsubr
          hintmask 00110011
          -26 callsubr
          hintmask 00100101
          -25 callsubr
          hintmask 00110011
          -24 callsubr
          endchar
        </CharString>
        <CharString name="Eth">
          86 0 90.0500030518 254.449996948 57 237.899993896 92.6000061035 hstem
          74.75 92 354.449996948 94.5500030518 vstem
          9.75 344.5 rmoveto
          65 -344.5 283.5 hlineto
          189.100006104 68.3999938965 183.5 179.5 158.550003052 -36.3999938965 210.449996948 -221.100006104 -51 -232.5 0 -0.850006103516 hvcurveto
          -329.649993896 -65 vlineto
          157 -311.449996948 rmoveto
          254.449996948 131.5 57 -131.5 237.899993896 vlineto
          188.5 0.850006103516 rlineto
          98.8500061035 67.0999908447 -70.6000061035 -205.649993896 -152.050003052 -45.1999969482 -121.899993896 -120.75 hvcurveto
          endchar
        </CharString>
        <CharString name="Euro">
          40 -6 86 166.5 67 -60 53 99 66 -58 49 190 87.5 hstemhm
          103.649993896 92 hintmask 10100110
          18.6499938965 253.5 rmoveto
          hintmask 11000110
          85 -7 rlineto
          -226 160 -26.5 77 vhcurveto
          89 0 85.450012207 11.1000061035 79.049987793 25.3999938965 rrcurveto
          68 vlineto
          0 -149.149993896 -18.5 -95.3500061035 -88.5999908447 -65.4000091553 38.9499969482 127.550003052 vhcurveto
          hintmask 10100110
          -3 2 237 5 0 0 rrcurveto
          0 53 rlineto
          hintmask 11010110
          -234 7 0 92 234 7 0 52 -234 7 rlineto
          109.5 9.20001220703 71.5 144.799987793 82 158.5 -15 0 vhcurveto
          71 vlineto
          -72.3999938965 15.8500061035 -125.100006104 15.6499938965 -52 0 rrcurveto
          -244 7 -196.5 -72 hvcurveto
          hintmask 10001110
          -85 -9 0 -49 rlineto
          hintmask 11010110
          85 -8 0 -92 rlineto
          hintmask 10100110
          -85 -7 rlineto
          endchar
        </CharString>
        <CharString name="Euro.smcp">
          -56 -5 89 114.25 51.5 64 48.5 128.75 86 hstem
          79.9499969482 93 vstem
          14.9499969482 198.25 rmoveto
          65 -6 rlineto
          -1.52587890625e-05 -176 139.800003052 -21.25 56.1999969482 0 65 0 83.0500030518 9.25 60.4499969482 18.75 rrcurveto
          74 vlineto
          -1.52587890625e-05 0 -122.199996948 -13 -78.8000030518 0 -60.5999908447 0 -49.9000091553 22.1999969482 0 86.0500030518 -2 2 184 4 0 0 rrcurveto
          0 51.5 -182 5 0 53 182 5 0 50.5 -182 6 rlineto
          -1.52587890625e-05 58.3000030518 5.90000915527 63.4499969482 104.599990845 0 rrcurveto
          64 134 -11 0 hvcurveto
          74 vlineto
          -59.950012207 10.8999938965 -104.550003052 12.1000061035 -41 0 rrcurveto
          -191.800003052 -4.19999694824 -151.75 -56 hvcurveto
          -65 -7 0 -48.5 65 -6 0 -53 -65 -5 rlineto
          endchar
        </CharString>
        <CharString name="F">
          -5 21 -21 21 -21 315.350006104 94.3000030518 -84.450012207 74.3000030518 242.75 89.75 -89.75 73.75 hstemhm
          74 92 hintmask 10100010
          74 hmoveto
          92 315.350006104 hlineto
          hintmask 00010010
          -72 callsubr
          hintmask 00101010
          -71 callsubr
          hintmask 00000110
          -70 callsubr
          hintmask 10101010
          -17.549987793 2.39999389648 -300.100006104 13.6000061035 0 0 -69.6549987793 2.69999694824 -65.3450012207 -35.4499969482 0 -103.850006104 rrcurveto
          endchar
        </CharString>
        <CharString name="G">
          42 -5 88.75 227.25 85.5 -85.5 60.5 281 87.5 hstemhm
          51.3999938965 92 327.5 92 hintmask 11011100
          51.3999938965 370 rmoveto
          0 -211.100006104 31 -167.549987793 207 3.64999389648 88.5 0.75 58.5 29.8500061035 36.5 23.3999938965 rrcurveto
          21.8500061035 -49 68.1499938965 0 0 393.5 rlineto
          -24 2 -23 1 -21 0 rrcurveto
          hintmask 10111100
          -78.75 0 -54.6499938965 -12.0500030518 -40.75 -12.9499969482 rrcurveto
          -60.5 vlineto
          hintmask 11011100
          150.149993896 -181.25 hlineto
          0 0 -100.099990845 -46.8500061035 -73.9000091553 0.850006103516 -117.75 1.69999694824 -35.75 69.25 0 213.300003052 0 196.149993896 26.200012207 88.3500061035 126.149993896 0 103.199996948 0 143.300003052 -13.5 6 0 rrcurveto
          72.5 vlineto
          -79.75 16.6000061035 -113.699996948 11.8999938965 -68.0500030518 0 rrcurveto
          -199 -36.3500061035 -166.550003052 -203.449996948 hvcurveto
          endchar
        </CharString>
        <CharString name="Gbreve">
          42 -5 88.75 227.25 60.5 -60.5 85.5 256 87.5 60 50 hstemhm
          51.3999938965 92 75.0500030518 50 130 50 22.4499969482 92 hintmask 0000101100000000
          218.450195312 914 rmoveto
          73 callsubr
          hintmask 1011010010000000
          -217.049804688 -544 rmoveto
          74 callsubr
          hintmask 1101010010000000
          75 callsubr
          hintmask 1011010010000000
          76 callsubr
          endchar
        </CharString>
        <CharString name="Gcircumflex">
          42 -5 88.75 227.25 60.5 -60.5 85.5 256 87.5 60 131.5 hstemhm
          51.3999938965 92 43.75 296.5 -12.75 92 hintmask 00001010
          187.150390625 800 rmoveto
          -19 callsubr
          0 vmoveto
          80 hmoveto
          hintmask 10110101
          -330.19921875 -561.5 rmoveto
          74 callsubr
          hintmask 11010101
          75 callsubr
          hintmask 10110101
          76 callsubr
          endchar
        </CharString>
        <CharString name="Gcommaaccent">
          42 -257.899993896 32.8500061035 220.049987793 88.75 227.25 60.5 -60.5 85.5 256 87.5 hstemhm
          51.3999938965 92 126.755004883 98.1000061035 -65.700012207 65.6999969482 102.645004272 92 hintmask 0000000000000000
          hintmask 1000001000000000
          270.155273438 -156.200195312 rmoveto
          90 callsubr
          hintmask 1000000100000000
          91 callsubr
          hintmask 1000001000000000
          89 callsubr
          hintmask 0101110010000000
          -218.754882812 469.5 rmoveto
          74 callsubr
          hintmask 0110110010000000
          75 callsubr
          hintmask 0101110010000000
          76 callsubr
          endchar
        </CharString>
        <CharString name="Gdotaccent">
          42 -5 88.75 227.25 60.5 -60.5 85.5 256 87.5 60 108 hstemhm
          51.3999938965 92 132.150009155 103 92.3499908447 92 hintmask 00001010
          275.549804688 823 rmoveto
          31 callsubr
          hintmask 10110101
          -224.149414062 -513 rmoveto
          74 callsubr
          hintmask 11010101
          75 callsubr
          hintmask 10110101
          76 callsubr
          endchar
        </CharString>
        <CharString name="H">
          65 21 -21 21 -21 309.5 89 333.5 -20 hstemhm
          74.75 92 323 92 hintmask 10111100
          74.75 hmoveto
          -69 callsubr
          endchar
        </CharString>
        <CharString name="Hbar">
          93 21 -21 21 -21 309.5 89 117.5 57 159 -20 hstemhm
          79.3999938965 92 323 92 hintmask 10111110
          17.8000030518 516 rmoveto
          61.6000061035 -516 hlineto
          hintmask 01111110
          92 309.5 323 hlineto
          hintmask 10111110
          -309.5 92 516 59.8999938965 57 -59.8999938965 159 -92 -159 -323 159 -92 -159 -61.6000061035 vlineto
          153.600006104 -174.5 rmoveto
          117.5 323 -117.5 vlineto
          endchar
        </CharString>
        <CharString name="Hcircumflex">
          65 0 21 288.5 89 313.5 20 65 131.5 hstem
          74.75 92 13.25 296.5 13.25 92 vstem
          cntrmask 00001110
          180 797 rmoveto
          -37 callsubr
          0 vmoveto
          80 hmoveto
          -299.700195312 -928.5 rmoveto
          -69 callsubr
          endchar
        </CharString>
        <CharString name="I">
          -350 21 -21 21 -21 732 -20 hstemhm
          74.75 92 hintmask 10110000
          74.75 hmoveto
          -68 callsubr
          endchar
        </CharString>
        <CharString name="Iacute">
          -350 0 21 691 20 65 134.5 hstemhm
          74.75 92 -83.5 205 hintmask 00101000
          83.25 797 rmoveto
          -49 callsubr
          hintmask 11010000
          -111 -931.5 rmoveto
          -68 callsubr
          endchar
        </CharString>
        <CharString name="Icircumflex">
          -350 0 21 691 20 65 131.5 hstemhm
          -27.5 296.5 -194.25 92 hintmask 00110000
          -27.5 797 rmoveto
          -37 callsubr
          0 vmoveto
          80 hmoveto
          hintmask 11001000
          -92.2001953125 -928.5 rmoveto
          -68 callsubr
          endchar
        </CharString>
        <CharString name="Idieresis">
          -350 0 21 691 20 65 105.5 hstem
          -59.5 105.5 28.75 92 28.75 105.5 vstem
          -59.5 850.25 rmoveto
          -33 callsubr
          255 hmoveto
          -33 callsubr
          -120.75 -850.25 rmoveto
          -68 callsubr
          endchar
        </CharString>
        <CharString name="Idotaccent">
          -350 0 21 691 20 65 108 hstemhm
          69.25 103 -97.5 92 hintmask 00110000
          69.25 820 rmoveto
          31 callsubr
          hintmask 11001000
          5.5 -880 rmoveto
          -68 callsubr
          endchar
        </CharString>
        <CharString name="Idotaccent.smcp">
          -365 21 -21 21 -21 637.800003052 108 hstemhm
          52.1999969482 103 -99.8499908447 92 hintmask 10101000
          55.3500061035 hmoveto
          103 callsubr
          hintmask 00110000
          -3.14981079102 90.7998046875 rmoveto
          31 callsubr
          endchar
        </CharString>
        <CharString name="Igrave">
          -350 0 21 691 20 65 134.5 hstemhm
          -46.75 205 -83.5 92 hintmask 00110000
          -46.75 931.5 rmoveto
          -64 callsubr
          hintmask 11001000
          19 -931.5 rmoveto
          -68 callsubr
          endchar
        </CharString>
        <CharString name="Imacron">
          -350 0 21 691 20 65 67.5 hstemhm
          -25.25 292 -192 92 hintmask 00110000
          -25.25 797 rmoveto
          -51 callsubr
          hintmask 11001000
          100 -864.5 rmoveto
          -68 callsubr
          endchar
        </CharString>
        <CharString name="Iogonek">
          -350 -182.419891357 64.5 98 20 -0.0801086425781 21 691 20 hstemhm
          74.75 92 hintmask 11000000
          102.625 0.080078125 rmoveto
          93 callsubr
          hintmask 00111000
          -71.375 -0.080078125 rmoveto
          -68 callsubr
          endchar
        </CharString>
        <CharString name="Itilde">
          -350 0 21 691 20 65.8500061035 74.5500030518 -40.4000091553 75.3999938965 hstemhm
          74.75 92 hintmask 00010000
          -49 841.900390625 rmoveto
          -36 callsubr
          hintmask 00100000
          -35 callsubr
          hintmask 00010000
          -34 callsubr
          hintmask 11001000
          123.75 -841.900390625 rmoveto
          -68 callsubr
          endchar
        </CharString>
        <CharString name="J">
          -214 732 -20 hstem
          210.449996948 92 vstem
          32.75 21.6000061035 rmoveto
          52 -34 112.399993896 -3.60000610352 53 34 50 32 2.30000305176 68 0 47 rrcurveto
          567 -92 -550.350006104 vlineto
          -0.850006103516 -129.699996948 -94.8000030518 23.3500061035 -78.6500091553 15.3000030518 rrcurveto
          endchar
        </CharString>
        <CharString name="Jcircumflex">
          -214 712 20 65 131.5 hstemhm
          108.199996948 296.5 -194.25 92 hintmask 01100000
          108.200195312 797 rmoveto
          -37 callsubr
          0 vmoveto
          80 hmoveto
          hintmask 10010000
          -269.900390625 -906.900390625 rmoveto
          52 -34 112.400390625 -3.599609375 53 34 50 32 2.2998046875 68 0 47 rrcurveto
          567 -92 -550.349609375 vlineto
          -0.8505859375 -129.700195312 -94.7998046875 23.349609375 -78.6494140625 15.2998046875 rrcurveto
          endchar
        </CharString>
        <CharString name="K">
          29 21 -21 21 -21 322.5 87.5 322 -20 hstemhm
          74.75 91.5 hintmask 10111000
          74.75 hmoveto
          91.5 322.5 74.6999969482 hlineto
          217.850006104 -322.5 109.949996948 0 -244.350006104 366.550003052 244.350006104 365.449996948 -109.949996948 0 -217.850006104 -322 -75.6999969482 0 0 322 -90.5 0 rlineto
          endchar
        </CharString>
        <CharString name="Kcommaaccent">
          29 -252.899993896 32.8500061035 220.049987793 21 301.5 87.5 302 20 hstemhm
          74.75 91.5 92.8049926758 98.1000061035 -65.6999969482 65.6999969482 hintmask 00000000
          hintmask 10000100
          259.0546875 -151.200195312 rmoveto
          86 callsubr
          hintmask 10000010
          92 callsubr
          hintmask 10000100
          87 callsubr
          hintmask 01111000
          -184.3046875 94.5 rmoveto
          91.5 322.5 74.7001953125 hlineto
          217.849609375 -322.5 109.950195312 0 -244.349609375 366.549804688 244.349609375 365.450195312 -109.950195312 0 -217.849609375 -322 -75.7001953125 0 0 322 -90.5 0 rlineto
          endchar
        </CharString>
        <CharString name="L">
          -20 0 89 643 -20 hstem
          74.75 92 vstem
          74.75 130.5 rmoveto
          -67 callsubr
          endchar
        </CharString>
        <CharString name="Lacute">
          -20 0 89 623 20 65 134.5 hstemhm
          74.75 92 -83.5 205 hintmask 00101000
          83.25 797 rmoveto
          -49 callsubr
          hintmask 11010000
          -111 -801 rmoveto
          -67 callsubr
          endchar
        </CharString>
        <CharString name="Lcaron">
          -20 0 89 643 -20 hstem
          74.75 92 72.9499969482 80 vstem
          74.75 130.5 rmoveto
          -113 70.7429962158 -17.5 69.7570037842 vhcurveto
          304.5 89 -291 hlineto
          -29 -33 -1 53 hvcurveto
          591 -92 vlineto
          164.949996948 -27 rmoveto
          26 callsubr
          endchar
        </CharString>
        <CharString name="Lcommaaccent">
          -20 -252.149993896 32.8500061035 219.299987793 89 623 20 hstemhm
          74.75 92 89.4550018311 98.1000061035 -65.700012207 65.6999969482 hintmask 00000000
          hintmask 10001000
          256.205078125 -150.450195312 rmoveto
          86 callsubr
          hintmask 10000100
          88 callsubr
          hintmask 10001000
          89 callsubr
          hintmask 01110000
          -181.455078125 224.25 rmoveto
          -67 callsubr
          endchar
        </CharString>
        <CharString name="Lslash">
          -13 0 89 643 -20 hstem
          83.3000030518 92 vstem
          1.64999389648 315.949996948 rmoveto
          81.6499938965 35.25 0 -220.699996948 rlineto
          1.52587890625e-05 -113 70.7429962158 -17.5 69.7570037842 0 rrcurveto
          304.5 89 -291 hlineto
          -28.9999847412 -33 -1 53 hvcurveto
          0 249.850006104 131.649993896 57.5500030518 0.850006103516 63.1499938965 -132.5 -56.6999969482 0 277.149993896 -92 0 0 -316.800003052 -81.6499938965 -35.25 rlineto
          endchar
        </CharString>
        <CharString name="M">
          241 21 -21 21 -21 732 -20 hstemhm
          hintmask 10100000
          51.3999938965 hmoveto
          91.5500030518 0 40.8999938965 568.149993896 174.5 -568.149993896 97.8999938965 0 168.949996948 568.149993896 45.75 -568.149993896 91.5500030518 0 -59.4499969482 732 -126.350006104 0 -170.550003052 -579.300003052 -175.050003052 579.300003052 -127.199996948 0 rlineto
          endchar
        </CharString>
        <CharString name="M.salt">
          244 21 -21 21 -21 hstemhm
          hintmask 10000000
          51.3999938965 hmoveto
          91 0 37.8000030518 622.649993896 rlineto
          0.999984741211 17 20.75 6.15000915527 4.25 -16.1500091553 rrcurveto
          106.850006104 -382.149993896 rlineto
          22.0500183105 -90.75 150.599990845 2.05000305176 19.6500091553 88.25 rrcurveto
          94.8000030518 381.800003052 rlineto
          3.40000915527 16 23.3000030518 -4.05000305176 0.149993896484 -17 rrcurveto
          46.1999969482 -623.800003052 92.3000030518 0 -46.8999938965 646 rlineto
          -1.5 112.050003052 -178.600006104 14.5999908447 -22.9499969482 -106.5 rrcurveto
          -95.1999969482 -385.649993896 rlineto
          -3.40000915527 -15.1499938965 -16.5500030518 -4 -5.09999084473 19.1499938965 rrcurveto
          -105.399993896 384.199996948 rlineto
          -22.9499969482 107.099990845 -175.849990845 -13.6000061035 -1.35000610352 -114 rrcurveto
          endchar
        </CharString>
        <CharString name="N">
          107 21 -21 21 -21 732 -20 hstemhm
          74.75 93 363.850006104 92 hintmask 10111000
          74.75 hmoveto
          93 559.5 hlineto
          363.850006104 -559.5 92 0 0 732 -92 0 0 -561 -362.850006104 561 -94 0 rlineto
          endchar
        </CharString>
        <CharString name="N.salt">
          117 21 -21 21 -21 732 -20 hstemhm
          74.75 93 373.75 92 hintmask 10111000
          74.75 hmoveto
          93 632.550003052 hlineto
          0 17.0000152588 18.75 5.14999389648 6.25 -15.1499938965 rrcurveto
          241.050003052 -574.949996948 rlineto
          37.450012207 -113.800003052 162.25 34.5 0 106.599990845 rrcurveto
          640.100006104 -92 -631.149993896 vlineto
          0 -15 -16.8999938965 -6.30000305176 -7.10000610352 18.3000030518 rrcurveto
          -238.5 569.100006104 rlineto
          -36.3000030518 103.249984741 -167.949996948 -9.89999389648 0 -120.75 rrcurveto
          endchar
        </CharString>
        <CharString name="Nacute">
          107 0 21 691 20 65 134.5 hstem
          74.75 93 152.425003052 205 6.42500305176 92 vstem
          320.174804688 797 rmoveto
          -49 callsubr
          -347.924804688 -931.5 rmoveto
          -22 callsubr
          endchar
        </CharString>
        <CharString name="Nacute.salt">
          117 0 21 691 20 65.6000061035 134.5 hstem
          74.75 93 164.399993896 205 4.35000610352 92 vstem
          332.150390625 797.599609375 rmoveto
          -49 callsubr
          -359.900390625 -932.099609375 rmoveto
          146 callsubr
          endchar
        </CharString>
        <CharString name="Ncaron">
          107 0 21 691 20 65 131.5 hstem
          74.75 93 41.6750030518 296.5 25.6750030518 92 vstem
          209.424804688 928.5 rmoveto
          38 callsubr
          35.25 -131.5 rmoveto
          80 hmoveto
          -327.775390625 -797 rmoveto
          -22 callsubr
          endchar
        </CharString>
        <CharString name="Ncaron.salt">
          117 0 21 691 20 65.6000061035 131.5 hstem
          74.75 93 49.6499938965 296.5 27.6000061035 92 vstem
          217.400390625 929.099609375 rmoveto
          28 callsubr
          35.25 -131.5 rmoveto
          80 hmoveto
          -335.75 -797.599609375 rmoveto
          146 callsubr
          endchar
        </CharString>
        <CharString name="Ncommaaccent">
          107 -252.899993896 32.8500061035 220.049987793 21 691 20 hstemhm
          74.75 93 131.005004883 98.1000061035 -65.700012207 65.6999969482 134.745010376 92 hintmask 00000000
          hintmask 10001000
          298.754882812 -151.200195312 rmoveto
          86 callsubr
          hintmask 10000100
          92 callsubr
          hintmask 10001000
          87 callsubr
          hintmask 01110010
          -224.004882812 94.5 rmoveto
          -22 callsubr
          endchar
        </CharString>
        <CharString name="Ncommaaccent.salt">
          117 -259.600006104 32.8500061035 226.75 21 691 20 hstemhm
          74.75 93 124.205001831 98.1000061035 -65.700012207 65.6999969482 151.445007324 92 hintmask 00000000
          hintmask 10001000
          291.955078125 -157.900390625 rmoveto
          86 callsubr
          hintmask 10000100
          9.900390625 -19.7998046875 hlineto
          0 -9.7646484375 -0.900390625 -17.685546875 -27 0.900390625 rrcurveto
          -32.849609375 vlineto
          0 93.599609375 -20.115234375 89.4150390625 hvcurveto
          hintmask 10001000
          89 callsubr
          hintmask 01110010
          -217.205078125 101.200195312 rmoveto
          146 callsubr
          endchar
        </CharString>
        <CharString name="Ntilde">
          107 0 21 691 20 65.8500061035 74.5500030518 -40.4000091553 75.3999938965 hstemhm
          74.75 93 363.850006104 92 hintmask 00010000
          179.424804688 841.900390625 rmoveto
          -23 callsubr
          hintmask 00100000
          36.44921875 0.849609375 17.8505859375 -32.44921875 54.0498046875 -2.55078125 43.349609375 -1.69921875 39.8505859375 39.849609375 31.349609375 26.2001953125 rrcurveto
          -22.599609375 46.7998046875 rlineto
          -30.5 -17.900390625 -34.400390625 -19.849609375 -26.3994140625 1.150390625 rrcurveto
          hintmask 00010000
          -29.80078125 0.849609375 -27.94921875 31.599609375 -49.1005859375 2.55078125 rrcurveto
          -43.25 0 -37.75 -32.05078125 -37.75 -33.44921875 rrcurveto
          hintmask 11001100
          -104.674804688 -841.900390625 rmoveto
          -22 callsubr
          endchar
        </CharString>
        <CharString name="Ntilde.salt">
          117 0 21 691 20 66.4499969482 74.5500030518 -40.3999938965 75.3999938965 hstemhm
          74.75 93 373.75 92 hintmask 00010000
          195.150390625 842.5 rmoveto
          -18 callsubr
          hintmask 00100000
          36.4501953125 0.8505859375 17.849609375 -32.4501953125 54.0498046875 -2.5498046875 43.3505859375 -1.7001953125 39.849609375 39.849609375 31.3505859375 26.2001953125 rrcurveto
          -22.6005859375 46.7998046875 rlineto
          -30.5 -17.8994140625 -34.3994140625 -19.8505859375 -26.400390625 1.150390625 rrcurveto
          hintmask 00010000
          145 callsubr
          hintmask 11001100
          -120.400390625 -842.5 rmoveto
          146 callsubr
          endchar
        </CharString>
        <CharString name="O">
          102 -4 89 563 89 hstem
          60.8000030518 92 388 92 vstem
          60.8000030518 361 rmoveto
          1.52587890625e-05 -333 106.849990845 -32 180 0 rrcurveto
          180 105.150009155 42 323 343 -112.150009155 33 -173 -168 -118.849990845 -33 -343 hvcurveto
          92 hmoveto
          1.52587890625e-05 281 68.5999908447 6 126.25 0 rrcurveto
          129.25 63.9000091553 -7.35000610352 -279.649993896 -234.899993896 -47.6500091553 -41.1000061035 -145.5 -149 -45.8499908447 34.6000061035 241.399993896 hvcurveto
          endchar
        </CharString>
        <CharString name="OE">
          470 -4 89 -71 72.75 228.600006104 94.3000030518 -84.450012207 74.3000030518 242.75 73.75 -68 89 hstemhm
          60.8000030518 92 387.849990845 92 hintmask 10000111
          152.800003052 361 rmoveto
          1.52587890625e-05 281 67.75 6 126.25 0 rrcurveto
          129.25 64.5999908447 -7.35000610352 -279.649993896 -234.899993896 -48.3499908447 -41.1000061035 -145.5 hvcurveto
          -149 -45 34.6000061035 241.399993896 hvcurveto
          -92 hmoveto
          1.52587890625e-05 -333 106 -32 180 0 90.5 0 71.3000030518 10.9499969482 47.8499908447 52.6000061035 23.4499969482 -56.75 55.3000030518 -8.65000915527 50.4499969482 2.85000610352 rrcurveto
          hintmask 01100011
          0 0 290.050003052 14.8999938965 15.4499969482 2.10000610352 rrcurveto
          72.75 -296.5 vlineto
          -29 0 -32.1499938965 -1 -0.850006103516 53 rrcurveto
          0 176.600006104 rlineto
          hintmask 00010011
          317 9.85000610352 0 74.3000030518 rlineto
          hintmask 00101011
          -317 10.1499938965 0 176.600006104 rlineto
          27 0 29 52 vhcurveto
          306.5 73.75 hlineto
          -17.549987793 2.39999389648 -297.950012207 13.6000061035 0 0 -49.6499938965 2.85000610352 -45.6999969482 -17.9000091553 -21.25 -47.3499908447 rrcurveto
          hintmask 10000111
          -49 58.1499938965 -73.4499969482 9.25 -89.8000030518 0 rrcurveto
          -168 -118 -33 -343 hvcurveto
          endchar
        </CharString>
        <CharString name="Oacute">
          102 -4 89 563 89 60 134.5 hstem
          60.8000030518 92 157.349990845 205 25.6500091553 92 vstem
          310.150390625 797 rmoveto
          -49 callsubr
          -351.850585938 -570.5 rmoveto
          -21 callsubr
          92 hmoveto
          -20 callsubr
          endchar
        </CharString>
        <CharString name="Ocircumflex">
          102 -4 89 563 89 60 131.5 hstem
          60.8000030518 92 46.5999908447 296.5 44.9000091553 92 vstem
          199.400390625 797 rmoveto
          -19 callsubr
          0 vmoveto
          80 hmoveto
          -333.049804688 -567.5 rmoveto
          -21 callsubr
          92 hmoveto
          -20 callsubr
          endchar
        </CharString>
        <CharString name="Odieresis">
          102 -4 89 563 89 60 105.5 hstem
          60.8000030518 92 14.5999908447 105.5 149.5 105.5 12.9000091553 92 vstem
          167.400390625 850.25 rmoveto
          -16 callsubr
          255 hmoveto
          -16 callsubr
          -361.600585938 -489.25 rmoveto
          -21 callsubr
          92 hmoveto
          -20 callsubr
          endchar
        </CharString>
        <CharString name="Ograve">
          102 -4 89 563 89 60 134.5 hstem
          60.8000030518 92 27.3499908447 205 155.650009155 92 vstem
          180.150390625 931.5 rmoveto
          -64 callsubr
          -221.850585938 -570.5 rmoveto
          -21 callsubr
          92 hmoveto
          -20 callsubr
          endchar
        </CharString>
        <CharString name="Ohungarumlaut">
          102 -4 89 563 89 60 134.5 hstem
          60.8000030518 92 388 92 vstem
          239.799804688 797 rmoveto
          -49 callsubr
          38.2001953125 -134.5 rmoveto
          -49 callsubr
          -422.200195312 -570.5 rmoveto
          -21 callsubr
          92 hmoveto
          -20 callsubr
          endchar
        </CharString>
        <CharString name="Omacron">
          102 -4 89 563 89 60 67.5 hstem
          60.8000030518 92 48.8499908447 292 47.1500091553 92 vstem
          201.650390625 797 rmoveto
          -51 callsubr
          -140.850585938 -503.5 rmoveto
          -21 callsubr
          92 hmoveto
          -20 callsubr
          endchar
        </CharString>
        <CharString name="Omega">
          202 0 80.5 569.5 89 hstem
          60.6499938965 92 464.5 92 vstem
          60.6499938965 389.5 rmoveto
          0 -112 0.150009155273 -100.350006104 132.849990845 -85.6499938965 rrcurveto
          -127 -10 0 -81.5 226 0 0 91.5 rlineto
          -135.099990845 107.899993896 -4.90000915527 55.3500061035 0 125.25 rrcurveto
          136.300003052 45.75 133.699996948 189.5 188 41.25 -132 -133 vhcurveto
          0 -126.399993896 -7.89999389648 -78.8000030518 -129.100006104 -88.3000030518 rrcurveto
          -91.5 234 80.5 vlineto
          -122 10 rlineto
          107.5 79.3999938965 9.5 97.6000061035 0 117 rrcurveto
          182 -73.25 172.5 -248 -262 -65.25 -195.5 -154 vhcurveto
          endchar
        </CharString>
        <CharString name="Oslash">
          104 -4 89 563 89 hstem
          62.1499938965 92 388 92 vstem
          62.1499938965 361 rmoveto
          0 -146.149993896 19.8500061035 -87.4000091553 38.1000061035 -53.1499938965 rrcurveto
          -48.3000030518 -74.3000030518 64.75 0 23.0500030518 34.8999938965 rlineto
          47.75 -32.8999938965 63.1999969482 -6 77.5999908447 0 180 0 106 42 0 323 0 155.649993896 -23.299987793 91.700012207 -41.8500061035 54.1499938965 rrcurveto
          45.8000030518 69.5 -64.75 0 -21.1499938965 -31.8500061035 rlineto
          -47.4499969482 31.700012207 -61.4499969482 5.14999389648 -71.8500061035 0 -171.399993896 0 -114.600006104 -33 0 -343 rrcurveto
          92 hmoveto
          281 67.75 6 126.25 vhcurveto
          55.1000061035 0 43.5500030518 -0.600006103516 31.3000030518 -23.3499908447 rrcurveto
          -297.449996948 -459.399993896 rlineto
          -18.8499908447 39.5500030518 -7.65000915527 61.1000061035 0 95.6999969482 rrcurveto
          58.5500030518 -245.699996948 rmoveto
          299.800003052 461.649993896 rlineto
          20.1499938965 -41.6000061035 9.5 -66.450012207 0 -107.899993896 0 -234.899993896 -48.5 -41.1000061035 -145.5 0 -62 0 -43 6.30000305176 -30.4499969482 24 rrcurveto
          endchar
        </CharString>
        <CharString name="Otilde">
          102 -4 89 563 89 60.8500061035 74.5500030518 -40.4000091553 75.3999938965 hstemhm
          60.8000030518 92 388 92 hintmask 00010000
          177.900390625 841.900390625 rmoveto
          -18 callsubr
          hintmask 00100000
          -17 callsubr
          hintmask 00010000
          -34 callsubr
          hintmask 11001100
          -117.100585938 -480.900390625 rmoveto
          -21 callsubr
          92 hmoveto
          -20 callsubr
          endchar
        </CharString>
        <CharString name="P">
          14 21 -21 21 -21 290.5 87.5 -67.5 67.5 265.5 88.5 hstemhm
          57.6000061035 92 302.399993896 93 hintmask 10011110
          57.6000061035 hmoveto
          92 310.5 hlineto
          hintmask 10101110
          5 -3 167.75 -16.5500030518 40 -0.449996948242 76.6999969482 -1.05000305176 105.949996948 13.9000091553 0 212.899993896 rrcurveto
          183.949996948 -100.199996948 31.8000030518 -82.4499969482 vhcurveto
          -304.75 hlineto
          hintmask 00011110
          92 -354 rmoveto
          265.5 209.75 vlineto
          35 0 55.9499969482 -8.85000610352 1.69999694824 -118.849990845 rrcurveto
          hintmask 00101110
          -120.699996948 -42.75 -17.1000061035 -49.8999938965 vhcurveto
          endchar
        </CharString>
        <CharString name="Q">
          102 -144.25 89 51.25 89 563 89 hstem
          60.8000030518 92 388 92 vstem
          60.8000030518 361 rmoveto
          1.52587890625e-05 -333 105.149993896 -32 180 0 180 0.300003051758 106.850006104 41.6999969482 0 323 rrcurveto
          343 -113.850006104 33 -173 -171.399993896 -113.75 -33 -343 vhcurveto
          92 hmoveto
          1.52587890625e-05 281 66.8999938965 6 126.25 0 rrcurveto
          129.25 65.6000061035 -7.35000610352 -279.649993896 -234.899993896 -49.3500061035 -41.1000061035 -145.5 -149 -44.1499938965 34.6000061035 241.399993896 hvcurveto
          159.550003052 -394 rmoveto
          13.75 -107.649993896 132.449996948 -29.25 79.8000030518 25.6499938965 rrcurveto
          89 vlineto
          -58.3000030518 -19.6499938965 -54.6000061035 -4.65000915527 -53.5999908447 46.5500030518 rrcurveto
          endchar
        </CharString>
        <CharString name="R">
          24 21 -21 21 -21 307 78 258.5 88.5 hstemhm
          57.6000061035 92 306.5 93 hintmask 10111100
          57.6000061035 hmoveto
          92 307 hlineto
          179 -14 145 -293 101.149993896 0 -149.800003052 298.25 rlineto
          31.4499816895 6.39999389648 92.700012207 17.5 0 187.600006104 rrcurveto
          168.399993896 -77 53.8500061035 -100.25 vhcurveto
          -314.25 hlineto
          92.1499938965 -347 rmoveto
          258.5 218.350006104 vlineto
          44 44 -15.8000030518 -117.949996948 -120.850006104 -41.25 -3.89999389648 -46.75 hvcurveto
          endchar
        </CharString>
        <CharString name="Racute">
          24 0 21 286 78 258.5 88.5 60.75 134.5 hstemhm
          57.6000061035 92 107.149993896 205 -5.64999389648 93 hintmask 00010100
          256.75 792.75 rmoveto
          -49 callsubr
          hintmask 11101010
          -301.650390625 -927.25 rmoveto
          41 callsubr
          92.150390625 -347 rmoveto
          42 callsubr
          endchar
        </CharString>
        <CharString name="Rcaron">
          24 0 21 286 78 258.5 88.5 65 131.5 hstemhm
          57.6000061035 92 -5.90000915527 296.5 15.9000091553 93 hintmask 00010100
          143.700195312 928.5 rmoveto
          30 callsubr
          35.25 -131.5 rmoveto
          80 hmoveto
          hintmask 11101010
          -279.200195312 -797 rmoveto
          41 callsubr
          92.150390625 -347 rmoveto
          42 callsubr
          endchar
        </CharString>
        <CharString name="Rcommaaccent">
          24 -251.850006104 32.8500061035 219 21 286 78 258.5 88.5 hstemhm
          57.6000061035 92 100.654998779 98.1000061035 -65.700012207 65.6999969482 107.745010376 93 hintmask 00000000
          hintmask 10000100
          250.254882812 -150.150390625 rmoveto
          86 callsubr
          hintmask 10000010
          9.900390625 -19.7998046875 hlineto
          0 -9.7646484375 -0.900390625 -17.685546875 -27 0.900390625 rrcurveto
          -32.849609375 vlineto
          0 93.6005859375 -20.115234375 89.4150390625 hvcurveto
          hintmask 10000100
          87 callsubr
          hintmask 01111001
          -192.655273438 93.4501953125 rmoveto
          41 callsubr
          92.150390625 -347 rmoveto
          42 callsubr
          endchar
        </CharString>
        <CharString name="S">
          13 -8 89 232.75 92 243.25 89 hstem
          60.8000030518 92 299.149993896 92 vstem
          60.8000030518 491.75 rmoveto
          1.52587890625e-05 -78.4499969482 16.5 -99.5500030518 164.5 0 rrcurveto
          132.5 hlineto
          61.8500061035 15.8000030518 -37.1000061035 -52.799987793 hvcurveto
          -60.1999969482 vlineto
          -1.52587890625e-05 -79.299987793 -76.3499908447 -3.35000610352 -41.3000030518 0 -93 0 -118.350006104 7 -40 4 rrcurveto
          -73.6499938965 vlineto
          54.0999908447 -11.9000091553 135.050003052 -14.4499969482 69.6999969482 0 rrcurveto
          99 103.149993896 24.3999938965 148.600006104 hvcurveto
          62.75 vlineto
          -1.52587890625e-05 81.6999969482 -24.8000030518 96.3000030518 -135.849990845 0 rrcurveto
          -134.800003052 hlineto
          -59.1000061035 -36.5999908447 8.5 82 hvcurveto
          57.75 vlineto
          1.52587890625e-05 91.3000030518 48.8999938965 6.25 67.6000061035 -2.55000305176 9.89999389648 0 174.600006104 -5.55000305176 64 -4.44999694824 rrcurveto
          73.6499938965 vlineto
          -43.3999938965 8.30000305176 -148.349990845 17.6500091553 -67.25 -0.600006103516 -112 -0.449996948242 -86 -35.5500030518 0 -145 rrcurveto
          endchar
        </CharString>
        <CharString name="Sacute">
          13 -8 89 232.75 92 243.25 89 60.1269989014 134.5 hstemhm
          60.8000030518 92 116.20199585 205 -22.0520019531 92 hintmask 00010100
          269.001953125 798.126953125 rmoveto
          -49 callsubr
          hintmask 11101010
          -310.702148438 -440.876953125 rmoveto
          27 callsubr
          endchar
        </CharString>
        <CharString name="Scaron">
          13 -8 89 232.75 92 243.25 89 60.1269989014 131.5 hstemhm
          60.8000030518 92 5.22698974609 296.5 -2.57699584961 92 hintmask 00010100
          158.02734375 929.626953125 rmoveto
          28 callsubr
          35.25 -131.5 rmoveto
          80 hmoveto
          hintmask 11101010
          -290.327148438 -306.376953125 rmoveto
          27 callsubr
          endchar
        </CharString>
        <CharString name="Scedilla">
          13 -182.199996948 43.3000030518 130.899993896 89 232.75 92 243.25 89 hstem
          60.8000030518 92 125.199996948 74.5 99.4499969482 92 vstem
          196 -138.900390625 rmoveto
          29 callsubr
          -185.799804688 615.650390625 rmoveto
          27 callsubr
          endchar
        </CharString>
        <CharString name="Scircumflex">
          13 -8 89 232.75 92 243.25 89 60.1269989014 131.5 hstemhm
          60.8000030518 92 10.9769897461 296.5 -8.32699584961 92 hintmask 00010100
          163.77734375 798.126953125 rmoveto
          -19 callsubr
          0 vmoveto
          80 hmoveto
          hintmask 11101010
          -297.426757812 -437.876953125 rmoveto
          27 callsubr
          endchar
        </CharString>
        <CharString name="T">
          10 21 -21 21 -21 643 89 hstemhm
          250.75 92 hintmask 10110000
          41.25 643 rmoveto
          -66 callsubr
          endchar
        </CharString>
        <CharString name="Tbar">
          7 21 -21 21 -21 384 57 202 89 hstemhm
          240.899993896 92 hintmask 10111000
          31.3999938965 643 rmoveto
          209.5 -202 -114 -57 114 -384 92 384 114 57 -114 202 215.5 89 -517 hlineto
          endchar
        </CharString>
        <CharString name="Tcaron">
          10 0 21 622 89 65 131.5 hstemhm
          143 296.5 -188.75 92 hintmask 00110000
          143 928.5 rmoveto
          30 callsubr
          35.25 -131.5 rmoveto
          80 hmoveto
          hintmask 11001000
          -294.849609375 -154 rmoveto
          -66 callsubr
          endchar
        </CharString>
        <CharString name="Tcommaaccent">
          10 -184.699996948 43.3000030518 141.399993896 21 622 89 hstemhm
          235.800003052 74.5 -59.5500030518 92 hintmask 10010000
          153.799804688 -141.400390625 rmoveto
          -43.2998046875 52.5 vlineto
          81.7998046875 22.2001953125 35.5 102 hvcurveto
          -74.5 hlineto
          0 -38 -3.3994140625 -29.2001953125 -28 -12 rrcurveto
          hintmask 01101000
          -163.150390625 769.400390625 rmoveto
          -66 callsubr
          endchar
        </CharString>
        <CharString name="Thorn">
          -18 21 -21 21 -21 149 87.5 -68.5 68.5 263.149993896 88.3500061035 hstemhm
          56.1000061035 92 266.5 93 hintmask 10011110
          56.1000061035 hmoveto
          92 168 hlineto
          hintmask 10101110
          115.25 -23.5500030518 16.299987793 4.25 51.950012207 0.300003051758 74 0.449996948242 102 21.5500030518 0 204 0 179 -97 33.1499938965 -79 0.850006103516 rrcurveto
          -183.5 141 -92 hlineto
          hintmask 00011110
          92 -492.5 rmoveto
          263.149993896 171.5 vlineto
          35.75 0 57.549987793 -4.39999389648 1.70001220703 -119 rrcurveto
          hintmask 00101110
          0 -121.300003052 -43 -19.3000030518 -52 0.850006103516 rrcurveto
          endchar
        </CharString>
        <CharString name="U">
          101 -5 89 648 -20 hstem
          74.75 92 358 93 vstem
          74.75 320 rmoveto
          -333 138 8 136 121 148 2 323 vhcurveto
          412 -93 -412 vlineto
          -225.149993896 -78.5 -10.8500061035 -97.5 -113.699996948 -68.3000030518 3.44999694824 232.550003052 vhcurveto
          412 -92 vlineto
          endchar
        </CharString>
        <CharString name="Uacute">
          101 -5 89 628 20 65 134.5 hstem
          74.75 92 142 205 11 93 vstem
          308.75 797 rmoveto
          -49 callsubr
          -336.5 -611.5 rmoveto
          -15 callsubr
          endchar
        </CharString>
        <CharString name="Ubreve">
          101 -5 89 628 20 65 50 hstem
          74.75 92 64.5 50 130 50 63.5 93 vstem
          231.25 911 rmoveto
          43 callsubr
          -206.5 -591 rmoveto
          -15 callsubr
          endchar
        </CharString>
        <CharString name="Ucircumflex">
          101 -5 89 628 20 65 131.5 hstem
          74.75 92 31.25 296.5 30.25 93 vstem
          198 797 rmoveto
          -37 callsubr
          0 vmoveto
          80 hmoveto
          -317.700195312 -608.5 rmoveto
          -15 callsubr
          endchar
        </CharString>
        <CharString name="Udieresis">
          101 -5 89 628 20 65 105.5 hstemhm
          74.75 92 -0.75 105.5 149.5 105.5 -1.75 93 hintmask 00101100
          166 850.25 rmoveto
          -33 callsubr
          255 hmoveto
          -33 callsubr
          hintmask 11010010
          -346.25 -530.25 rmoveto
          -15 callsubr
          endchar
        </CharString>
        <CharString name="Ugrave">
          101 -5 89 628 20 65 134.5 hstem
          74.75 92 12 205 141 93 vstem
          178.75 931.5 rmoveto
          -64 callsubr
          -206.5 -611.5 rmoveto
          -15 callsubr
          endchar
        </CharString>
        <CharString name="Uhungarumlaut">
          101 -5 89 628 20 65 134.5 hstem
          74.75 92 358 93 vstem
          238.400390625 797 rmoveto
          -49 callsubr
          38.19921875 -134.5 rmoveto
          -49 callsubr
          -406.849609375 -611.5 rmoveto
          -15 callsubr
          endchar
        </CharString>
        <CharString name="Umacron">
          101 -5 89 628 20 65 67.5 hstem
          74.75 92 33.5 292 32.5 93 vstem
          200.25 797 rmoveto
          -51 callsubr
          -125.5 -544.5 rmoveto
          -15 callsubr
          endchar
        </CharString>
        <CharString name="Uogonek">
          101 -185.899993896 64.5 98 20 -1.60000610352 89 628 20 hstemhm
          74.75 92 358 93 hintmask 11000000
          322.700195312 -3.400390625 rmoveto
          -147.900390625 -66.099609375 83.2998046875 -135.099609375 112.600585938 18.69921875 rrcurveto
          64.5 vlineto
          -72.5498046875 0.80078125 -14.05078125 51.44921875 82.1005859375 65.75 rrcurveto
          hintmask 00111100
          -291.450195312 323.400390625 rmoveto
          -15 callsubr
          endchar
        </CharString>
        <CharString name="Uring">
          101 -5 89 628 20 65 51.1499938965 102.700012207 51.1499938965 hstem
          74.75 92 78 50.1499938965 102.700012207 50.1499938965 77 93 vstem
          244.75 899 rmoveto
          -32 callsubr
          50.150390625 hmoveto
          -31 callsubr
          -220.150390625 -579 rmoveto
          -15 callsubr
          endchar
        </CharString>
        <CharString name="Utilde">
          101 -5 89 628 20 61.6000061035 74.5500030518 -40.4000091553 75.3999938965 hstemhm
          74.75 92 358 93 hintmask 00010000
          176.075195312 837.650390625 rmoveto
          -18 callsubr
          hintmask 00100000
          94 callsubr
          hintmask 00010000
          -34 callsubr
          hintmask 11001100
          -101.325195312 -517.650390625 rmoveto
          -15 callsubr
          endchar
        </CharString>
        <CharString name="V">
          102 21 -21 21 -21 732 -20 hstemhm
          hintmask 10100000
          42 732 rmoveto
          249.5 -732 98 0 261.5 732 -99.4499969482 0 -210.050003052 -596 -200.050003052 596 rlineto
          endchar
        </CharString>
        <CharString name="W">
          398 21 -21 21 -21 732 -20 hstemhm
          hintmask 10100000
          42 732 rmoveto
          249.5 -732 98 0 111.699996948 353.75 126.5 -353.75 98 0 221.5 732 -99.4499969482 0 -172.600006104 -591.75 -128.350006104 370.050003052 63.3500061035 221.699996948 -102 0 -167.5 -586.649993896 -199.199996948 586.649993896 rlineto
          endchar
        </CharString>
        <CharString name="Wacute">
          398 0 21 691 20 60.75 134.5 hstem
          466.024993896 205 vstem
          466.025390625 792.75 rmoveto
          -49 callsubr
          -526.525390625 -195.25 rmoveto
          141 callsubr
          endchar
        </CharString>
        <CharString name="Wcircumflex">
          398 0 21 691 20 60.75 131.5 hstem
          356.050003052 296.5 vstem
          356.049804688 792.75 rmoveto
          -37 callsubr
          0 vmoveto
          80 hmoveto
          -508.5 -192.25 rmoveto
          141 callsubr
          endchar
        </CharString>
        <CharString name="Wdieresis">
          398 0 21 691 20 60.75 105.5 hstem
          321.800003052 105.5 149.5 105.5 vstem
          321.799804688 846 rmoveto
          -33 callsubr
          255 hmoveto
          -33 callsubr
          -534.799804688 -114 rmoveto
          141 callsubr
          endchar
        </CharString>
        <CharString name="Wgrave">
          398 0 21 691 20 60.75 134.5 hstem
          335.175003052 205 vstem
          335.174804688 927.25 rmoveto
          -64 callsubr
          -395.674804688 -195.25 rmoveto
          141 callsubr
          endchar
        </CharString>
        <CharString name="X">
          36 21 -21 21 -21 732 -20 hstemhm
          hintmask 10100000
          42 732 rmoveto
          213.5 -362.199996948 -210.5 -369.800003052 101.100006104 0 165.75 291.199996948 167.149993896 -291.199996948 101.100006104 0 -212.050003052 369.800003052 217.050003052 362.199996948 -101.100006104 0 -172.149993896 -291.399993896 -168.75 291.399993896 rlineto
          endchar
        </CharString>
        <CharString name="X.salt">
          52 21 -21 21 -21 732 -20 hstemhm
          hintmask 10100000
          18.6499938965 hmoveto
          102.899993896 0 161 280.550003052 rlineto
          34.0000152588 56.950012207 -17.5500030518 94.5 -33.4499969482 55 rrcurveto
          -145.5 245 -101.399993896 0 160.5 -275 rlineto
          35.1000061035 -61.5 9.39999389648 -29.1999969482 -34.5 -61.3000030518 rrcurveto
          152.300003052 -24.4499969482 rmoveto
          161.149993896 -280.550003052 102.899993896 0 -170.5 305 rlineto
          -34.5 61.3000030518 9.39999389648 29.1999969482 35.1000061035 61.5 rrcurveto
          160.5 275 -101.399993896 0 -145.649993896 -245 rlineto
          -33.3000183105 -54.6999969482 -17.6999969482 -94.8000030518 34 -56.9499969482 rrcurveto
          endchar
        </CharString>
        <CharString name="Y">
          65 21 -21 21 -21 732 -20 hstemhm
          272.300003052 92 hintmask 10110000
          42 732 rmoveto
          230.300003052 -481 0 -251 92 0 0 251 249.699996948 481 -100.5 0 -194.600006104 -375 -176.399993896 375 rlineto
          endchar
        </CharString>
        <CharString name="Yacute">
          65 0 21 691 20 65 134.5 hstemhm
          272.300003052 92 -73.8000030518 205 hintmask 00101000
          290.5 797 rmoveto
          -49 callsubr
          hintmask 11010000
          -351 -199.5 rmoveto
          -14 callsubr
          endchar
        </CharString>
        <CharString name="Ycircumflex">
          65 0 21 691 20 60.75 131.5 hstemhm
          171.25 296.5 -195.449996948 92 hintmask 00110000
          171.25 792.75 rmoveto
          -37 callsubr
          0 vmoveto
          80 hmoveto
          hintmask 11001000
          -323.700195312 -192.25 rmoveto
          -14 callsubr
          endchar
        </CharString>
        <CharString name="Ydieresis">
          65 0 21 691 20 65 105.5 hstem
          147.75 105.5 19.0500030518 92 38.4499969482 105.5 vstem
          147.75 850.25 rmoveto
          -33 callsubr
          255 hmoveto
          -33 callsubr
          -360.75 -118.25 rmoveto
          -14 callsubr
          endchar
        </CharString>
        <CharString name="Ygrave">
          65 0 21 691 20 65 134.5 hstemhm
          160.5 205 -93.1999969482 92 hintmask 00110000
          160.5 931.5 rmoveto
          -64 callsubr
          hintmask 11001000
          -221 -199.5 rmoveto
          -14 callsubr
          endchar
        </CharString>
        <CharString name="Z">
          -11 0 89 554 89 hstem
          32.75 hmoveto
          -65 callsubr
          endchar
        </CharString>
        <CharString name="Zacute">
          -11 0 89 554 89 65 134.5 hstem
          243.25 205 vstem
          243.25 797 rmoveto
          -49 callsubr
          -313 -931.5 rmoveto
          -65 callsubr
          endchar
        </CharString>
        <CharString name="Zcaron">
          -11 0 89 554 89 65 131.5 hstem
          132.5 296.5 vstem
          132.5 928.5 rmoveto
          30 callsubr
          35.25 -131.5 rmoveto
          80 hmoveto
          -292.849609375 -797 rmoveto
          -65 callsubr
          endchar
        </CharString>
        <CharString name="Zdotaccent">
          -11 0 89 554 89 65 108 hstem
          229.25 103 vstem
          229.25 820 rmoveto
          31 callsubr
          -196.5 -880 rmoveto
          -65 callsubr
          endchar
        </CharString>
        <CharString name="a">
          -53 -6 84.5 380 82.5 hstem
          37.3000030518 92 251.149993896 92 vstem
          37.3000030518 128.550003052 rmoveto
          1.52587890625e-05 -80.6499938965 56.6999969482 -53.1499938965 80.9499969482 -0.75 88.3000030518 -0.449996948242 114.149993896 65.8000030518 3.05000305176 3.14999389648 rrcurveto
          21.8500061035 -62.5 70.1499938965 0 0 382.5 rlineto
          -1.52587890625e-05 115.850006104 -72.0999908447 43.5 -91.5500030518 -0.850006103516 -99 -0.850006103516 -84.6500091553 -8.69999694824 -70.6999969482 -21.9499969482 rrcurveto
          -62.8500061035 vlineto
          82.4499816895 5.95001220703 99.6000061035 5.89999389648 64.9499969482 0 48.5 0 30.5 -17.6999969482 0 -59.8000030518 1 -1 -1 -57 0 0 rrcurveto
          -1 -204 1 0 -91.3999938965 -47.75 -57.1999969482 -79.25 vhcurveto
          92 -48.9499969482 rmoveto
          43.3999938965 vlineto
          1.52587890625e-05 29.6000061035 13.3000030518 28.549987793 41.3499908447 3.85000610352 rrcurveto
          196.5 14.3500061035 0 -130.550003052 rlineto
          -1.52587890625e-05 1.52587890625e-05 -120.550003052 -48.3000030518 -74.1499938965 0 rrcurveto
          -31.75 -24.6999969482 12.1499938965 46.950012207 hvcurveto
          endchar
        </CharString>
        <CharString name="a.salt">
          -37 0 83 170.699996948 64.8000030518 134.899993896 83.6000061035 hstem
          46.6999969482 92 258 92 vstem
          46.6999969482 134 rmoveto
          -1.52587890625e-05 -113 75.1000061035 -21 67.8999938965 0 rrcurveto
          144 hlineto
          105.999984741 49 51.8500061035 107.149993896 hvcurveto
          103 vlineto
          -1.52587890625e-05 200.800003052 -34.0500030518 73.3499908447 -144.949996948 0.850006103516 -102.449996948 0.850006103516 -70 -16.4000091553 -79.5500030518 -15.8000030518 rrcurveto
          -64.25 vlineto
          95.049987793 5.90000915527 71.3000030518 6.09999084473 67.6499938965 0 78.8000030518 0.850006103516 26.1999969482 -19 0 -116.75 rrcurveto
          -207 hlineto
          -107.100006104 -35.9000091553 -49.5 -77 hvcurveto
          92 -55 rmoveto
          55 vlineto
          -1.52587890625e-05 31.8000030518 16.6000061035 12.8499908447 41.8999938965 2.85000610352 rrcurveto
          199.5 14.1999969482 0 -95.8999938965 rlineto
          -1.52587890625e-05 -43.8999938965 -6.34999084473 -30.8999938965 -67.450012207 0 rrcurveto
          -125.550003052 hlineto
          -52.6500091553 -6 23 31 hvcurveto
          endchar
        </CharString>
        <CharString name="a.smcp">
          23 21 -21 21 -21 142.25 84.5 hstemhm
          hintmask 10100000
          32.75 hmoveto
          99 0 58 142.25 219.699996948 0 54.3000030518 -142.25 99 0 -206.5 570 -99.5 0 rlineto
          -35.8000030518 -343.25 rmoveto
          84.5500030518 219.25 77.3000030518 -219.25 rlineto
          endchar
        </CharString>
        <CharString name="a.superior">
          -200 374 67.1000061035 232.399993896 65.3500061035 hstem
          28.8999938965 72.8000030518 159.550003052 74.6000061035 vstem
          28.8999938965 463.899993896 rmoveto
          0 -54.6999969482 44.700012207 -34.75 57.25 -0.449996948242 57.5 -0.300003051758 71.1499938965 49.6999969482 2.60000610352 2.40000915527 rrcurveto
          22.3500061035 -47.8000030518 51.3999938965 0 0 255 rlineto
          0 76.8999938965 -54.3500061035 29.8000030518 -68.4499969482 -0.849990844727 -72.9499969482 -2.55000305176 -42 -4.15000915527 -57.200012207 -17.3499908447 rrcurveto
          -48.6000061035 vlineto
          63.75 4.24998474121 46.25 3.05000305176 52.0500030518 0 36.5 0 21.8000030518 -10.75 0 -36.6999969482 1 -1 -1 -25.9499969482 0 0 rrcurveto
          -1 -129.350006104 0.149993896484 0 -67.0999908447 -35.9000091553 -38.25 -53.1000061035 vhcurveto
          72.8000030518 -28.5 rmoveto
          23.5500030518 vlineto
          -1.52587890625e-05 18.4999847412 9.90000915527 17.5500030518 30.3499908447 2.85000610352 rrcurveto
          119.300003052 11.5 0 -78.5 rlineto
          0 -62.6000061035 -32.75 -55.5 -24.049987793 -17.4000091553 8.5 28.799987793 vhcurveto
          endchar
        </CharString>
        <CharString name="aacute">
          -53 -6 84.5 380 82.5 60 134.5 hstemhm
          37.3000030518 92 95.6750030518 205 -49.5250091553 92 hintmask 00101000
          224.974609375 601 rmoveto
          -49 callsubr
          hintmask 11010100
          -290.174804688 -606.950195312 rmoveto
          -13 callsubr
          92 -48.9501953125 rmoveto
          -12 callsubr
          endchar
        </CharString>
        <CharString name="aacute.salt">
          -37 0 83 170.699996948 64.8000030518 134.899993896 83.6000061035 60.0148010254 134.5 hstemhm
          46.6999969482 92 91.7989959717 205 -38.7989959717 92 hintmask 00010100
          230.499023438 597.014648438 rmoveto
          -49 callsubr
          hintmask 11101010
          -286.298828125 -597.514648438 rmoveto
          149 callsubr
          92 -55 rmoveto
          150 callsubr
          endchar
        </CharString>
        <CharString name="aacute.smcp">
          23 0 21 121.25 84.5 403.25 134.5 hstem
          269 205 vstem
          269 630 rmoveto
          -49 callsubr
          -338.75 -764.5 rmoveto
          110 callsubr
          -35.7998046875 -343.25 rmoveto
          111 callsubr
          endchar
        </CharString>
        <CharString name="abreve">
          -53 -6 84.5 380 82.5 60 50 hstemhm
          37.3000030518 92 27.9499969482 50 130 50 -6.80000305176 92 hintmask 00101100
          157.25 715 rmoveto
          43 callsubr
          hintmask 11010010
          -169.950195312 -586.450195312 rmoveto
          -13 callsubr
          92 -48.9501953125 rmoveto
          -12 callsubr
          endchar
        </CharString>
        <CharString name="abreve.salt">
          -37 0 83 170.699996948 64.8000030518 134.899993896 83.6000061035 60.0148010254 50 hstem
          46.6999969482 92 17.2740020752 50 130 50 10.7259979248 92 vstem
          155.973632812 711.014648438 rmoveto
          138 callsubr
          -159.2734375 -577.014648438 rmoveto
          149 callsubr
          92 -55 rmoveto
          150 callsubr
          endchar
        </CharString>
        <CharString name="abreve.smcp">
          23 0 21 121.25 84.5 403.25 50 hstem
          191.5 50 130 50 vstem
          191.5 744 rmoveto
          43 callsubr
          -208.75 -744 rmoveto
          110 callsubr
          -35.7998046875 -343.25 rmoveto
          111 callsubr
          endchar
        </CharString>
        <CharString name="acircumflex">
          -53 -6 84.5 380 82.5 60 131.5 hstemhm
          37.3000030518 92 -13.8000030518 296.5 -31.5500030518 92 hintmask 00101000
          115.5 601 rmoveto
          -37 callsubr
          0 vmoveto
          80 hmoveto
          hintmask 11010100
          -272.650390625 -603.950195312 rmoveto
          -13 callsubr
          92 -48.9501953125 rmoveto
          -12 callsubr
          endchar
        </CharString>
        <CharString name="acircumflex.salt">
          -37 0 83 170.699996948 64.8000030518 134.899993896 83.6000061035 60.0148010254 131.5 hstemhm
          46.6999969482 92 -18.5263977051 296.5 -19.9736022949 92 hintmask 00010100
          120.173828125 597.014648438 rmoveto
          -37 callsubr
          0 vmoveto
          80 hmoveto
          hintmask 11101010
          -267.923828125 -594.514648438 rmoveto
          149 callsubr
          92 -55 rmoveto
          150 callsubr
          endchar
        </CharString>
        <CharString name="acircumflex.smcp">
          23 0 21 121.25 84.5 403.25 131.5 hstem
          158.25 296.5 vstem
          158.25 630 rmoveto
          -37 callsubr
          0 vmoveto
          80 hmoveto
          -319.950195312 -761.5 rmoveto
          110 callsubr
          -35.7998046875 -343.25 rmoveto
          111 callsubr
          endchar
        </CharString>
        <CharString name="acute">
          -330 531 134.5 hstem
          18.6499938965 205 vstem
          18.6499938965 531 rmoveto
          -49 callsubr
          endchar
        </CharString>
        <CharString name="acute.smcp">
          -330 531 134.5 hstem
          18.6499938965 205 vstem
          18.6499938965 531 rmoveto
          -49 callsubr
          endchar
        </CharString>
        <CharString name="adieresis">
          -53 -6 84.5 380 82.5 60.0139007568 105.5 hstemhm
          37.3000030518 92 -47.2042999268 105.5 149.5 105.5 -62.1457061768 92 hintmask 00101100
          82.095703125 654.263671875 rmoveto
          -33 callsubr
          255 hmoveto
          -33 callsubr
          hintmask 11010010
          -299.795898438 -525.713867188 rmoveto
          -13 callsubr
          92 -48.9501953125 rmoveto
          -12 callsubr
          endchar
        </CharString>
        <CharString name="adieresis.salt">
          -37 0 83 170.699996948 64.8000030518 134.899993896 83.6000061035 60.0148010254 105.5 hstemhm
          46.6999969482 92 -42.0263977051 105.5 149.5 105.5 -60.4736022949 92 hintmask 00010110
          96.673828125 650.264648438 rmoveto
          -33 callsubr
          255 hmoveto
          -33 callsubr
          hintmask 11101001
          -304.973632812 -516.264648438 rmoveto
          149 callsubr
          92 -55 rmoveto
          150 callsubr
          endchar
        </CharString>
        <CharString name="adieresis.smcp">
          23 0 21 121.25 84.5 403.25 105.5 hstem
          126.25 105.5 149.5 105.5 vstem
          126.25 683.25 rmoveto
          -33 callsubr
          255 hmoveto
          -33 callsubr
          -348.5 -683.25 rmoveto
          110 callsubr
          -35.7998046875 -343.25 rmoveto
          111 callsubr
          endchar
        </CharString>
        <CharString name="ae">
          291 0.100006103516 84.3500061035 144.449981689 79 149.200012207 83 hstem
          37.3000030518 92 251.149993896 96.6000061035 257 92 vstem
          37.3000030518 133.649993896 rmoveto
          1.52587890625e-05 -80.6499938965 56.6999969482 -53.1499938965 80.9499969482 -0.75 86.9499969482 -0.300003051758 142.150009155 64.8499908447 4.39999389648 6.15000915527 34.6500091553 -42.4499969482 32.799987793 -27.25 84.1500091553 0 83 0 93.6499938965 3.64999389648 79.3500061035 24.3500061035 rrcurveto
          66.5 vlineto
          -74.9999847412 -11 -71 0.849990844727 -89 0 rrcurveto
          -77.4000091553 -26.5999908447 27.4000091553 117.049987793 hvcurveto
          208.850006104 hlineto
          96 44.1500091553 41.700012207 81.799987793 173.300003052 -76.3500061035 14.4000091553 -132.800003052 hvcurveto
          -81.75 0 -57.8499908447 -7.40000915527 -38.0500030518 -40.3999938965 -28.4499969482 37.8499908447 -48.5500030518 16.5 -53.4499969482 -0.549987792969 -99 -0.850006103516 -88.9000091553 -7 -66.4499969482 -23.6499938965 rrcurveto
          -63 vlineto
          84.9999847412 5.94999694824 94.8000030518 6.05000305176 67.1999969482 0 48.5 0 30.5 -17.700012207 0 -59.799987793 1 -1 -1 -76.3500061035 0 0 rrcurveto
          -1 -204 1 0 -91.3999938965 -47.75 -57.1999969482 -79.25 vhcurveto
          92 -30.3500061035 rmoveto
          29.8999938965 vlineto
          1.52587890625e-05 29.5999908447 13.3000030518 28.5500030518 41.3499908447 3.85000610352 rrcurveto
          196.5 14.3500061035 0 -116.300003052 rlineto
          -1.52587890625e-05 0 -120.550003052 -48.299987793 -74.1499938965 0 rrcurveto
          -31.75 -24.6999969482 11.3999938965 46.9499969482 hvcurveto
          347.75 165.949996948 rmoveto
          -0.299987792969 149.100006104 40.75 0.100006103516 102.350006104 0 rrcurveto
          96.8999938965 17.3000030518 -8.10000610352 -94.6499938965 -30.9000091553 -18.1000061035 -15.5500030518 -39.9499969482 hvcurveto
          endchar
        </CharString>
        <CharString name="ae.smcp">
          212 -2.14999389648 87.5 -73.75 72.8999938965 67.5 81.5 2.94999694824 88 -80.1499938965 73 166.199996948 86.5 -86.5 73.75 hstemhm
          352.5 92.8500061035 hintmask 10100001
          21.5 hmoveto
          101.75 0 75.6000061035 152 153.649993896 0 0 -66.5 rlineto
          0 -57 37.3999938965 -32.5 59.4000091553 1.85000610352 rrcurveto
          hintmask 01100001
          0 0 279.5 9.84999084473 17.0999908447 3.90000915527 rrcurveto
          0 72.8999938965 rlineto
          hintmask 10110001
          -262.850006104 0.850006103516 rlineto
          -21.8499908447 -15.8499908447 1.29998779297 29.8500061035 hvcurveto
          0 119.949996948 rlineto
          hintmask 00101001
          268.050003052 7.85000610352 0 73 rlineto
          hintmask 00110101
          -268.050003052 7.14999389648 0 126.899993896 rlineto
          1.69999694824 21.4499969482 1.14999389648 10.6999969482 30.8500061035 0 rrcurveto
          hintmask 00100011
          266.850006104 73.75 hlineto
          hintmask 10100101
          -13.9499969482 2.55000305176 -266.899993896 10.1999969482 0 0 -94 -1 -76.5500030518 -7.39999389648 -40.1000061035 -85.1500091553 rrcurveto
          -17.75 -242.949996948 rmoveto
          115.850006104 236.199996948 0 -236.199996948 rlineto
          endchar
        </CharString>
        <CharString name="afii61289">
          -166 0.149993896484 62 -41 -21 hstemhm
          85.0500030518 92 hintmask 01100000
          28.0500030518 249.5 rmoveto
          25.5500030518 -41.1499938965 rlineto
          11 6 10.4499969482 6.14999389648 10 7 rrcurveto
          -40.3000030518 vlineto
          1.52587890625e-05 -135.000015259 39.5 -51.1999969482 97 -0.850006103516 rrcurveto
          hintmask 10100000
          0 0 106.849990845 -0.849990844727 -0.849990844727 0.849990844727 rrcurveto
          62 vlineto
          -1.89999389648 -0.849990844727 -82.75 19.5 0 0.849990844727 -54.3499908447 11.200012207 -10.6500091553 13.049987793 -0.849990844727 92.25 rrcurveto
          89.8500061035 vlineto
          95.8000183105 82.5 76.049987793 115.399993896 -0.849990844727 104.600006104 -0.850006103516 85.3500061035 -50.3999938965 63.1499938965 -80.75 0 -75.4000091553 0 -54.75 -43.75 -0.849990844727 -75.25 rrcurveto
          -314.5 vlineto
          -18.9999847412 -20 -19 -19 -19 -17 rrcurveto
          149 152.5 rmoveto
          213.949996948 vlineto
          1.52587890625e-05 56.9999847412 69.4499969482 -12.3499908447 8.55000305176 -34.1000061035 20.0500030518 -62.6000061035 -39.3500061035 -83.5999908447 -58.6999969482 -78.3000030518 rrcurveto
          endchar
        </CharString>
        <CharString name="afii61352">
          501 21 -21 21 -21 381 72.5 206 75.3500061035 hstemhm
          67.1999969482 92.1499938965 369.650009155 92 81.8500061035 74 185 74 hintmask 10111111
          67.1999969482 hmoveto
          92.1499938965 632.550003052 hlineto
          0 17.0000152588 18.75 5.14999389648 6.25 -15.1499938965 rrcurveto
          236.949996948 -574.949996948 rlineto
          37.450012207 -113.800003052 162.25 34.5 0 106.599990845 rrcurveto
          472.25 vlineto
          69.8500061035 38.1000061035 25.5 58.3999938965 69.75 104 -1 0 vhcurveto
          48.6499938965 -1.69999694824 21.950012207 -6 0 -97.8000030518 rrcurveto
          -92.6999969482 -27.5 -6.80000305176 -41 vhcurveto
          -48 hlineto
          -41 -27.5 5.69999694824 149.800003052 hvcurveto
          -74 hlineto
          0 -176 31.3999938965 -51.25 105.100006104 -0.75 rrcurveto
          60 hlineto
          105.699996948 0.75 30.8000030518 61.3999938965 0 109.850006104 0 123.699996948 -31.5 54.75 -102 2.55000305176 rrcurveto
          0 -142.450012207 0.850006103516 -62.8999938965 -92.1499938965 -75.8500061035 -44.8500061035 -122.449996948 vhcurveto
          -466.699996948 vlineto
          0 -15 -16.8999938965 -6.30000305176 -7.10000610352 18.3000030518 rrcurveto
          -234.25 569.100006104 rlineto
          -35.4499969482 103.249984741 -168.100006104 -9.89999389648 0 -120.75 rrcurveto
          endchar
        </CharString>
        <CharString name="agrave">
          -53 -6 84.5 380 82.5 60 134.5 hstemhm
          37.3000030518 92 -30.0749969482 205 76.2249908447 92 hintmask 00101000
          99.224609375 735.5 rmoveto
          -64 callsubr
          hintmask 11010100
          -164.424804688 -606.950195312 rmoveto
          -13 callsubr
          92 -48.9501953125 rmoveto
          -12 callsubr
          endchar
        </CharString>
        <CharString name="agrave.salt">
          -37 0 83 170.699996948 64.8000030518 134.899993896 83.6000061035 60.0148010254 134.5 hstemhm
          46.6999969482 92 -19.5009918213 205 72.5009918213 92 hintmask 00010100
          119.19921875 731.514648438 rmoveto
          -64 callsubr
          hintmask 11101010
          -174.999023438 -597.514648438 rmoveto
          149 callsubr
          92 -55 rmoveto
          150 callsubr
          endchar
        </CharString>
        <CharString name="agrave.smcp">
          23 0 21 121.25 84.5 403.25 134.5 hstem
          125.824996948 205 vstem
          125.825195312 764.5 rmoveto
          -64 callsubr
          -195.575195312 -764.5 rmoveto
          110 callsubr
          -35.7998046875 -343.25 rmoveto
          111 callsubr
          endchar
        </CharString>
        <CharString name="amacron">
          -53 -6 84.5 380 82.5 60 67.5 hstemhm
          37.3000030518 92 -3.05000305176 292 -37.8000030518 92 hintmask 00101000
          126.25 601 rmoveto
          -51 callsubr
          hintmask 11010100
          -88.9501953125 -539.950195312 rmoveto
          -13 callsubr
          92 -48.9501953125 rmoveto
          -12 callsubr
          endchar
        </CharString>
        <CharString name="amacron.salt">
          -37 0 83 170.699996948 64.8000030518 134.899993896 83.6000061035 60.0148010254 67.5 hstemhm
          46.6999969482 92 -12.0262908936 292 -21.9737091064 92 hintmask 00010100
          126.673828125 597.014648438 rmoveto
          -51 callsubr
          hintmask 11101010
          -79.9736328125 -530.514648438 rmoveto
          149 callsubr
          92 -55 rmoveto
          150 callsubr
          endchar
        </CharString>
        <CharString name="amacron.smcp">
          23 0 21 121.25 84.5 403.25 67.5 hstem
          160.5 292 vstem
          160.5 630 rmoveto
          -51 callsubr
          -127.75 -697.5 rmoveto
          110 callsubr
          -35.7998046875 -343.25 rmoveto
          111 callsubr
          endchar
        </CharString>
        <CharString name="ampersand">
          76 21 -21 21 -21 645.899993896 64.1000061035 hstemhm
          hintmask 10100000
          74.5500030518 82 rmoveto
          71.9000091553 -103.399993896 144.449996948 -7.35000610352 77.5500030518 71.1000061035 rrcurveto
          70.1999969482 64.6000061035 78.8500061035 -106.949996948 109 0 -122.399993896 168.399993896 40.1000061035 44.6999969482 53.3999938965 107.149993896 -30.0500030518 33.6000061035 -116.100006104 -117.649993896 -216.850006104 294.300003052 rlineto
          -63.75 86.25 29.3499908447 29.1499938965 83.3000030518 0 rrcurveto
          192.5 64.1000061035 hlineto
          -72 17 -80.1000061035 15.6499938965 -116.899993896 -12.6499938965 -72.5500030518 -8.19999694824 -79 -96.3500061035 79 -107 rrcurveto
          59.8500061035 -82 -81.5 -69.5500030518 rlineto
          -86.6999816895 -74.299987793 -25.5 -114.400009155 73.9499969482 -96.1999969482 rrcurveto
          77.0999908447 50.8000030518 rmoveto
          -40.8999938965 52.4000091553 -10.5500030518 59.4000091553 72.8000030518 60.5999908447 rrcurveto
          70.8000030518 59.6000061035 141 -187.75 -71.8999938965 -67.8000030518 rlineto
          -50.8499908447 -48.4499969482 -74 25.8000030518 -36.4000091553 46.1999969482 rrcurveto
          endchar
        </CharString>
        <CharString name="ampersand.salt">
          383 -0.300003051758 85.5500030518 71.1999969482 81.5500030518 83.6000061035 82.3999938965 61.8000030518 85.5500030518 -65.5500030518 63.5500030518 hstemhm
          41.1499938965 92 62.5 92 251.5 92 69.5 92 -74 74 hintmask 1110111110000000
          41.1499938965 295.149993896 rmoveto
          -103.099990845 84 -35.8000030518 70.5 vhcurveto
          0 -131.449996948 82.4000091553 -24.9499969482 110.099990845 -0.150009155273 rrcurveto
          164 hlineto
          110.5 -1.52587890625e-05 130 39.3500061035 0 156.5 rrcurveto
          hintmask 1110111101000000
          0 270.399993896 143 19.8500061035 0 63.5500030518 -143 0 0 143.550003052 -74 0 rlineto
          hintmask 1111011110000000
          -18 -141.550003052 -438 0 rlineto
          -142.25 -0.300003051758 -79.25 -23.1500091553 0 -144.649993896 rrcurveto
          92 -86.75 rmoveto
          86.75 vlineto
          76.9499969482 34 5.60000610352 97 vhcurveto
          436.5 -269.800003052 hlineto
          -77.5500030518 -65.5 -33.1999969482 -83 vhcurveto
          -163.25 hlineto
          -49.0999908447 2.55000305176 -51.3000030518 -6.25 -0.850006103516 74.8999938965 rrcurveto
          195.550003052 hlineto
          100.899993896 -1.52587890625e-05 47.049987793 17.9499969482 0 101.550003052 rrcurveto
          117.25 -78.3999938965 10.8000030518 -69.1000061035 vhcurveto
          -114 hlineto
          -113.25 -60.75 -45.1000061035 -120.599990845 hvcurveto
          -31 -31.5 15.5500030518 42.6499938965 hvcurveto
          154.5 -58.5 rmoveto
          81.0500030518 30.950012207 2.55000305176 52.549987793 vhcurveto
          111.75 hlineto
          49.8000030518 6.44999694824 -6.25 -36.1000061035 -42.3500061035 -13.6499938965 1.10000610352 -42.6000061035 hvcurveto
          endchar
        </CharString>
        <CharString name="ampersand.smcp">
          2 21 -21 21 -21 488.100006104 65 hstemhm
          hintmask 10100000
          66.4499969482 63.1999969482 rmoveto
          63.799987793 -90.6000061035 113.050003052 5.94999694824 60.3000030518 55.1499938965 rrcurveto
          65.1499938965 63.6999969482 78.4499969482 -97.3999938965 105.100006104 0 -119.350006104 154.550003052 23.6000061035 23.4499969482 42.8999938965 84.1999969482 -31.5 34.6999969482 -86.8999938965 -74.8999938965 -163.649993896 199.600006104 rlineto
          -34.0999908447 41.5 1.19999694824 25 59.6999969482 0 rrcurveto
          171.800003052 65 hlineto
          -81.75 19.0999908447 -80.1000061035 8.40000915527 -75.6999969482 -11.3000030518 -61.5999908447 -9.30000305176 -56.8500061035 -77.8500061035 67.5 -85.0999908447 rrcurveto
          40.3999938965 -50.1000061035 -68.3500061035 -56.5500030518 rlineto
          -76.0999908447 -63.1499938965 -16.3499908447 -82.75 59.3499908447 -81.3000030518 rrcurveto
          72.4000091553 50.1000061035 rmoveto
          -18.6500091553 22.6500091553 -17.6499938965 47 53.8000030518 42.3000030518 rrcurveto
          66.6999969482 53.0500030518 92.75 -114.100006104 -63.1499938965 -61.5500030518 rlineto
          -43.3499908447 -43.5999908447 -49.9499969482 28.8999938965 -20.5 25.3500061035 rrcurveto
          endchar
        </CharString>
        <CharString name="aogonek">
          -53 -182.442779541 64.5 98 20 -6.05722045898 84.5 380 82.5 hstemhm
          37.3000030518 92 251.149993896 92 hintmask 11000000
          416.98046875 0.0576171875 rmoveto
          32 callsubr
          hintmask 00111100
          -423.180664062 128.4921875 rmoveto
          -13 callsubr
          92 -48.9501953125 rmoveto
          -12 callsubr
          endchar
        </CharString>
        <CharString name="aogonek.salt">
          -21 -160.619903564 64.5 96.1199035645 83 -81.1199035645 20 231.819900513 64.8000030518 134.899993896 83.6000061035 hstemhm
          46.6999969482 92 258 92 hintmask 10100000
          384.650390625 21.8798828125 rmoveto
          -147.900390625 -66.099609375 83.2998046875 -135.100585938 112.600585938 18.7001953125 rrcurveto
          64.5 vlineto
          -72.55078125 0.7998046875 -14.0498046875 51.4501953125 82.1005859375 65.75 rrcurveto
          hintmask 01011110
          -381.450195312 112.120117188 rmoveto
          149 callsubr
          92 -55 rmoveto
          150 callsubr
          endchar
        </CharString>
        <CharString name="aogonek.smcp">
          34 -182.269897461 64.5 98 20 -0.230102539062 21 121.25 84.5 hstemhm
          hintmask 11000000
          494.650390625 0.23046875 rmoveto
          32 callsubr
          hintmask 00110000
          -505.400390625 -0.23046875 rmoveto
          110 callsubr
          -35.7998046875 -343.25 rmoveto
          111 callsubr
          endchar
        </CharString>
        <CharString name="approxequal">
          -47 205.699996948 81 -43 80 60.0500030518 81 -43 80 hstemhm
          hintmask 10000000
          46.6999969482 252.699996948 rmoveto
          21 -47 rlineto
          hintmask 01000000
          47.9999847412 14.9999847412 25 23 51 0 rrcurveto
          hintmask 10000000
          60 0 31.25 -38 57.75 0 60.3000030518 0 39.0500030518 43.6500091553 38.3999938965 28.799987793 rrcurveto
          -22.75 47.5500030518 rlineto
          -45.950012207 -19.3500061035 -20.0500030518 -19.6500091553 -47 0 rrcurveto
          hintmask 01000000
          -60 0 -29 37 -60 0 rrcurveto
          -64 0 -44.0500030518 -38.1499938965 -38.9499969482 -32.8500061035 rrcurveto
          0 178.050003052 rmoveto
          hintmask 00100000
          21 -47 rlineto
          hintmask 00010000
          47.9999847412 15 25 23 51 0 rrcurveto
          hintmask 00100000
          60 0 31.25 -38 57.75 0 60.3000030518 0 39.0500030518 43.6499938965 38.3999938965 28.8000030518 rrcurveto
          -22.75 47.5500030518 rlineto
          -45.950012207 -19.3500061035 -20.0500030518 -19.6499938965 -47 0 rrcurveto
          hintmask 00010000
          -60 0 -29 37 -60 0 -64 0 -44.0500030518 -38.1499938965 -38.9499969482 -32.8500061035 rrcurveto
          endchar
        </CharString>
        <CharString name="aring">
          -53 -6 84.5 380 82.5 34.5 51.1499938965 102.700012207 51.1499938965 hstem
          37.3000030518 92 32.8249969482 50.1499938965 102.700012207 50.1499938965 15.3249969482 92 vstem
          162.125 677.5 rmoveto
          -32 callsubr
          50.150390625 hmoveto
          -31 callsubr
          -174.975585938 -548.950195312 rmoveto
          -13 callsubr
          92 -48.9501953125 rmoveto
          -12 callsubr
          endchar
        </CharString>
        <CharString name="aring.salt">
          -37 0 83 170.699996948 64.8000030518 134.899993896 83.6000061035 60.0453948975 51.1499938965 102.700012207 51.1499938965 hstem
          46.6999969482 92 28.5820007324 50.1499938965 102.700012207 50.1499938965 26.4179992676 92 vstem
          167.282226562 699.044921875 rmoveto
          -32 callsubr
          50.1494140625 hmoveto
          28.3505859375 23.5 23.5 28.3505859375 28.349609375 22.5 -23.5 -28.3505859375 -28.349609375 -22.5 -22.5 -28.349609375 -28.3505859375 -23.5 22.5 28.349609375 vhcurveto
          -170.731445312 -565.044921875 rmoveto
          149 callsubr
          92 -55 rmoveto
          150 callsubr
          endchar
        </CharString>
        <CharString name="aring.smcp">
          23 0 21 121.25 84.5 338 51.1499938965 102.700012207 51.1499938965 hstem
          206.274993896 50.1499938965 102.700012207 50.1499938965 vstem
          206.275390625 666.75 rmoveto
          -32 callsubr
          50.1494140625 hmoveto
          50 callsubr
          -223.674804688 -666.75 rmoveto
          110 callsubr
          -35.7998046875 -343.25 rmoveto
          111 callsubr
          endchar
        </CharString>
        <CharString name="asciicircum">
          -183 531 131.5 hstem
          46.6999969482 296.5 vstem
          46.6999969482 531 rmoveto
          78 0 74.6499938965 68 66.8500061035 -68 77 0 -102.050003052 131.5 -80 0 rlineto
          0 hmoveto
          80 hmoveto
          endchar
        </CharString>
        <CharString name="asciitilde">
          -140 531 78.8000030518 -43.8000030518 78.8000030518 hstemhm
          hintmask 10000000
          46.6999969482 575.899993896 rmoveto
          21.8999938965 -44.8999938965 rlineto
          hintmask 01000000
          35.25 15.5 18.75 19.5 39 0 rrcurveto
          hintmask 10000000
          39 0 26.3499908447 -35 44.6999969482 0 52.700012207 0 35.5999908447 45.8000030518 26.25 26.1999969482 rrcurveto
          -22.6000061035 46.8000030518 rlineto
          -25.4000091553 -17.049987793 -28.4499969482 -23.25 -39.1499938965 0.300003051758 rrcurveto
          hintmask 01000000
          -40 0 -22 35 -44 0 rrcurveto
          -53.450012207 0 -26.6999969482 -35.4499969482 -37.75 -33.450012207 rrcurveto
          endchar
        </CharString>
        <CharString name="asterisk">
          -136 566 44.5 124.149993896 -20 hstem
          46.6999969482 566 rmoveto
          144 -5 -5 77 -139 -27.5 rlineto
          64.9999847412 -195.899993896 rmoveto
          41.5 -13.3500061035 57.5 130.75 -74.8500061035 18.0500030518 rlineto
          37.299987793 167.700012207 rmoveto
          45.1000061035 -133.75 71 31.4499969482 -72.8999938965 119.199996948 rlineto
          -13.1500091553 -261.199996948 rmoveto
          128.949996948 -61.75 24.1499938965 35.6000061035 -110.600006104 90.6999969482 rlineto
          2.14999389648 33 rmoveto
          49.6499938965 -58.5500030518 92.5 97 -22.3000030518 38.3000030518 rlineto
          endchar
        </CharString>
        <CharString name="asterisk.smcp">
          -137 405.75 44.5 hstem
          46.6999969482 405.75 rmoveto
          143.149993896 -5 -4.14999389648 77 -139 -27.5 rlineto
          64.1499938965 -195.899993896 rmoveto
          41.5 -13.3500061035 58.3500061035 130.75 -74.8500061035 18.0500030518 rlineto
          37.299987793 167.700012207 rmoveto
          45.1000061035 -132.899993896 71 30.6000061035 -72.8999938965 119.199996948 rlineto
          -13.1500091553 -261.199996948 rmoveto
          128.949996948 -61.75 24.1499938965 35.6000061035 -110.600006104 91.5500030518 rlineto
          2.14999389648 33 rmoveto
          49.6499938965 -59.3999938965 92.5 97 -23.1499938965 38.3000030518 rlineto
          endchar
        </CharString>
        <CharString name="at">
          278 -184 85.5 89.5 84.5 -54.5 -21 21 -21 427.5 84.5 105.75 84.5 -84.5 57.5 hstemhm
          60.8000030518 84.5 81.1999969482 86 211.699996948 82.8000030518 -65.3000030518 65.3000030518 79.8000030518 84.5 hintmask 1000110111010000
          60.8000030518 3 rmoveto
          1.52587890625e-05 -125.75 73.5 -61.25 105 0 rrcurveto
          346 hlineto
          139.350006104 46.6500091553 78.5 111.5 hvcurveto
          497 vlineto
          1.52587890625e-05 136.850006104 -80.1500091553 60.6999969482 -107.349990845 1.69999694824 rrcurveto
          -111.5 hlineto
          hintmask 1000101111010000
          -125.999984741 1 -118.5 -18 -48 -10 rrcurveto
          -57.5 vlineto
          hintmask 1100110111010000
          404 hlineto
          61.0000152588 42 -37.75 -77 hvcurveto
          -497 vlineto
          1.52587890625e-05 -68 -21 -36.5 -82 0 rrcurveto
          -344.5 hlineto
          -39.9999847412 -54 14.5 90 hvcurveto
          331.5 vlineto
          1.52587890625e-05 80 46 10 48 0 rrcurveto
          206.899993896 hlineto
          50.549987793 27.4499969482 -10.9499969482 -52.5500030518 hvcurveto
          1 -0.149993896484 -1 -66.8500061035 0 0 rrcurveto
          -1 -100.849990845 1 -63.3500061035 -85.5500030518 -47.9499969482 -51.8000030518 -82.6999969482 vhcurveto
          -50 vlineto
          -0.850006103516 -68 51.8500061035 -55.1999969482 77 1.69999694824 91 0 78.6999969482 71.5 2 0 rrcurveto
          hintmask 1010110110110000
          -74 callsubr
          hintmask 1000110111010000
          367.5 vlineto
          117.199996948 -84.25 27.3000030518 -74.75 vhcurveto
          -208.699996948 hlineto
          -167.499984741 -11 -123.5 -49.5 hvcurveto
          251.699996948 -217.350006104 rmoveto
          -0.149993896484 1 0 38.0500030518 0.149993896484 1 -0.850006103516 33.3500061035 19.200012207 24.25 37.1499938965 3.69999694824 rrcurveto
          156.199996948 14.5 0 -111 rlineto
          hintmask 1100100111010000
          -44.450012207 -24.8999938965 -55.6499938965 -26.950012207 -54.5 0.850006103516 -32.1000061035 -0.850006103516 -25 26 0 21 rrcurveto
          endchar
        </CharString>
        <CharString name="at.alt">
          280 -99.1000061035 85.5 89.5 84.5 352 84.5 105.75 84.5 -84.5 57.5 hstemhm
          61.6499938965 84.5 81.200012207 86 211.699996948 82.8000030518 -65.3000030518 65.3000030518 79.799987793 84.5 hintmask 1111011101000000
          60.8000030518 423.899993896 rmoveto
          0.850006103516 -336 rlineto
          -125.75 73.5 -61.25 105 vhcurveto
          346 hlineto
          139.350006104 46.6499938965 78.5 111.5 hvcurveto
          497 vlineto
          0 136.850006104 -80.1499938965 59.8500061035 -107.350006104 1.69999694824 rrcurveto
          -111.5 0.850006103516 rlineto
          hintmask 1110111101000000
          -126 1 -118.5 -18 -48 -10 rrcurveto
          -57.5 vlineto
          hintmask 1111011101000000
          404 hlineto
          61 42 -37.75 -77 hvcurveto
          -497 vlineto
          -68 -21 -36.5 -82 vhcurveto
          -344.5 hlineto
          -40 -54 14.5 90 hvcurveto
          331.5 vlineto
          80 46 10 48 vhcurveto
          206.899993896 hlineto
          50.5500183105 27.4499969482 -10.9499969482 -52.5500030518 hvcurveto
          1 -0.149993896484 -1 -66.8500061035 0 0 rrcurveto
          -1 -100.850006104 1 -63.3499908447 -85.5500030518 -47.9499969482 -51.799987793 -82.700012207 vhcurveto
          -50 vlineto
          -0.850006103516 -68 51.8500061035 -55.1999969482 77 1.69999694824 91 0 78.6999969482 71.5 2 0 rrcurveto
          hintmask 1111011011000000
          -74 callsubr
          hintmask 1111011101000000
          367.5 vlineto
          117.200012207 -84.25 27.299987793 -74.75 vhcurveto
          -208.699996948 hlineto
          -167.5 -11.8499908447 -123.5 -49.5 hvcurveto
          252.550003052 -217.349990845 rmoveto
          -0.150009155273 1.00001525879 0 38.0500030518 0.150009155273 1 -0.850006103516 33.3499908447 19.1999969482 24.25 37.1500091553 3.69999694824 rrcurveto
          156.199996948 14.5 0 -111 rlineto
          -44.4499816895 -24.8999938965 -55.6500091553 -26.9499969482 -54.5 0.849990844727 -32.0999908447 -0.849990844727 -25 26 0 21 rrcurveto
          endchar
        </CharString>
        <CharString name="at.smcp">
          278 -142.300003052 85.5 89.5 84.5 352 84.5 105.75 84.5 -84.5 57.5 hstemhm
          60.8000030518 84.5 81.1999969482 86 211.699996948 82.8000030518 -65.3000030518 65.3000030518 79.8000030518 84.5 hintmask 1111011101000000
          60.8000030518 44.6999969482 rmoveto
          1.52587890625e-05 -125.750015259 73.5 -61.25 105 0 rrcurveto
          346 hlineto
          139.350006104 -1.52587890625e-05 46.6500091553 78.5 0 111.5 rrcurveto
          497 vlineto
          1.52587890625e-05 136.849990845 -80.1500091553 60.6999969482 -107.349990845 1.69999694824 rrcurveto
          -111.5 hlineto
          hintmask 1110111101000000
          -125.999984741 0.999984741211 -118.5 -18 -48 -10 rrcurveto
          -57.5 vlineto
          hintmask 1111011101000000
          404 hlineto
          61.0000152588 -1.52587890625e-05 42 -37.75 0 -77 rrcurveto
          -497 vlineto
          1.52587890625e-05 -68.0000152588 -21 -36.5 -82 0 rrcurveto
          -344.5 hlineto
          -39.9999847412 -1.52587890625e-05 -54 14.5 0 90 rrcurveto
          331.5 vlineto
          1.52587890625e-05 79.9999847412 46 10 48 0 rrcurveto
          206.899993896 hlineto
          50.549987793 -1.52587890625e-05 27.4499969482 -10.9499969482 0 -52.5500030518 1 -0.149993896484 -1 -66.8500061035 0 0 rrcurveto
          -1 -100.849990845 1 -63.3500061035 -85.5500030518 -47.9499969482 -51.8000030518 -82.6999969482 vhcurveto
          -50 vlineto
          -0.850006103516 -68.0000152588 51.8500061035 -55.1999969482 77 1.69999694824 91 0 78.6999969482 71.5 2 0 rrcurveto
          hintmask 1111011011000000
          -74 callsubr
          hintmask 1111011101000000
          367.5 vlineto
          117.199981689 -84.25 27.3000030518 -74.75 vhcurveto
          -208.699996948 hlineto
          -167.499984741 -1.52587890625e-05 -11 -123.5 0 -49.5 rrcurveto
          251.699996948 -217.349990845 rmoveto
          -0.149993896484 1 0 38.049987793 0.149993896484 1 -0.850006103516 33.3500061035 19.200012207 24.25 37.1499938965 3.69999694824 rrcurveto
          156.199996948 14.5 0 -111 rlineto
          -44.450012207 -24.9000091553 -55.6499938965 -26.9499969482 -54.5 0.849990844727 -32.1000061035 -0.849990844727 -25 26 0 21 rrcurveto
          endchar
        </CharString>
        <CharString name="atilde">
          -53 -6 84.5 380 82.5 60.8500061035 74.5500030518 -40.4000091553 75.3999938965 hstemhm
          37.3000030518 92 251.149993896 92 hintmask 00010000
          89.75 645.900390625 rmoveto
          -36 callsubr
          hintmask 00100000
          -35 callsubr
          hintmask 00010000
          -34 callsubr
          hintmask 11001100
          -52.4501953125 -517.350585938 rmoveto
          -13 callsubr
          92 -48.9501953125 rmoveto
          -12 callsubr
          endchar
        </CharString>
        <CharString name="atilde.salt">
          -37 0 83 170.699996948 64.8000030518 134.899993896 83.6000061035 60.895401001 74.5500030518 -40.4000091553 75.3999938965 hstemhm
          46.6999969482 92 258 92 hintmask 00001000
          104.982421875 641.9453125 rmoveto
          -36 callsubr
          hintmask 00010000
          36.4501953125 0.8505859375 17.8505859375 -32.4501953125 54.0498046875 -2.5498046875 43.349609375 -1.7001953125 39.8505859375 39.849609375 31.349609375 26.2001953125 rrcurveto
          -22.599609375 46.7998046875 rlineto
          -30.5 -17.8994140625 -34.400390625 -19.8505859375 -26.400390625 1.150390625 rrcurveto
          hintmask 00001000
          145 callsubr
          hintmask 11100110
          -58.2822265625 -507.9453125 rmoveto
          149 callsubr
          92 -55 rmoveto
          150 callsubr
          endchar
        </CharString>
        <CharString name="atilde.smcp">
          23 0 21 121.25 84.5 404.100006104 74.5500030518 -40.4000091553 75.3999938965 hstemhm
          hintmask 00010000
          136.75 674.900390625 rmoveto
          -36 callsubr
          hintmask 00100000
          -35 callsubr
          hintmask 00010000
          -34 callsubr
          hintmask 11000000
          -104 -674.900390625 rmoveto
          110 callsubr
          -35.7998046875 -343.25 rmoveto
          111 callsubr
          endchar
        </CharString>
        <CharString name="b">
          -18 -6 86.4499969482 374.800003052 83.75 hstem
          56.1000061035 91.3000030518 268.799987793 92 vstem
          56.1000061035 hmoveto
          69.9499969482 0 21.3500061035 57.5 rlineto
          27.950012207 -21.1000061035 91.6499938965 -42.3999938965 66.6499938965 0 rrcurveto
          141.100006104 33.4499969482 136.350006104 132.649993896 143.949996948 -24.5999908447 132.050003052 -149.950012207 hvcurveto
          -45 0 -82.4499969482 -13.5500030518 -59.8000030518 -24.9499969482 rrcurveto
          284.5 -90.3000030518 vlineto
          91.299987793 -662.149993896 rmoveto
          308.050003052 vlineto
          60.1500091553 16.950012207 47 7.39999389648 69.1999969482 0 rrcurveto
          58.6000061035 33.8499908447 -35.25 -155.5 -126.850006104 -32.8499908447 -57.1999969482 -59.6000061035 hvcurveto
          -71.8000030518 0 -57.1499938965 21.1500091553 -47.4000091553 21.25 rrcurveto
          endchar
        </CharString>
        <CharString name="b.salt">
          -17 -12.25 83 380.100006104 83.8999938965 248.800003052 -20 hstem
          56.1000061035 92 268.349990845 92 vstem
          56.1000061035 12.6999969482 rmoveto
          48.3499908447 -9.40000915527 113.100006104 -15.5500030518 104.050003052 0 rrcurveto
          125 61.8499908447 96.1999969482 172.800003052 163.100006104 -33.8499908447 114.899993896 -153 hvcurveto
          -45 0 -70.8000030518 -12.5500030518 -57.6999969482 -26.4499969482 rrcurveto
          287.800003052 -92 vlineto
          92 -712.799987793 rmoveto
          356 vlineto
          72.3499908447 20.1000061035 28.0500030518 4 65.8999938965 0 rrcurveto
          104.700012207 -2.65000915527 -104.400009155 -90.75 -62.5500030518 -2.69999694824 -122.399993896 -99.6499938965 hvcurveto
          endchar
        </CharString>
        <CharString name="b.smcp">
          -26 0 87 167.25 81.5 149.25 86 hstem
          74.75 92 245.550003052 92.4499969482 vstem
          74.75 hmoveto
          265.5 hlineto
          126 38.5 69.1999969482 92.8000030518 hvcurveto
          0 76.1999969482 -34.9499969482 40 -34.5500030518 12.8000030518 41.3500061035 18.6999969482 25.1499938965 34.0500030518 0 74.25 rrcurveto
          75.1000061035 -37.5 77.8999938965 -124 vhcurveto
          -265.5 hlineto
          92 -484 rmoveto
          167.25 vlineto
          30.6000061035 -1.69999694824 139.899993896 1.69999694824 0 0 rrcurveto
          58.25 16.8000030518 -36.3500061035 -50.9499969482 -72.5500030518 -42.9000091553 -7.39999389648 -32.1499938965 hvcurveto
          -170.5 248.75 rmoveto
          149.25 170.5 vlineto
          28.3999938965 44.1000061035 -7.75 -63.75 -55.8500061035 -14.6499938965 -21.8999938965 -57.8500061035 hvcurveto
          endchar
        </CharString>
        <CharString name="b.superior">
          -173 374 70.3999938965 227.200012207 68.4499969482 hstem
          35.4499969482 74.6000061035 180.949996948 74.6000061035 vstem
          35.4499969482 378 rmoveto
          52.75 0 22 43.8000030518 rlineto
          21.1999816895 -15.6499938965 53.75 -32.1499938965 49.6500091553 0 rrcurveto
          105.399993896 25.4000091553 91.1000061035 89.5 96.6999969482 -18.3000030518 88.75 -112.5 hvcurveto
          -33.6999969482 0 -46.3500061035 -9.85000610352 -44.6999969482 -19.0999908447 rrcurveto
          190.75 -74.6000061035 vlineto
          74.7499847412 -430.850006104 rmoveto
          184.5 vlineto
          45.2499847412 10.5500030518 14.6000061035 5.55000305176 51.6999969482 0 rrcurveto
          43.8000030518 25.4499969482 -17.3500061035 -98.6000061035 -80.299987793 -24.4499969482 -30.950012207 -44.5 hvcurveto
          -53.3000030518 0 -22.6499938965 13.200012207 -35.9000091553 13.3999938965 rrcurveto
          endchar
        </CharString>
        <CharString name="backslash">
          -157 18.6499938965 770 rmoveto
          281 -842 97 0 -281 842 rlineto
          endchar
        </CharString>
        <CharString name="bar">
          -327 80.3000030518 86 vstem
          80.3000030518 -72 rmoveto
          86 842 -86 hlineto
          endchar
        </CharString>
        <CharString name="braceleft">
          -252 -210 84.5 420.25 77.5 383.75 86 hstem
          103.149993896 92 vstem
          18.6499938965 294.75 rmoveto
          40 3 44.5 -15.1999969482 0 -40.8000030518 rrcurveto
          -279.75 vlineto
          -84.8999938965 45.450012207 -87.1000061035 153.049987793 vhcurveto
          84.5 vlineto
          -66.3999938965 -3.39999389648 -40.1000061035 36.3999938965 0 65 rrcurveto
          275.5 vlineto
          0 44.25 -36.4499969482 33.8500061035 -50.5500030518 7.89999389648 50.5500030518 8.39999389648 37.4499969482 28.700012207 0 51.8999938965 rrcurveto
          221 vlineto
          91 45.6500091553 21 59.8499908447 vhcurveto
          86 vlineto
          -137.649993896 -59.8500061035 -86.3999938965 -99.6000061035 hvcurveto
          -230.75 vlineto
          0 -49.0500030518 -52.5 -0.949996948242 -33 -3 rrcurveto
          endchar
        </CharString>
        <CharString name="braceright">
          -252 -210 84.5 420.25 77.5 383.75 86 hstem
          125.149993896 92 vstem
          18.6499938965 -125.5 rmoveto
          -84.5 vlineto
          153.050003052 45.4499969482 87.1000061035 84.8999938965 hvcurveto
          279.75 vlineto
          0 40.8000030518 44.5 15.1999969482 40 -3 rrcurveto
          77.5 vlineto
          -33 3 -52.5 0.949996948242 0 49.0500030518 rrcurveto
          230.75 vlineto
          99.6000061035 -59.8499908447 86.3999938965 -137.650009155 vhcurveto
          -86 vlineto
          59.8500061035 45.6499938965 -21 -91 hvcurveto
          -221 vlineto
          0 -51.8999938965 37.450012207 -28.700012207 50.549987793 -8.39999389648 -50.549987793 -7.89999389648 -36.450012207 -33.8500061035 0 -44.25 rrcurveto
          -275.5 vlineto
          0 -65 -40.0999908447 -36.3999938965 -66.4000091553 3.39999389648 rrcurveto
          endchar
        </CharString>
        <CharString name="bracketleft">
          -248 -210 86 880 86 hstem
          79.4499969482 92 vstem
          79.4499969482 -30.5 rmoveto
          -1.52587890625e-05 -65.6999969482 16.8000030518 -113.800003052 128.199996948 0 rrcurveto
          81.5 86 -72.5 hlineto
          -38.0000152588 -24 35 60 hvcurveto
          690 vlineto
          -1.52587890625e-05 60 24 35 38 0 rrcurveto
          72.5 86 -81.5 hlineto
          -123.700012207 -21.3000030518 -105.699996948 -70.8000030518 hvcurveto
          endchar
        </CharString>
        <CharString name="bracketright">
          -248 -210 86 880 86 hstem
          153.149993896 92 vstem
          18.6499938965 -124 rmoveto
          -86 81.5 vlineto
          128.200012207 16.799987793 113.800003052 65.6999969482 hvcurveto
          696 vlineto
          70.8000030518 -21.299987793 105.699996948 -123.700012207 vhcurveto
          -81.5 -86 72.5 hlineto
          38 24 -35 -60 hvcurveto
          -690 vlineto
          -60 -24 -35 -38 vhcurveto
          endchar
        </CharString>
        <CharString name="breve">
          -250 530 50 hstem
          46.6999969482 50 130 50 vstem
          46.6999969482 644 rmoveto
          -1.52587890625e-05 -71.3999938965 56.9000091553 -42.6000061035 57.0999908447 0 rrcurveto
          57.4000091553 58.5999908447 39.1999969482 74.8000030518 hvcurveto
          -50 hlineto
          -1.52587890625e-05 -39.8999938965 -28 -24.1000061035 -38 0 rrcurveto
          -32.8499908447 -31.1500091553 26.3500061035 37.6499938965 hvcurveto
          endchar
        </CharString>
        <CharString name="brokenbar">
          -326 80.3000030518 86 vstem
          80.3000030518 -72 rmoveto
          86 328 -86 hlineto
          1.52587890625e-05 173 rmoveto
          86 341 -86 hlineto
          endchar
        </CharString>
        <CharString name="bullet">
          -261 303.75 157.5 hstem
          79.4499969482 152.5 vstem
          79.4499969482 335.75 rmoveto
          -1.52587890625e-05 -20 13 -12 20 0 rrcurveto
          84.5 hlineto
          19.9999847412 15 8 24 hvcurveto
          90.5 vlineto
          -1.52587890625e-05 22 -10 13 -25 0 rrcurveto
          -84.5 hlineto
          -22.0000152588 -11 -14 -21 hvcurveto
          endchar
        </CharString>
        <CharString name="bullet.smcp">
          -261 246.300003052 157.5 hstem
          79.4499969482 152.5 vstem
          79.4499969482 278.300003052 rmoveto
          -1.52587890625e-05 -19.9999847412 13 -12 20 0 rrcurveto
          84.5 hlineto
          19.9999847412 1.52587890625e-05 15 8 0 24 rrcurveto
          90.5 vlineto
          -1.52587890625e-05 22.0000152588 -10 13 -25 0 rrcurveto
          -84.5 hlineto
          -22.0000152588 1.52587890625e-05 -11 -14 0 -21 rrcurveto
          endchar
        </CharString>
        <CharString name="c">
          -74 -5 84.5 372 84.5 hstem
          46.6999969482 92 vstem
          46.6999969482 266 rmoveto
          -1.52587890625e-05 -229.25 76 -41.75 99 0 83 1 76.4000091553 1.85000610352 80.0999908447 27.5 rrcurveto
          64.6999969482 vlineto
          -1.52587890625e-05 1.52587890625e-05 -131.149993896 -10.5500030518 -92 0 rrcurveto
          -72 -27.3500061035 34.4499969482 148.350006104 180.149993896 38.1500091553 9.05000305176 61.1999969482 89 127.149993896 -6 0 hvcurveto
          63 vlineto
          -74.8000183105 17.1999969482 -105.699996948 10.3000030518 -52 0 rrcurveto
          -102 -73 -41.6000061035 -228.399993896 hvcurveto
          endchar
        </CharString>
        <CharString name="c.smcp">
          -54 -4 84.5 413 84.5 hstem
          51.4004058838 91.9996032715 vstem
          51.4004058838 295 rmoveto
          1.52587890625e-05 -143.699996948 23.4491882324 -155.300003052 185.05039978 0 82.8500061035 0 83.0500030518 13.4501953125 60.0999908447 14.8993988037 rrcurveto
          67.5 vlineto
          0 -1.52587890625e-05 -142.349990845 -9.64939880371 -74.6500091553 -1.7001953125 -115 2 -10.5 104.149993896 0 108.350006104 0 123.5 23.5 75 102 0 65 0 137 -8.5 15 -3 rrcurveto
          69.5 vlineto
          -54.4499969482 15 -119.699996948 11.5 -51.8500061035 0 rrcurveto
          -172.100189209 -36.3993988037 -132.149993896 -150.850006104 hvcurveto
          endchar
        </CharString>
        <CharString name="c.superior">
          -212 373.300003052 68.8999938965 225.600006104 68.8999938965 hstem
          28.8999938965 74.6000061035 vstem
          28.8999938965 555 rmoveto
          -153.300003052 56.4000091553 -28.3999938965 73.3999938965 vhcurveto
          61.4000091553 1 48.799987793 1.59999084473 59.8000030518 20.450012207 rrcurveto
          52.3999938965 vlineto
          -1.52587890625e-05 0 -83.8000030518 -6.55000305176 -67.799987793 0 rrcurveto
          -53.1000061035 -20.5 19.5 91.4499969482 113.700012207 28.6000061035 0.949996948242 45 65.799987793 80.8000030518 -4.85000610352 0 hvcurveto
          51.8500061035 vlineto
          -55.8500061035 13.1500091553 -70.450012207 8.75 -38.6999969482 0 rrcurveto
          -76.25 -53.5500030518 -29.25 -152.449996948 hvcurveto
          endchar
        </CharString>
        <CharString name="c_h">
          478 -7 84.5 -56.5 -21 21 -21 453.199996948 84.5 246 -20 hstemhm
          37.3000030518 92 431.849990845 91.8500061035 259.149993896 92 hintmask 10011111
          37.3000030518 266 rmoveto
          1.52587890625e-05 -233 83.6499938965 -40 99 0 160.850006104 5.94999694824 272.349990845 -51.8499908447 0 263.849990845 rrcurveto
          190.550003052 vlineto
          55.3500061035 29.5500030518 41.8500061035 24.4499969482 80.3499908447 0 rrcurveto
          46.6500091553 34.799987793 -27 -62.3999938965 hvcurveto
          hintmask 01011111
          -366.100006104 92 365.5 vlineto
          91.6000061035 -51.6999969482 82.8999938965 -110.800003052 vhcurveto
          -82.6999969482 0 -54.3000030518 -37.9499969482 -51.6499938965 -31.5500030518 rrcurveto
          313.199996948 -91.8500061035 -569.899993896 vlineto
          hintmask 10011111
          -154.349990845 -141.699996948 18.0500030518 -189 -72 -29.1499938965 37.1999969482 147.300003052 180.449996948 38.1499938965 10.75 61.1999969482 89 127.300003052 -7.69999694824 0 vhcurveto
          63 vlineto
          -74.8000183105 17.1999969482 -105.699996948 12 -52 0 rrcurveto
          -102 -73.1499938965 -43.3000030518 -228.399993896 hvcurveto
          endchar
        </CharString>
        <CharString name="c_k">
          469 -7 84.5 -56.5 -21 21 -21 453.649993896 84.5 -6.14999389648 -20 270 -20 hstemhm
          37.3000030518 92 451.699996948 92 hintmask 10000111
          37.3000030518 266.449996948 rmoveto
          1.52587890625e-05 -233.450012207 129.399993896 -40 111.75 0 82.25 0 97.5500030518 44.1000061035 122.75 102.299987793 rrcurveto
          hintmask 01001111
          -139.399993896 92 213.800003052 vlineto
          1.94999694824 1.50001525879 27.3000030518 24.4499969482 1.80000305176 1.5 rrcurveto
          206.5 -241.25 111.800003052 0 -252.100006104 299.800003052 rlineto
          8.25 8.85000610352 235.100006104 212.300003052 9.59999084473 10.0500030518 rrcurveto
          -128.149993896 1 rlineto
          1.52587890625e-05 0 -210.800003052 -188.050003052 -11.25 -10.6499938965 rrcurveto
          448.699996948 -92 -529.25 vlineto
          hintmask 10010111
          -76.0500030518 -67.5 -133.300003052 -107.75 -93.1999969482 0 rrcurveto
          -93 -56.1499938965 41.5500030518 143.699996948 180.149993896 38.1499938965 10.75 61.1999969482 89 127.300003052 -7.69999694824 0 hvcurveto
          63 vlineto
          -74.8000183105 17.1999816895 -105.699996948 12 -52 0 rrcurveto
          -102 -73.1499938965 -43.299987793 -228.400009155 hvcurveto
          endchar
        </CharString>
        <CharString name="c_t">
          285 -7 84.5 -76.9499969482 64.5500030518 382.049987793 84.6999969482 hstemhm
          37.3000030518 92 472.5 92 -72.5 72.5 hintmask 10111000
          37.3000030518 261 rmoveto
          1.52587890625e-05 -233 76 -35 99.4499969482 0 90.0500030518 0.850006103516 69.1999969482 5.29998779297 80.3999938965 24.200012207 rrcurveto
          64.6999969482 vlineto
          1.52587890625e-05 -131.149993896 -10.5500030518 -92 -72 -27.9499969482 30.25 149.25 183.449996948 41.1499938965 6.55000305176 60 vhcurveto
          371.350006104 0.149993896484 0 -257.300003052 rlineto
          hintmask 01111000
          1.52587890625e-05 -140.150009155 39.6499938965 -49.1499938965 92.75 0 rrcurveto
          88.8000030518 64.5500030518 hlineto
          -1.89999389648 -71.75 18.4499969482 0 hvcurveto
          -41.5500030518 10.3000030518 -14 7.19999694824 0 94.8000030518 rrcurveto
          251.300003052 145.100006104 84.6999969482 vlineto
          hintmask 10110100
          -59 callsubr
          hintmask 10111000
          -19.5 -147.149993896 -387.850006104 0.300003051758 rlineto
          -102.000015259 -74.6499938965 -40 -232 hvcurveto
          endchar
        </CharString>
        <CharString name="cacute">
          -74 -5 84.5 372 84.5 61.728805542 134.5 hstem
          46.6999969482 92 93.9020080566 205 vstem
          232.6015625 597.728515625 rmoveto
          -49 callsubr
          -288.401367188 -466.228515625 rmoveto
          49 callsubr
          endchar
        </CharString>
        <CharString name="cacute.smcp">
          -54 -4 84.5 413 84.5 65 134.5 hstem
          51.4004058838 91.9996032715 98.9749908447 205 vstem
          242.375 643 rmoveto
          -49 callsubr
          -293.474609375 -482.5 rmoveto
          125 callsubr
          endchar
        </CharString>
        <CharString name="caron">
          -183 531 131.5 hstem
          46.6999969482 296.5 vstem
          46.6999969482 662.5 rmoveto
          113.100006104 -131.5 80 0 103.399993896 131.5 -77.1499938965 0 -66.1499938965 -68 -75.3500061035 68 rlineto
          35.2500152588 -131.5 rmoveto
          80.0000152588 hmoveto
          endchar
        </CharString>
        <CharString name="caron.smcp">
          -183 531 157 hstem
          46.6999969482 296.5 vstem
          46.6999969482 688 rmoveto
          102.050003052 -157 80 0 114.449996948 157 -69.5 0 -82.3000030518 -85 -77.0500030518 85 rlineto
          34.3999938965 -157 rmoveto
          80 hmoveto
          endchar
        </CharString>
        <CharString name="ccaron">
          -74 -5 84.5 372 84.5 61.728805542 131.5 hstemhm
          46.6999969482 92 -18.1732025146 296.5 hintmask 00101000
          120.526367188 729.228515625 rmoveto
          38 callsubr
          35.25 -131.5 rmoveto
          80 hmoveto
          hintmask 11010000
          -266.926757812 -331.728515625 rmoveto
          49 callsubr
          endchar
        </CharString>
        <CharString name="ccaron.smcp">
          -54 -4 84.5 413 84.5 65 131.5 hstemhm
          51.4004058838 91.9996032715 -1.20001220703 296.5 hintmask 00101000
          142.200195312 774.5 rmoveto
          30 callsubr
          35.25 -131.5 rmoveto
          80 hmoveto
          hintmask 11010000
          -283.899414062 -348 rmoveto
          125 callsubr
          endchar
        </CharString>
        <CharString name="ccedilla">
          -74 -174.649993896 43.3000030518 124.649993896 84.5 375.399993896 84.5 hstem
          46.6999969482 92 113.650009155 74.5 vstem
          46.6999969482 266 rmoveto
          -1.52587890625e-05 -229.25 76 -43.4499969482 99 0 83 1 76.4000091553 1.84999084473 80.0999908447 27.5 rrcurveto
          64.6999969482 vlineto
          -1.52587890625e-05 0 -131.149993896 -10.5500030518 -92 0 rrcurveto
          -72 -27.3500061035 36.1499938965 148.350006104 180.149993896 38.1500091553 10.75 61.1999969482 89 127.149993896 -7.69999694824 0 hvcurveto
          63 vlineto
          -74.8000183105 17.1999969482 -105.699996948 12 -52 0 rrcurveto
          -102 -73 -43.3000030518 -228.399993896 hvcurveto
          123.650009155 -397.350006104 rmoveto
          -43.3000030518 52.5 vlineto
          81.799987793 22.200012207 35.5 102 hvcurveto
          -74.5 hlineto
          0 -38 -3.40000915527 -29.200012207 -28 -12 rrcurveto
          endchar
        </CharString>
        <CharString name="ccedilla.smcp">
          -54 -174.449996948 43.3000030518 127.149993896 84.5 413 84.5 hstem
          51.4004058838 91.9996032715 125.299987793 74.5 vstem
          186.700195312 -131.150390625 rmoveto
          29 callsubr
          -185.899414062 411.150390625 rmoveto
          125 callsubr
          endchar
        </CharString>
        <CharString name="ccircumflex">
          -74 -5 84.5 372 84.5 61.6999969482 131.5 hstemhm
          46.6999969482 92 -7.55000305176 296.5 hintmask 00101000
          131.150390625 597.700195312 rmoveto
          -19 callsubr
          0 vmoveto
          80 hmoveto
          hintmask 11010000
          -278.899414062 -463.200195312 rmoveto
          49 callsubr
          endchar
        </CharString>
</ttFont>
